<?xml version="1.0" encoding="UTF-8" standalone="no"?>
<!-- Created with Inkscape (http://www.inkscape.org/) -->
<svg
   xmlns:dc="http://purl.org/dc/elements/1.1/"
   xmlns:cc="http://creativecommons.org/ns#"
   xmlns:rdf="http://www.w3.org/1999/02/22-rdf-syntax-ns#"
   xmlns:svg="http://www.w3.org/2000/svg"
   xmlns="http://www.w3.org/2000/svg"
   xmlns:xlink="http://www.w3.org/1999/xlink"
   xmlns:sodipodi="http://sodipodi.sourceforge.net/DTD/sodipodi-0.dtd"
   xmlns:inkscape="http://www.inkscape.org/namespaces/inkscape"
   width="744.09448819"
   height="1052.3622047"
   id="svg3515"
   sodipodi:version="0.32"
   inkscape:version="0.46"
   sodipodi:docname="02aliasingSines.svg"
   inkscape:output_extension="org.inkscape.output.svg.inkscape"
   inkscape:export-filename="/home/thomas/school/mae283/lectures/images/02aliasingSines.png"
   inkscape:export-xdpi="150"
   inkscape:export-ydpi="150">
  <defs
     id="defs3517">
    <clipPath
       id="p12632432c599d5a3f93cdf6d5a4d19e3">
      <rect
         id="rect2769"
         height="144"
         width="486"
         y="18"
         x="27" />
    </clipPath>
    <inkscape:perspective
       sodipodi:type="inkscape:persp3d"
       inkscape:vp_x="0 : 526.18109 : 1"
       inkscape:vp_y="0 : 1000 : 0"
       inkscape:vp_z="744.09448 : 526.18109 : 1"
       inkscape:persp3d-origin="372.04724 : 350.78739 : 1"
       id="perspective3523" />
  </defs>
  <sodipodi:namedview
     id="base"
     pagecolor="#ffffff"
     bordercolor="#666666"
     borderopacity="1.0"
     gridtolerance="10000"
     guidetolerance="10"
     objecttolerance="10"
     inkscape:pageopacity="0.0"
     inkscape:pageshadow="2"
     inkscape:zoom="0.35"
     inkscape:cx="375"
     inkscape:cy="520"
     inkscape:document-units="px"
     inkscape:current-layer="layer1"
     showgrid="false"
     inkscape:window-width="1280"
     inkscape:window-height="974"
     inkscape:window-x="0"
     inkscape:window-y="25" />
  <metadata
     id="metadata3520">
    <rdf:RDF>
      <cc:Work
         rdf:about="">
        <dc:format>image/svg+xml</dc:format>
        <dc:type
           rdf:resource="http://purl.org/dc/dcmitype/StillImage" />
      </cc:Work>
    </rdf:RDF>
  </metadata>
  <g
     inkscape:label="Layer 1"
     inkscape:groupmode="layer"
     id="layer1">
    <g
       id="axes1"
       transform="matrix(1.25,0,0,1.25,17.476898,137.02292)">
      <path
         id="path2750"
         d="M 27,162 L 513,162 L 513,18 L 27,18 L 27,162"
         style="opacity:0;fill:#ffffff" />
      <g
         id="LineCollection1">
        <defs
           id="defs2753">
          <path
             d="M 49.090909,-90 L 49.090909,-69.773433"
             id="coll0_0_2ea2e3a0683c0d2a7d954c608634f09a" />
          <path
             d="M 93.272727,-90 L 93.272727,-110.22645"
             id="coll0_1_bdcc7d0e6554a75d7a44a434960b8641" />
          <path
             d="M 137.45455,-90 L 137.45455,-142.95384"
             id="coll0_2_3bf03d591a52a691fd101ae3730d9119" />
          <path
             d="M 181.63636,-90 L 181.63636,-155.45417"
             id="coll0_3_dc8cba8a0d60c6fa96dd2fb6c0e02b07" />
          <path
             d="M 225.81818,-90 L 225.81818,-142.95384"
             id="coll0_4_135c90d81405799ec87e1c203307b6bc" />
          <path
             d="M 270,-90 L 270,-110.22645"
             id="coll0_5_ef2e797563fe675d49eb03b719b798ee" />
          <path
             d="M 314.18182,-90 L 314.18182,-69.773433"
             id="coll0_6_31d1ba47a16e02b8ea796c13275c23ae" />
          <path
             d="M 358.36364,-90 L 358.36364,-37.046466"
             id="coll0_7_59754782c96ed6e6a67bd3feed9c0737" />
          <path
             d="M 402.54545,-90 L 402.54545,-24.545455"
             id="coll0_8_992c85aa515416d5f1d5f2b2a74f8ec3" />
          <path
             d="M 446.72727,-90 L 446.72727,-37.046466"
             id="coll0_9_b1aaf6d84ca8d905f8ef77bafd855aee" />
          <path
             d="M 490.90909,-90 L 490.90909,-69.773433"
             id="coll0_a_7e282eb69764c8ce5c85afbb7c9231bb" />
        </defs>
        <defs
           id="defs2766">
          <clipPath
             id="clipPath3349">
            <rect
               id="rect3351"
               height="144"
               width="486"
               y="18"
               x="27" />
          </clipPath>
        </defs>
        <g
           id="g2771"
           clip-path="url(#p12632432c599d5a3f93cdf6d5a4d19e3)">
          <use
             height="180"
             width="540"
             id="use2773"
             y="180"
             x="0"
             xlink:href="#coll0_0_2ea2e3a0683c0d2a7d954c608634f09a"
             style="opacity:1;fill:none;stroke:#000000;stroke-width:1;stroke-linecap:butt;stroke-linejoin:miter" />
        </g>
        <g
           id="g2775"
           clip-path="url(#p12632432c599d5a3f93cdf6d5a4d19e3)">
          <use
             height="180"
             width="540"
             id="use2777"
             y="180"
             x="0"
             xlink:href="#coll0_1_bdcc7d0e6554a75d7a44a434960b8641"
             style="opacity:1;fill:none;stroke:#000000;stroke-width:1;stroke-linecap:butt;stroke-linejoin:miter" />
        </g>
        <g
           id="g2779"
           clip-path="url(#p12632432c599d5a3f93cdf6d5a4d19e3)">
          <use
             height="180"
             width="540"
             id="use2781"
             y="180"
             x="0"
             xlink:href="#coll0_2_3bf03d591a52a691fd101ae3730d9119"
             style="opacity:1;fill:none;stroke:#000000;stroke-width:1;stroke-linecap:butt;stroke-linejoin:miter" />
        </g>
        <g
           id="g2783"
           clip-path="url(#p12632432c599d5a3f93cdf6d5a4d19e3)">
          <use
             height="180"
             width="540"
             id="use2785"
             y="180"
             x="0"
             xlink:href="#coll0_3_dc8cba8a0d60c6fa96dd2fb6c0e02b07"
             style="opacity:1;fill:none;stroke:#000000;stroke-width:1;stroke-linecap:butt;stroke-linejoin:miter" />
        </g>
        <g
           id="g2787"
           clip-path="url(#p12632432c599d5a3f93cdf6d5a4d19e3)">
          <use
             height="180"
             width="540"
             id="use2789"
             y="180"
             x="0"
             xlink:href="#coll0_4_135c90d81405799ec87e1c203307b6bc"
             style="opacity:1;fill:none;stroke:#000000;stroke-width:1;stroke-linecap:butt;stroke-linejoin:miter" />
        </g>
        <g
           id="g2791"
           clip-path="url(#p12632432c599d5a3f93cdf6d5a4d19e3)">
          <use
             height="180"
             width="540"
             id="use2793"
             y="180"
             x="0"
             xlink:href="#coll0_5_ef2e797563fe675d49eb03b719b798ee"
             style="opacity:1;fill:none;stroke:#000000;stroke-width:1;stroke-linecap:butt;stroke-linejoin:miter" />
        </g>
        <g
           id="g2795"
           clip-path="url(#p12632432c599d5a3f93cdf6d5a4d19e3)">
          <use
             height="180"
             width="540"
             id="use2797"
             y="180"
             x="0"
             xlink:href="#coll0_6_31d1ba47a16e02b8ea796c13275c23ae"
             style="opacity:1;fill:none;stroke:#000000;stroke-width:1;stroke-linecap:butt;stroke-linejoin:miter" />
        </g>
        <g
           id="g2799"
           clip-path="url(#p12632432c599d5a3f93cdf6d5a4d19e3)">
          <use
             height="180"
             width="540"
             id="use2801"
             y="180"
             x="0"
             xlink:href="#coll0_7_59754782c96ed6e6a67bd3feed9c0737"
             style="opacity:1;fill:none;stroke:#000000;stroke-width:1;stroke-linecap:butt;stroke-linejoin:miter" />
        </g>
        <g
           id="g2803"
           clip-path="url(#p12632432c599d5a3f93cdf6d5a4d19e3)">
          <use
             height="180"
             width="540"
             id="use2805"
             y="180"
             x="0"
             xlink:href="#coll0_8_992c85aa515416d5f1d5f2b2a74f8ec3"
             style="opacity:1;fill:none;stroke:#000000;stroke-width:1;stroke-linecap:butt;stroke-linejoin:miter" />
        </g>
        <g
           id="g2807"
           clip-path="url(#p12632432c599d5a3f93cdf6d5a4d19e3)">
          <use
             height="180"
             width="540"
             id="use2809"
             y="180"
             x="0"
             xlink:href="#coll0_9_b1aaf6d84ca8d905f8ef77bafd855aee"
             style="opacity:1;fill:none;stroke:#000000;stroke-width:1;stroke-linecap:butt;stroke-linejoin:miter" />
        </g>
        <g
           id="g2811"
           clip-path="url(#p12632432c599d5a3f93cdf6d5a4d19e3)">
          <use
             height="180"
             width="540"
             id="use2813"
             y="180"
             x="0"
             xlink:href="#coll0_a_7e282eb69764c8ce5c85afbb7c9231bb"
             style="opacity:1;fill:none;stroke:#000000;stroke-width:1;stroke-linecap:butt;stroke-linejoin:miter" />
        </g>
      </g>
      <g
         id="line2d1">
        <path
           id="path2816"
           d="M 31.418182,29.141903 L 31.895823,27.783466 L 32.373464,26.65748 L 32.851106,25.768152 L 33.328747,25.118805 L 33.806388,24.711865 L 34.284029,24.548852 L 34.761671,24.630375 L 35.239312,24.956131 L 35.716953,25.5249 L 36.194595,26.33456 L 36.672236,27.382083 L 37.149877,28.663558 L 37.627518,30.174196 L 38.10516,31.908353 L 38.582801,33.85955 L 39.060442,36.020496 L 39.538084,38.383119 L 40.015725,40.938592 L 40.493366,43.677366 L 40.971007,46.589208 L 41.448649,49.663241 L 41.92629,52.887978 L 42.403931,56.251372 L 42.881572,59.740857 L 43.359214,63.343395 L 43.836855,67.045526 L 44.314496,70.833419 L 44.792138,74.692921 L 45.269779,78.609613 L 45.74742,82.568862 L 46.225061,86.555874 L 46.702703,90.555754 L 47.180344,94.553558 L 47.657985,98.534349 L 48.135627,102.48325 L 48.613268,106.38552 L 49.090909,110.22657 L 49.56855,113.99204 L 50.046192,117.66788 L 50.523833,121.24035 L 51.001474,124.6961 L 51.479115,128.02222 L 51.956757,131.20628 L 52.434398,134.23638 L 52.912039,137.10121 L 53.389681,139.79007 L 53.867322,142.2929 L 54.344963,144.60036 L 54.822604,146.70382 L 55.300246,148.59542 L 55.777887,150.2681 L 56.255528,151.71561 L 56.73317,152.93255 L 57.210811,153.91435 L 57.688452,154.65736 L 58.166093,155.1588 L 58.643735,155.4168 L 59.121376,155.43039 L 59.599017,155.19952 L 60.076658,154.72505 L 60.5543,154.00876 L 61.031941,153.05332 L 61.509582,151.86231 L 61.987224,150.44016 L 62.464865,148.79221 L 62.942506,146.92459 L 63.420147,144.8443 L 63.897789,142.5591 L 64.37543,140.07753 L 64.853071,137.40886 L 65.330713,134.56306 L 65.808354,131.55077 L 66.285995,128.38324 L 66.763636,125.0723 L 67.241278,121.63033 L 67.718919,118.07018 L 68.19656,114.40515 L 68.674201,110.64895 L 69.151843,106.81559 L 69.629484,102.91941 L 70.107125,98.974962 L 70.584767,94.996981 L 71.062408,91.000331 L 71.540049,86.999943 L 72.01769,83.010764 L 72.495332,79.047697 L 72.972973,75.125551 L 73.450614,71.258978 L 73.928256,67.462424 L 74.405897,63.750074 L 74.883538,60.135799 L 75.361179,56.633101 L 75.838821,53.255067 L 76.316462,50.014319 L 76.794103,46.922963 L 77.271744,43.992551 L 77.749386,41.234029 L 78.227027,38.657706 L 78.704668,36.273206 L 79.18231,34.089438 L 79.659951,32.114561 L 80.137592,30.355953 L 80.615233,28.820186 L 81.092875,27.512996 L 81.570516,26.439269 L 82.048157,25.603014 L 82.525799,25.007357 L 83.00344,24.654524 L 83.481081,24.545832 L 83.958722,24.681688 L 84.436364,25.061583 L 84.914005,25.684099 L 85.391646,26.54691 L 85.869287,27.646793 L 86.346929,28.979637 L 86.82457,30.540463 L 87.302211,32.32344 L 87.779853,34.321906 L 88.257494,36.528394 L 88.735135,38.934661 L 89.212776,41.531717 L 89.690418,44.309858 L 90.168059,47.258705 L 90.6457,50.367241 L 91.123342,53.623851 L 91.600983,57.016369 L 92.078624,60.532119 L 92.556265,64.157965 L 93.033907,67.880362 L 93.511548,71.685401 L 93.989189,75.558867 L 94.46683,79.486287 L 94.944472,83.452988 L 95.422113,87.44415 L 95.899754,91.444861 L 96.377396,95.440174 L 96.855037,99.415161 L 97.332678,103.35497 L 97.810319,107.24489 L 98.287961,111.07037 L 98.765602,114.81713 L 99.243243,118.47117 L 99.720885,122.01884 L 100.19853,125.44688 L 100.67617,128.74249 L 101.15381,131.89334 L 101.63145,134.88768 L 102.10909,137.71431 L 102.58673,140.36267 L 103.06437,142.82287 L 103.54201,145.08571 L 104.01966,147.14274 L 104.4973,148.98628 L 104.97494,150.60944 L 105.45258,152.00614 L 105.93022,153.17119 L 106.40786,154.10021 L 106.8855,154.78975 L 107.36314,155.23722 L 107.84079,155.44096 L 108.31843,155.40019 L 108.79607,155.11508 L 109.27371,154.58669 L 109.75135,153.81699 L 110.22899,152.80887 L 110.70663,151.56608 L 111.18428,150.09326 L 111.66192,148.39593 L 112.13956,146.48042 L 112.6172,144.35389 L 113.09484,142.02429 L 113.57248,139.50032 L 114.05012,136.7914 L 114.52776,133.90766 L 115.00541,130.85988 L 115.48305,127.65944 L 115.96069,124.31829 L 116.43833,120.84893 L 116.91597,117.26431 L 117.39361,113.57783 L 117.87125,109.80326 L 118.34889,105.95469 L 118.82654,102.04652 L 119.30418,98.093342 L 119.78182,94.109925 L 120.25946,90.111152 L 120.7371,86.111964 L 121.21474,82.127302 L 121.69238,78.172054 L 122.17002,74.260997 L 122.64767,70.408744 L 123.12531,66.629687 L 123.60295,62.937945 L 124.08059,59.347311 L 124.55823,55.871201 L 125.03587,52.522602 L 125.51351,49.314024 L 125.99115,46.257456 L 126.4688,43.364318 L 126.94644,40.645418 L 127.42408,38.110915 L 127.90172,35.770278 L 128.37936,33.632252 L 128.857,31.704825 L 129.33464,29.995199 L 129.81229,28.50976 L 130.28993,27.25406 L 130.76757,26.232788 L 131.24521,25.449761 L 131.72285,24.907905 L 132.20049,24.609243 L 132.67813,24.554892 L 133.15577,24.745055 L 133.63342,25.179021 L 134.11106,25.855168 L 134.5887,26.770972 L 135.06634,27.923009 L 135.54398,29.306977 L 136.02162,30.917703 L 136.49926,32.749171 L 136.9769,34.794537 L 137.45455,37.04616 L 137.93219,39.495628 L 138.40983,42.133788 L 138.88747,44.950783 L 139.36511,47.936091 L 139.84275,51.078556 L 140.32039,54.366438 L 140.79803,57.787452 L 141.27568,61.328819 L 141.75332,64.977305 L 142.23096,68.71928 L 142.7086,72.540764 L 143.18624,76.427478 L 143.66388,80.364901 L 144.14152,84.338323 L 144.61916,88.332898 L 145.09681,92.333701 L 145.57445,96.325785 L 146.05209,100.29423 L 146.52973,104.22422 L 147.00737,108.10107 L 147.48501,111.91029 L 147.96265,115.63764 L 148.44029,119.26921 L 148.91794,122.79143 L 149.39558,126.19113 L 149.87322,129.45561 L 150.35086,132.57268 L 150.8285,135.5307 L 151.30614,138.3186 L 151.78378,140.92598 L 152.26143,143.34309 L 152.73907,145.5609 L 153.21671,147.57112 L 153.69435,149.36625 L 154.17199,150.93958 L 154.64963,152.28523 L 155.12727,153.39817 L 155.60491,154.27424 L 156.08256,154.91018 L 156.5602,155.3036 L 157.03784,155.45304 L 157.51548,155.35793 L 157.99312,155.01863 L 158.47076,154.43641 L 158.9484,153.61345 L 159.42604,152.55282 L 159.90369,151.25848 L 160.38133,149.73527 L 160.85897,147.98888 L 161.33661,146.02583 L 161.81425,143.85346 L 162.29189,141.47988 L 162.76953,138.91397 L 163.24717,136.16531 L 163.72482,133.24416 L 164.20246,130.16145 L 164.6801,126.92869 L 165.15774,123.55796 L 165.63538,120.06185 L 166.11302,116.45342 L 166.59066,112.74616 L 167.0683,108.95391 L 167.54595,105.09085 L 168.02359,101.17141 L 168.50123,97.210229 L 168.97887,93.22211 L 169.45651,89.221953 L 169.93415,85.224703 L 170.41179,81.245294 L 170.88943,77.298594 L 171.36708,73.399349 L 171.84472,69.562126 L 172.32236,65.801263 L 172.8,62.13081 L 173.27764,58.564481 L 173.75528,55.1156 L 174.23292,51.797054 L 174.71057,48.621239 L 175.18821,45.600023 L 175.66585,42.744692 L 176.14349,40.065915 L 176.62113,37.5737 L 177.09877,35.277358 L 177.57641,33.185469 L 178.05405,31.305848 L 178.5317,29.645518 L 179.00934,28.210683 L 179.48698,27.006703 L 179.96462,26.038076 L 180.44226,25.308421 L 180.9199,24.820465 L 181.39754,24.57603 L 181.87518,24.57603 L 182.35283,24.820465 L 182.83047,25.308421 L 183.30811,26.038076 L 183.78575,27.006703 L 184.26339,28.210683 L 184.74103,29.645518 L 185.21867,31.305848 L 185.69631,33.185469 L 186.17396,35.277358 L 186.6516,37.5737 L 187.12924,40.065915 L 187.60688,42.744692 L 188.08452,45.600023 L 188.56216,48.621239 L 189.0398,51.797054 L 189.51744,55.1156 L 189.99509,58.564481 L 190.47273,62.13081 L 190.95037,65.801263 L 191.42801,69.562126 L 191.90565,73.399349 L 192.38329,77.298594 L 192.86093,81.245294 L 193.33857,85.224703 L 193.81622,89.221953 L 194.29386,93.22211 L 194.7715,97.210229 L 195.24914,101.17141 L 195.72678,105.09085 L 196.20442,108.95391 L 196.68206,112.74616 L 197.15971,116.45342 L 197.63735,120.06185 L 198.11499,123.55796 L 198.59263,126.92869 L 199.07027,130.16145 L 199.54791,133.24416 L 200.02555,136.16531 L 200.50319,138.91397 L 200.98084,141.47988 L 201.45848,143.85346 L 201.93612,146.02583 L 202.41376,147.98888 L 202.8914,149.73527 L 203.36904,151.25848 L 203.84668,152.55282 L 204.32432,153.61345 L 204.80197,154.43641 L 205.27961,155.01863 L 205.75725,155.35793 L 206.23489,155.45304 L 206.71253,155.3036 L 207.19017,154.91018 L 207.66781,154.27424 L 208.14545,153.39817 L 208.6231,152.28523 L 209.10074,150.93958 L 209.57838,149.36625 L 210.05602,147.57112 L 210.53366,145.5609 L 211.0113,143.34309 L 211.48894,140.92598 L 211.96658,138.3186 L 212.44423,135.5307 L 212.92187,132.57268 L 213.39951,129.45561 L 213.87715,126.19113 L 214.35479,122.79143 L 214.83243,119.26921 L 215.31007,115.63764 L 215.78771,111.91029 L 216.26536,108.10107 L 216.743,104.22422 L 217.22064,100.29423 L 217.69828,96.325785 L 218.17592,92.333701 L 218.65356,88.332898 L 219.1312,84.338323 L 219.60885,80.364901 L 220.08649,76.427478 L 220.56413,72.540764 L 221.04177,68.71928 L 221.51941,64.977305 L 221.99705,61.328819 L 222.47469,57.787452 L 222.95233,54.366438 L 223.42998,51.078556 L 223.90762,47.936091 L 224.38526,44.950783 L 224.8629,42.133788 L 225.34054,39.495628 L 225.81818,37.04616 L 226.29582,34.794537 L 226.77346,32.749171 L 227.25111,30.917703 L 227.72875,29.306977 L 228.20639,27.923009 L 228.68403,26.770972 L 229.16167,25.855168 L 229.63931,25.179021 L 230.11695,24.745055 L 230.59459,24.554892 L 231.07224,24.609243 L 231.54988,24.907905 L 232.02752,25.449761 L 232.50516,26.232788 L 232.9828,27.25406 L 233.46044,28.50976 L 233.93808,29.995199 L 234.41572,31.704825 L 234.89337,33.632252 L 235.37101,35.770278 L 235.84865,38.110915 L 236.32629,40.645418 L 236.80393,43.364318 L 237.28157,46.257456 L 237.75921,49.314024 L 238.23686,52.522602 L 238.7145,55.871201 L 239.19214,59.347311 L 239.66978,62.937945 L 240.14742,66.629687 L 240.62506,70.408744 L 241.1027,74.260997 L 241.58034,78.172054 L 242.05799,82.127302 L 242.53563,86.111964 L 243.01327,90.111152 L 243.49091,94.109925 L 243.96855,98.093342 L 244.44619,102.04652 L 244.92383,105.95469 L 245.40147,109.80326 L 245.87912,113.57783 L 246.35676,117.26431 L 246.8344,120.84893 L 247.31204,124.31829 L 247.78968,127.65944 L 248.26732,130.85988 L 248.74496,133.90766 L 249.2226,136.7914 L 249.70025,139.50032 L 250.17789,142.02429 L 250.65553,144.35389 L 251.13317,146.48042 L 251.61081,148.39593 L 252.08845,150.09326 L 252.56609,151.56608 L 253.04373,152.80887 L 253.52138,153.81699 L 253.99902,154.58669 L 254.47666,155.11508 L 254.9543,155.40019 L 255.43194,155.44096 L 255.90958,155.23722 L 256.38722,154.78975 L 256.86486,154.10021 L 257.34251,153.17119 L 257.82015,152.00614 L 258.29779,150.60944 L 258.77543,148.98628 L 259.25307,147.14274 L 259.73071,145.08571 L 260.20835,142.82287 L 260.686,140.36267 L 261.16364,137.71431 L 261.64128,134.88768 L 262.11892,131.89334 L 262.59656,128.74249 L 263.0742,125.44688 L 263.55184,122.01884 L 264.02948,118.47117 L 264.50713,114.81713 L 264.98477,111.07037 L 265.46241,107.24489 L 265.94005,103.35497 L 266.41769,99.415161 L 266.89533,95.440174 L 267.37297,91.444861 L 267.85061,87.44415 L 268.32826,83.452988 L 268.8059,79.486287 L 269.28354,75.558867 L 269.76118,71.685401 L 270.23882,67.880362 L 270.71646,64.157965 L 271.1941,60.532119 L 271.67174,57.016369 L 272.14939,53.623851 L 272.62703,50.367241 L 273.10467,47.258705 L 273.58231,44.309858 L 274.05995,41.531717 L 274.53759,38.934661 L 275.01523,36.528394 L 275.49287,34.321906 L 275.97052,32.32344 L 276.44816,30.540463 L 276.9258,28.979637 L 277.40344,27.646793 L 277.88108,26.54691 L 278.35872,25.684099 L 278.83636,25.061583 L 279.314,24.681688 L 279.79165,24.545832 L 280.26929,24.654524 L 280.74693,25.007357 L 281.22457,25.603014 L 281.70221,26.439269 L 282.17985,27.512996 L 282.65749,28.820186 L 283.13514,30.355953 L 283.61278,32.114561 L 284.09042,34.089438 L 284.56806,36.273206 L 285.0457,38.657706 L 285.52334,41.234029 L 286.00098,43.992551 L 286.47862,46.922963 L 286.95627,50.014319 L 287.43391,53.255067 L 287.91155,56.633101 L 288.38919,60.135799 L 288.86683,63.750074 L 289.34447,67.462424 L 289.82211,71.258978 L 290.29975,75.125551 L 290.7774,79.047697 L 291.25504,83.010764 L 291.73268,86.999943 L 292.21032,91.000331 L 292.68796,94.996981 L 293.1656,98.974962 L 293.64324,102.91941 L 294.12088,106.81559 L 294.59853,110.64895 L 295.07617,114.40515 L 295.55381,118.07018 L 296.03145,121.63033 L 296.50909,125.0723 L 296.98673,128.38324 L 297.46437,131.55077 L 297.94201,134.56306 L 298.41966,137.40886 L 298.8973,140.07753 L 299.37494,142.5591 L 299.85258,144.8443 L 300.33022,146.92459 L 300.80786,148.79221 L 301.2855,150.44016 L 301.76314,151.86231 L 302.24079,153.05332 L 302.71843,154.00876 L 303.19607,154.72505 L 303.67371,155.19952 L 304.15135,155.43039 L 304.62899,155.4168 L 305.10663,155.1588 L 305.58428,154.65736 L 306.06192,153.91435 L 306.53956,152.93255 L 307.0172,151.71561 L 307.49484,150.2681 L 307.97248,148.59542 L 308.45012,146.70382 L 308.92776,144.60036 L 309.40541,142.2929 L 309.88305,139.79007 L 310.36069,137.10121 L 310.83833,134.23638 L 311.31597,131.20628 L 311.79361,128.02222 L 312.27125,124.6961 L 312.74889,121.24035 L 313.22654,117.66788 L 313.70418,113.99204 L 314.18182,110.22657 L 314.65946,106.38552 L 315.1371,102.48325 L 315.61474,98.534349 L 316.09238,94.553558 L 316.57002,90.555754 L 317.04767,86.555874 L 317.52531,82.568862 L 318.00295,78.609613 L 318.48059,74.692921 L 318.95823,70.833419 L 319.43587,67.045526 L 319.91351,63.343395 L 320.39115,59.740857 L 320.8688,56.251372 L 321.34644,52.887978 L 321.82408,49.663241 L 322.30172,46.589208 L 322.77936,43.677366 L 323.257,40.938592 L 323.73464,38.383119 L 324.21229,36.020496 L 324.68993,33.85955 L 325.16757,31.908353 L 325.64521,30.174196 L 326.12285,28.663558 L 326.60049,27.382083 L 327.07813,26.33456 L 327.55577,25.5249 L 328.03342,24.956131 L 328.51106,24.630375 L 328.9887,24.548852 L 329.46634,24.711865 L 329.94398,25.118805 L 330.42162,25.768152 L 330.89926,26.65748 L 331.3769,27.783466 L 331.85455,29.141903 L 332.33219,30.727716 L 332.80983,32.53498 L 333.28747,34.556942 L 333.76511,36.78605 L 334.24275,39.213973 L 334.72039,41.831641 L 335.19803,44.629274 L 335.67568,47.59642 L 336.15332,50.721992 L 336.63096,53.994314 L 337.1086,57.401159 L 337.58624,60.929798 L 338.06388,64.567048 L 338.54152,68.29932 L 339.01916,72.11267 L 339.49681,75.992849 L 339.97445,79.925362 L 340.45209,83.895515 L 340.92973,87.888475 L 341.40737,91.889324 L 341.88501,95.883115 L 342.36265,99.854925 L 342.84029,103.78992 L 343.31794,107.67339 L 343.79558,111.49082 L 344.27322,115.22797 L 344.75086,118.87086 L 345.2285,122.40588 L 345.70614,125.81983 L 346.18378,129.09995 L 346.66143,132.23399 L 347.13907,135.21023 L 347.61671,138.01756 L 348.09435,140.64549 L 348.57199,143.0842 L 349.04963,145.32458 L 349.52727,147.35826 L 350.00491,149.17763 L 350.48256,150.77591 L 350.9602,152.14712 L 351.43784,153.28614 L 351.91548,154.18871 L 352.39312,154.85146 L 352.87076,155.27192 L 353.3484,155.44851 L 353.82604,155.38057 L 354.30369,155.06836 L 354.78133,154.51304 L 355.25897,153.71669 L 355.73661,152.68229 L 356.21425,151.4137 L 356.69189,149.91565 L 357.16953,148.19375 L 357.64717,146.25442 L 358.12482,144.10493 L 358.60246,141.75328 L 359.0801,139.20828 L 359.55774,136.47943 L 360.03538,133.57692 L 360.51302,130.5116 L 360.99066,127.29492 L 361.4683,123.93891 L 361.94595,120.45609 L 362.42359,116.85949 L 362.90123,113.16253 L 363.37887,109.37903 L 363.85651,105.52313 L 364.33415,101.60923 L 364.81179,97.651962 L 365.28943,93.666102 L 365.76708,89.666545 L 366.24472,85.668234 L 366.72236,81.686106 L 367.2,77.735041 L 367.67764,73.8298 L 368.15528,69.984973 L 368.63292,66.214926 L 369.11057,62.533744 L 369.58821,58.95518 L 370.06585,55.492605 L 370.54349,52.158955 L 371.02113,48.966685 L 371.49877,45.927723 L 371.97641,43.053422 L 372.45405,40.354521 L 372.9317,37.841104 L 373.40934,35.522561 L 373.88698,33.407555 L 374.36462,31.503987 L 374.84226,29.81897 L 375.3199,28.3588 L 375.79754,27.128931 L 376.27518,26.133959 L 376.75283,25.3776 L 377.23047,24.862682 L 377.70811,24.591128 L 378.18575,24.563952 L 378.66339,24.781255 L 379.14103,25.242227 L 379.61867,25.945144 L 380.09631,26.887381 L 380.57396,28.065417 L 381.0516,29.474851 L 381.52924,31.110417 L 382.00688,32.966004 L 382.48452,35.03468 L 382.96216,37.308714 L 383.4398,39.779613 L 383.91744,42.438143 L 384.39509,45.274371 L 384.87273,48.277702 L 385.35037,51.436915 L 385.82801,54.740206 L 386.30565,58.175233 L 386.78329,61.729162 L 387.26093,65.388716 L 387.73857,69.140222 L 388.21622,72.969663 L 388.69386,76.862733 L 389.1715,80.804886 L 389.64914,84.781393 L 390.12678,88.777397 L 390.60442,92.77797 L 391.08206,96.768163 L 391.55971,100.73307 L 392.03735,104.65788 L 392.51499,108.52792 L 392.99263,112.32874 L 393.47027,116.04613 L 393.94791,119.66621 L 394.42555,123.17546 L 394.90319,126.56075 L 395.38084,129.80945 L 395.85848,132.90941 L 396.33612,135.84906 L 396.81376,138.61741 L 397.2914,141.20411 L 397.76904,143.59951 L 398.24668,145.79465 L 398.72432,147.78133 L 399.20197,149.55214 L 399.67961,151.10044 L 400.15725,152.42047 L 400.63489,153.50728 L 401.11253,154.35681 L 401.59017,154.9659 L 402.06781,155.33227 L 402.54545,155.45455 L 403.0231,155.33227 L 403.50074,154.9659 L 403.97838,154.35681 L 404.45602,153.50728 L 404.93366,152.42047 L 405.4113,151.10044 L 405.88894,149.55214 L 406.36658,147.78133 L 406.84423,145.79465 L 407.32187,143.59951 L 407.79951,141.20411 L 408.27715,138.61741 L 408.75479,135.84906 L 409.23243,132.90941 L 409.71007,129.80945 L 410.18771,126.56075 L 410.66536,123.17546 L 411.143,119.66621 L 411.62064,116.04613 L 412.09828,112.32874 L 412.57592,108.52792 L 413.05356,104.65788 L 413.5312,100.73307 L 414.00885,96.768163 L 414.48649,92.77797 L 414.96413,88.777397 L 415.44177,84.781393 L 415.91941,80.804886 L 416.39705,76.862733 L 416.87469,72.969663 L 417.35233,69.140222 L 417.82998,65.388716 L 418.30762,61.729162 L 418.78526,58.175233 L 419.2629,54.740206 L 419.74054,51.436915 L 420.21818,48.277702 L 420.69582,45.274371 L 421.17346,42.438143 L 421.65111,39.779613 L 422.12875,37.308714 L 422.60639,35.03468 L 423.08403,32.966004 L 423.56167,31.110417 L 424.03931,29.474851 L 424.51695,28.065417 L 424.99459,26.887381 L 425.47224,25.945144 L 425.94988,25.242227 L 426.42752,24.781255 L 426.90516,24.563952 L 427.3828,24.591128 L 427.86044,24.862682 L 428.33808,25.3776 L 428.81572,26.133959 L 429.29337,27.128931 L 429.77101,28.3588 L 430.24865,29.81897 L 430.72629,31.503987 L 431.20393,33.407555 L 431.68157,35.522561 L 432.15921,37.841104 L 432.63686,40.354521 L 433.1145,43.053422 L 433.59214,45.927723 L 434.06978,48.966685 L 434.54742,52.158955 L 435.02506,55.492605 L 435.5027,58.95518 L 435.98034,62.533744 L 436.45799,66.214926 L 436.93563,69.984973 L 437.41327,73.8298 L 437.89091,77.735041 L 438.36855,81.686106 L 438.84619,85.668234 L 439.32383,89.666545 L 439.80147,93.666102 L 440.27912,97.651962 L 440.75676,101.60923 L 441.2344,105.52313 L 441.71204,109.37903 L 442.18968,113.16253 L 442.66732,116.85949 L 443.14496,120.45609 L 443.6226,123.93891 L 444.10025,127.29492 L 444.57789,130.5116 L 445.05553,133.57692 L 445.53317,136.47943 L 446.01081,139.20828 L 446.48845,141.75328 L 446.96609,144.10493 L 447.44373,146.25442 L 447.92138,148.19375 L 448.39902,149.91565 L 448.87666,151.4137 L 449.3543,152.68229 L 449.83194,153.71669 L 450.30958,154.51304 L 450.78722,155.06836 L 451.26486,155.38057 L 451.74251,155.44851 L 452.22015,155.27192 L 452.69779,154.85146 L 453.17543,154.18871 L 453.65307,153.28614 L 454.13071,152.14712 L 454.60835,150.77591 L 455.086,149.17763 L 455.56364,147.35826 L 456.04128,145.32458 L 456.51892,143.0842 L 456.99656,140.64549 L 457.4742,138.01756 L 457.95184,135.21023 L 458.42948,132.23399 L 458.90713,129.09995 L 459.38477,125.81983 L 459.86241,122.40588 L 460.34005,118.87086 L 460.81769,115.22797 L 461.29533,111.49082 L 461.77297,107.67339 L 462.25061,103.78992 L 462.72826,99.854925 L 463.2059,95.883115 L 463.68354,91.889324 L 464.16118,87.888475 L 464.63882,83.895515 L 465.11646,79.925362 L 465.5941,75.992849 L 466.07174,72.11267 L 466.54939,68.29932 L 467.02703,64.567048 L 467.50467,60.929798 L 467.98231,57.401159 L 468.45995,53.994314 L 468.93759,50.721992 L 469.41523,47.59642 L 469.89287,44.629274 L 470.37052,41.831641 L 470.84816,39.213973 L 471.3258,36.78605 L 471.80344,34.556942 L 472.28108,32.53498 L 472.75872,30.727716 L 473.23636,29.141903 L 473.714,27.783466 L 474.19165,26.65748 L 474.66929,25.768152 L 475.14693,25.118805 L 475.62457,24.711865 L 476.10221,24.548852 L 476.57985,24.630375 L 477.05749,24.956131 L 477.53514,25.5249 L 478.01278,26.33456 L 478.49042,27.382083 L 478.96806,28.663558 L 479.4457,30.174196 L 479.92334,31.908353 L 480.40098,33.85955 L 480.87862,36.020496 L 481.35627,38.383119 L 481.83391,40.938592 L 482.31155,43.677366 L 482.78919,46.589208 L 483.26683,49.663241 L 483.74447,52.887978 L 484.22211,56.251372 L 484.69975,59.740857 L 485.1774,63.343395 L 485.65504,67.045526 L 486.13268,70.833419 L 486.61032,74.692921 L 487.08796,78.609613 L 487.5656,82.568862 L 488.04324,86.555874 L 488.52088,90.555754 L 488.99853,94.553558 L 489.47617,98.534349 L 489.95381,102.48325 L 490.43145,106.38552 L 490.90909,110.22657 L 491.38673,113.99204 L 491.86437,117.66788 L 492.34201,121.24035 L 492.81966,124.6961 L 493.2973,128.02222 L 493.77494,131.20628 L 494.25258,134.23638 L 494.73022,137.10121 L 495.20786,139.79007 L 495.6855,142.2929 L 496.16314,144.60036 L 496.64079,146.70382 L 497.11843,148.59542 L 497.59607,150.2681 L 498.07371,151.71561 L 498.55135,152.93255 L 499.02899,153.91435 L 499.50663,154.65736 L 499.98428,155.1588 L 500.46192,155.4168 L 500.93956,155.43039 L 501.4172,155.19952 L 501.89484,154.72505 L 502.37248,154.00876 L 502.85012,153.05332 L 503.32776,151.86231 L 503.80541,150.44016 L 504.28305,148.79221 L 504.76069,146.92459 L 505.23833,144.8443 L 505.71597,142.5591 L 506.19361,140.07753 L 506.67125,137.40886 L 507.14889,134.56306 L 507.62654,131.55077 L 508.10418,128.38324 L 508.58182,125.0723"
           clip-path="url(#p12632432c599d5a3f93cdf6d5a4d19e3)"
           style="opacity:1;fill:none;stroke:#ff0000;stroke-width:1;stroke-linecap:square;stroke-linejoin:miter" />
      </g>
      <g
         id="line2d2">
        <path
           id="path2819"
           d="M 31.418182,125.0723 L 31.895823,124.6961 L 32.373464,124.31829 L 32.851106,123.93891 L 33.328747,123.55796 L 33.806388,123.17546 L 34.284029,122.79143 L 34.761671,122.40588 L 35.239312,122.01884 L 35.716953,121.63033 L 36.194595,121.24035 L 36.672236,120.84893 L 37.149877,120.45609 L 37.627518,120.06185 L 38.10516,119.66621 L 38.582801,119.26921 L 39.060442,118.87086 L 39.538084,118.47117 L 40.015725,118.07018 L 40.493366,117.66788 L 40.971007,117.26431 L 41.448649,116.85949 L 41.92629,116.45342 L 42.403931,116.04613 L 42.881572,115.63764 L 43.359214,115.22797 L 43.836855,114.81713 L 44.314496,114.40515 L 44.792138,113.99204 L 45.269779,113.57783 L 45.74742,113.16253 L 46.225061,112.74616 L 46.702703,112.32874 L 47.180344,111.91029 L 47.657985,111.49082 L 48.135627,111.07037 L 48.613268,110.64895 L 49.090909,110.22657 L 49.56855,109.80326 L 50.046192,109.37903 L 50.523833,108.95391 L 51.001474,108.52792 L 51.479115,108.10107 L 51.956757,107.67339 L 52.434398,107.24489 L 52.912039,106.81559 L 53.389681,106.38552 L 53.867322,105.95469 L 54.344963,105.52313 L 54.822604,105.09085 L 55.300246,104.65788 L 55.777887,104.22422 L 56.255528,103.78992 L 56.73317,103.35497 L 57.210811,102.91941 L 57.688452,102.48325 L 58.166093,102.04652 L 58.643735,101.60923 L 59.121376,101.17141 L 59.599017,100.73307 L 60.076658,100.29423 L 60.5543,99.854925 L 61.031941,99.415161 L 61.509582,98.974962 L 61.987224,98.534349 L 62.464865,98.093342 L 62.942506,97.651962 L 63.420147,97.210229 L 63.897789,96.768163 L 64.37543,96.325785 L 64.853071,95.883115 L 65.330713,95.440174 L 65.808354,94.996981 L 66.285995,94.553558 L 66.763636,94.109925 L 67.241278,93.666102 L 67.718919,93.22211 L 68.19656,92.77797 L 68.674201,92.333701 L 69.151843,91.889324 L 69.629484,91.444861 L 70.107125,91.000331 L 70.584767,90.555754 L 71.062408,90.111152 L 71.540049,89.666545 L 72.01769,89.221953 L 72.495332,88.777397 L 72.972973,88.332898 L 73.450614,87.888475 L 73.928256,87.44415 L 74.405897,86.999943 L 74.883538,86.555874 L 75.361179,86.111964 L 75.838821,85.668234 L 76.316462,85.224703 L 76.794103,84.781393 L 77.271744,84.338323 L 77.749386,83.895515 L 78.227027,83.452988 L 78.704668,83.010764 L 79.18231,82.568862 L 79.659951,82.127302 L 80.137592,81.686106 L 80.615233,81.245294 L 81.092875,80.804886 L 81.570516,80.364901 L 82.048157,79.925362 L 82.525799,79.486287 L 83.00344,79.047697 L 83.481081,78.609613 L 83.958722,78.172054 L 84.436364,77.735041 L 84.914005,77.298594 L 85.391646,76.862733 L 85.869287,76.427478 L 86.346929,75.992849 L 86.82457,75.558867 L 87.302211,75.125551 L 87.779853,74.692921 L 88.257494,74.260997 L 88.735135,73.8298 L 89.212776,73.399349 L 89.690418,72.969663 L 90.168059,72.540764 L 90.6457,72.11267 L 91.123342,71.685401 L 91.600983,71.258978 L 92.078624,70.833419 L 92.556265,70.408744 L 93.033907,69.984973 L 93.511548,69.562126 L 93.989189,69.140222 L 94.46683,68.71928 L 94.944472,68.29932 L 95.422113,67.880362 L 95.899754,67.462424 L 96.377396,67.045526 L 96.855037,66.629687 L 97.332678,66.214926 L 97.810319,65.801263 L 98.287961,65.388716 L 98.765602,64.977305 L 99.243243,64.567048 L 99.720885,64.157965 L 100.19853,63.750074 L 100.67617,63.343395 L 101.15381,62.937945 L 101.63145,62.533744 L 102.10909,62.13081 L 102.58673,61.729162 L 103.06437,61.328819 L 103.54201,60.929798 L 104.01966,60.532119 L 104.4973,60.135799 L 104.97494,59.740857 L 105.45258,59.347311 L 105.93022,58.95518 L 106.40786,58.564481 L 106.8855,58.175233 L 107.36314,57.787452 L 107.84079,57.401159 L 108.31843,57.016369 L 108.79607,56.633101 L 109.27371,56.251372 L 109.75135,55.871201 L 110.22899,55.492605 L 110.70663,55.1156 L 111.18428,54.740206 L 111.66192,54.366438 L 112.13956,53.994314 L 112.6172,53.623851 L 113.09484,53.255067 L 113.57248,52.887978 L 114.05012,52.522602 L 114.52776,52.158955 L 115.00541,51.797054 L 115.48305,51.436915 L 115.96069,51.078556 L 116.43833,50.721992 L 116.91597,50.367241 L 117.39361,50.014319 L 117.87125,49.663241 L 118.34889,49.314024 L 118.82654,48.966685 L 119.30418,48.621239 L 119.78182,48.277702 L 120.25946,47.936091 L 120.7371,47.59642 L 121.21474,47.258705 L 121.69238,46.922963 L 122.17002,46.589208 L 122.64767,46.257456 L 123.12531,45.927723 L 123.60295,45.600023 L 124.08059,45.274371 L 124.55823,44.950783 L 125.03587,44.629274 L 125.51351,44.309858 L 125.99115,43.992551 L 126.4688,43.677366 L 126.94644,43.364318 L 127.42408,43.053422 L 127.90172,42.744692 L 128.37936,42.438143 L 128.857,42.133788 L 129.33464,41.831641 L 129.81229,41.531717 L 130.28993,41.234029 L 130.76757,40.938592 L 131.24521,40.645418 L 131.72285,40.354521 L 132.20049,40.065915 L 132.67813,39.779613 L 133.15577,39.495628 L 133.63342,39.213973 L 134.11106,38.934661 L 134.5887,38.657706 L 135.06634,38.383119 L 135.54398,38.110915 L 136.02162,37.841104 L 136.49926,37.5737 L 136.9769,37.308714 L 137.45455,37.04616 L 137.93219,36.78605 L 138.40983,36.528394 L 138.88747,36.273206 L 139.36511,36.020496 L 139.84275,35.770278 L 140.32039,35.522561 L 140.79803,35.277358 L 141.27568,35.03468 L 141.75332,34.794537 L 142.23096,34.556942 L 142.7086,34.321906 L 143.18624,34.089438 L 143.66388,33.85955 L 144.14152,33.632252 L 144.61916,33.407555 L 145.09681,33.185469 L 145.57445,32.966004 L 146.05209,32.749171 L 146.52973,32.53498 L 147.00737,32.32344 L 147.48501,32.114561 L 147.96265,31.908353 L 148.44029,31.704825 L 148.91794,31.503987 L 149.39558,31.305848 L 149.87322,31.110417 L 150.35086,30.917703 L 150.8285,30.727716 L 151.30614,30.540463 L 151.78378,30.355953 L 152.26143,30.174196 L 152.73907,29.995199 L 153.21671,29.81897 L 153.69435,29.645518 L 154.17199,29.474851 L 154.64963,29.306977 L 155.12727,29.141903 L 155.60491,28.979637 L 156.08256,28.820186 L 156.5602,28.663558 L 157.03784,28.50976 L 157.51548,28.3588 L 157.99312,28.210683 L 158.47076,28.065417 L 158.9484,27.923009 L 159.42604,27.783466 L 159.90369,27.646793 L 160.38133,27.512996 L 160.85897,27.382083 L 161.33661,27.25406 L 161.81425,27.128931 L 162.29189,27.006703 L 162.76953,26.887381 L 163.24717,26.770972 L 163.72482,26.65748 L 164.20246,26.54691 L 164.6801,26.439269 L 165.15774,26.33456 L 165.63538,26.232788 L 166.11302,26.133959 L 166.59066,26.038076 L 167.0683,25.945144 L 167.54595,25.855168 L 168.02359,25.768152 L 168.50123,25.684099 L 168.97887,25.603014 L 169.45651,25.5249 L 169.93415,25.449761 L 170.41179,25.3776 L 170.88943,25.308421 L 171.36708,25.242227 L 171.84472,25.179021 L 172.32236,25.118805 L 172.8,25.061583 L 173.27764,25.007357 L 173.75528,24.956131 L 174.23292,24.907905 L 174.71057,24.862682 L 175.18821,24.820465 L 175.66585,24.781255 L 176.14349,24.745055 L 176.62113,24.711865 L 177.09877,24.681688 L 177.57641,24.654524 L 178.05405,24.630375 L 178.5317,24.609243 L 179.00934,24.591128 L 179.48698,24.57603 L 179.96462,24.563952 L 180.44226,24.554892 L 180.9199,24.548852 L 181.39754,24.545832 L 181.87518,24.545832 L 182.35283,24.548852 L 182.83047,24.554892 L 183.30811,24.563952 L 183.78575,24.57603 L 184.26339,24.591128 L 184.74103,24.609243 L 185.21867,24.630375 L 185.69631,24.654524 L 186.17396,24.681688 L 186.6516,24.711865 L 187.12924,24.745055 L 187.60688,24.781255 L 188.08452,24.820465 L 188.56216,24.862682 L 189.0398,24.907905 L 189.51744,24.956131 L 189.99509,25.007357 L 190.47273,25.061583 L 190.95037,25.118805 L 191.42801,25.179021 L 191.90565,25.242227 L 192.38329,25.308421 L 192.86093,25.3776 L 193.33857,25.449761 L 193.81622,25.5249 L 194.29386,25.603014 L 194.7715,25.684099 L 195.24914,25.768152 L 195.72678,25.855168 L 196.20442,25.945144 L 196.68206,26.038076 L 197.15971,26.133959 L 197.63735,26.232788 L 198.11499,26.33456 L 198.59263,26.439269 L 199.07027,26.54691 L 199.54791,26.65748 L 200.02555,26.770972 L 200.50319,26.887381 L 200.98084,27.006703 L 201.45848,27.128931 L 201.93612,27.25406 L 202.41376,27.382083 L 202.8914,27.512996 L 203.36904,27.646793 L 203.84668,27.783466 L 204.32432,27.923009 L 204.80197,28.065417 L 205.27961,28.210683 L 205.75725,28.3588 L 206.23489,28.50976 L 206.71253,28.663558 L 207.19017,28.820186 L 207.66781,28.979637 L 208.14545,29.141903 L 208.6231,29.306977 L 209.10074,29.474851 L 209.57838,29.645518 L 210.05602,29.81897 L 210.53366,29.995199 L 211.0113,30.174196 L 211.48894,30.355953 L 211.96658,30.540463 L 212.44423,30.727716 L 212.92187,30.917703 L 213.39951,31.110417 L 213.87715,31.305848 L 214.35479,31.503987 L 214.83243,31.704825 L 215.31007,31.908353 L 215.78771,32.114561 L 216.26536,32.32344 L 216.743,32.53498 L 217.22064,32.749171 L 217.69828,32.966004 L 218.17592,33.185469 L 218.65356,33.407555 L 219.1312,33.632252 L 219.60885,33.85955 L 220.08649,34.089438 L 220.56413,34.321906 L 221.04177,34.556942 L 221.51941,34.794537 L 221.99705,35.03468 L 222.47469,35.277358 L 222.95233,35.522561 L 223.42998,35.770278 L 223.90762,36.020496 L 224.38526,36.273206 L 224.8629,36.528394 L 225.34054,36.78605 L 225.81818,37.04616 L 226.29582,37.308714 L 226.77346,37.5737 L 227.25111,37.841104 L 227.72875,38.110915 L 228.20639,38.383119 L 228.68403,38.657706 L 229.16167,38.934661 L 229.63931,39.213973 L 230.11695,39.495628 L 230.59459,39.779613 L 231.07224,40.065915 L 231.54988,40.354521 L 232.02752,40.645418 L 232.50516,40.938592 L 232.9828,41.234029 L 233.46044,41.531717 L 233.93808,41.831641 L 234.41572,42.133788 L 234.89337,42.438143 L 235.37101,42.744692 L 235.84865,43.053422 L 236.32629,43.364318 L 236.80393,43.677366 L 237.28157,43.992551 L 237.75921,44.309858 L 238.23686,44.629274 L 238.7145,44.950783 L 239.19214,45.274371 L 239.66978,45.600023 L 240.14742,45.927723 L 240.62506,46.257456 L 241.1027,46.589208 L 241.58034,46.922963 L 242.05799,47.258705 L 242.53563,47.59642 L 243.01327,47.936091 L 243.49091,48.277702 L 243.96855,48.621239 L 244.44619,48.966685 L 244.92383,49.314024 L 245.40147,49.663241 L 245.87912,50.014319 L 246.35676,50.367241 L 246.8344,50.721992 L 247.31204,51.078556 L 247.78968,51.436915 L 248.26732,51.797054 L 248.74496,52.158955 L 249.2226,52.522602 L 249.70025,52.887978 L 250.17789,53.255067 L 250.65553,53.623851 L 251.13317,53.994314 L 251.61081,54.366438 L 252.08845,54.740206 L 252.56609,55.1156 L 253.04373,55.492605 L 253.52138,55.871201 L 253.99902,56.251372 L 254.47666,56.633101 L 254.9543,57.016369 L 255.43194,57.401159 L 255.90958,57.787452 L 256.38722,58.175233 L 256.86486,58.564481 L 257.34251,58.95518 L 257.82015,59.347311 L 258.29779,59.740857 L 258.77543,60.135799 L 259.25307,60.532119 L 259.73071,60.929798 L 260.20835,61.328819 L 260.686,61.729162 L 261.16364,62.13081 L 261.64128,62.533744 L 262.11892,62.937945 L 262.59656,63.343395 L 263.0742,63.750074 L 263.55184,64.157965 L 264.02948,64.567048 L 264.50713,64.977305 L 264.98477,65.388716 L 265.46241,65.801263 L 265.94005,66.214926 L 266.41769,66.629687 L 266.89533,67.045526 L 267.37297,67.462424 L 267.85061,67.880362 L 268.32826,68.29932 L 268.8059,68.71928 L 269.28354,69.140222 L 269.76118,69.562126 L 270.23882,69.984973 L 270.71646,70.408744 L 271.1941,70.833419 L 271.67174,71.258978 L 272.14939,71.685401 L 272.62703,72.11267 L 273.10467,72.540764 L 273.58231,72.969663 L 274.05995,73.399349 L 274.53759,73.8298 L 275.01523,74.260997 L 275.49287,74.692921 L 275.97052,75.125551 L 276.44816,75.558867 L 276.9258,75.992849 L 277.40344,76.427478 L 277.88108,76.862733 L 278.35872,77.298594 L 278.83636,77.735041 L 279.314,78.172054 L 279.79165,78.609613 L 280.26929,79.047697 L 280.74693,79.486287 L 281.22457,79.925362 L 281.70221,80.364901 L 282.17985,80.804886 L 282.65749,81.245294 L 283.13514,81.686106 L 283.61278,82.127302 L 284.09042,82.568862 L 284.56806,83.010764 L 285.0457,83.452988 L 285.52334,83.895515 L 286.00098,84.338323 L 286.47862,84.781393 L 286.95627,85.224703 L 287.43391,85.668234 L 287.91155,86.111964 L 288.38919,86.555874 L 288.86683,86.999943 L 289.34447,87.44415 L 289.82211,87.888475 L 290.29975,88.332898 L 290.7774,88.777397 L 291.25504,89.221953 L 291.73268,89.666545 L 292.21032,90.111152 L 292.68796,90.555754 L 293.1656,91.000331 L 293.64324,91.444861 L 294.12088,91.889324 L 294.59853,92.333701 L 295.07617,92.77797 L 295.55381,93.22211 L 296.03145,93.666102 L 296.50909,94.109925 L 296.98673,94.553558 L 297.46437,94.996981 L 297.94201,95.440174 L 298.41966,95.883115 L 298.8973,96.325785 L 299.37494,96.768163 L 299.85258,97.210229 L 300.33022,97.651962 L 300.80786,98.093342 L 301.2855,98.534349 L 301.76314,98.974962 L 302.24079,99.415161 L 302.71843,99.854925 L 303.19607,100.29423 L 303.67371,100.73307 L 304.15135,101.17141 L 304.62899,101.60923 L 305.10663,102.04652 L 305.58428,102.48325 L 306.06192,102.91941 L 306.53956,103.35497 L 307.0172,103.78992 L 307.49484,104.22422 L 307.97248,104.65788 L 308.45012,105.09085 L 308.92776,105.52313 L 309.40541,105.95469 L 309.88305,106.38552 L 310.36069,106.81559 L 310.83833,107.24489 L 311.31597,107.67339 L 311.79361,108.10107 L 312.27125,108.52792 L 312.74889,108.95391 L 313.22654,109.37903 L 313.70418,109.80326 L 314.18182,110.22657 L 314.65946,110.64895 L 315.1371,111.07037 L 315.61474,111.49082 L 316.09238,111.91029 L 316.57002,112.32874 L 317.04767,112.74616 L 317.52531,113.16253 L 318.00295,113.57783 L 318.48059,113.99204 L 318.95823,114.40515 L 319.43587,114.81713 L 319.91351,115.22797 L 320.39115,115.63764 L 320.8688,116.04613 L 321.34644,116.45342 L 321.82408,116.85949 L 322.30172,117.26431 L 322.77936,117.66788 L 323.257,118.07018 L 323.73464,118.47117 L 324.21229,118.87086 L 324.68993,119.26921 L 325.16757,119.66621 L 325.64521,120.06185 L 326.12285,120.45609 L 326.60049,120.84893 L 327.07813,121.24035 L 327.55577,121.63033 L 328.03342,122.01884 L 328.51106,122.40588 L 328.9887,122.79143 L 329.46634,123.17546 L 329.94398,123.55796 L 330.42162,123.93891 L 330.89926,124.31829 L 331.3769,124.6961 L 331.85455,125.0723 L 332.33219,125.44688 L 332.80983,125.81983 L 333.28747,126.19113 L 333.76511,126.56075 L 334.24275,126.92869 L 334.72039,127.29492 L 335.19803,127.65944 L 335.67568,128.02222 L 336.15332,128.38324 L 336.63096,128.74249 L 337.1086,129.09995 L 337.58624,129.45561 L 338.06388,129.80945 L 338.54152,130.16145 L 339.01916,130.5116 L 339.49681,130.85988 L 339.97445,131.20628 L 340.45209,131.55077 L 340.92973,131.89334 L 341.40737,132.23399 L 341.88501,132.57268 L 342.36265,132.90941 L 342.84029,133.24416 L 343.31794,133.57692 L 343.79558,133.90766 L 344.27322,134.23638 L 344.75086,134.56306 L 345.2285,134.88768 L 345.70614,135.21023 L 346.18378,135.5307 L 346.66143,135.84906 L 347.13907,136.16531 L 347.61671,136.47943 L 348.09435,136.7914 L 348.57199,137.10121 L 349.04963,137.40886 L 349.52727,137.71431 L 350.00491,138.01756 L 350.48256,138.3186 L 350.9602,138.61741 L 351.43784,138.91397 L 351.91548,139.20828 L 352.39312,139.50032 L 352.87076,139.79007 L 353.3484,140.07753 L 353.82604,140.36267 L 354.30369,140.64549 L 354.78133,140.92598 L 355.25897,141.20411 L 355.73661,141.47988 L 356.21425,141.75328 L 356.69189,142.02429 L 357.16953,142.2929 L 357.64717,142.5591 L 358.12482,142.82287 L 358.60246,143.0842 L 359.0801,143.34309 L 359.55774,143.59951 L 360.03538,143.85346 L 360.51302,144.10493 L 360.99066,144.35389 L 361.4683,144.60036 L 361.94595,144.8443 L 362.42359,145.08571 L 362.90123,145.32458 L 363.37887,145.5609 L 363.85651,145.79465 L 364.33415,146.02583 L 364.81179,146.25442 L 365.28943,146.48042 L 365.76708,146.70382 L 366.24472,146.92459 L 366.72236,147.14274 L 367.2,147.35826 L 367.67764,147.57112 L 368.15528,147.78133 L 368.63292,147.98888 L 369.11057,148.19375 L 369.58821,148.39593 L 370.06585,148.59542 L 370.54349,148.79221 L 371.02113,148.98628 L 371.49877,149.17763 L 371.97641,149.36625 L 372.45405,149.55214 L 372.9317,149.73527 L 373.40934,149.91565 L 373.88698,150.09326 L 374.36462,150.2681 L 374.84226,150.44016 L 375.3199,150.60944 L 375.79754,150.77591 L 376.27518,150.93958 L 376.75283,151.10044 L 377.23047,151.25848 L 377.70811,151.4137 L 378.18575,151.56608 L 378.66339,151.71561 L 379.14103,151.86231 L 379.61867,152.00614 L 380.09631,152.14712 L 380.57396,152.28523 L 381.0516,152.42047 L 381.52924,152.55282 L 382.00688,152.68229 L 382.48452,152.80887 L 382.96216,152.93255 L 383.4398,153.05332 L 383.91744,153.17119 L 384.39509,153.28614 L 384.87273,153.39817 L 385.35037,153.50728 L 385.82801,153.61345 L 386.30565,153.71669 L 386.78329,153.81699 L 387.26093,153.91435 L 387.73857,154.00876 L 388.21622,154.10021 L 388.69386,154.18871 L 389.1715,154.27424 L 389.64914,154.35681 L 390.12678,154.43641 L 390.60442,154.51304 L 391.08206,154.58669 L 391.55971,154.65736 L 392.03735,154.72505 L 392.51499,154.78975 L 392.99263,154.85146 L 393.47027,154.91018 L 393.94791,154.9659 L 394.42555,155.01863 L 394.90319,155.06836 L 395.38084,155.11508 L 395.85848,155.1588 L 396.33612,155.19952 L 396.81376,155.23722 L 397.2914,155.27192 L 397.76904,155.3036 L 398.24668,155.33227 L 398.72432,155.35793 L 399.20197,155.38057 L 399.67961,155.40019 L 400.15725,155.4168 L 400.63489,155.43039 L 401.11253,155.44096 L 401.59017,155.44851 L 402.06781,155.45304 L 402.54545,155.45455 L 403.0231,155.45304 L 403.50074,155.44851 L 403.97838,155.44096 L 404.45602,155.43039 L 404.93366,155.4168 L 405.4113,155.40019 L 405.88894,155.38057 L 406.36658,155.35793 L 406.84423,155.33227 L 407.32187,155.3036 L 407.79951,155.27192 L 408.27715,155.23722 L 408.75479,155.19952 L 409.23243,155.1588 L 409.71007,155.11508 L 410.18771,155.06836 L 410.66536,155.01863 L 411.143,154.9659 L 411.62064,154.91018 L 412.09828,154.85146 L 412.57592,154.78975 L 413.05356,154.72505 L 413.5312,154.65736 L 414.00885,154.58669 L 414.48649,154.51304 L 414.96413,154.43641 L 415.44177,154.35681 L 415.91941,154.27424 L 416.39705,154.18871 L 416.87469,154.10021 L 417.35233,154.00876 L 417.82998,153.91435 L 418.30762,153.81699 L 418.78526,153.71669 L 419.2629,153.61345 L 419.74054,153.50728 L 420.21818,153.39817 L 420.69582,153.28614 L 421.17346,153.17119 L 421.65111,153.05332 L 422.12875,152.93255 L 422.60639,152.80887 L 423.08403,152.68229 L 423.56167,152.55282 L 424.03931,152.42047 L 424.51695,152.28523 L 424.99459,152.14712 L 425.47224,152.00614 L 425.94988,151.86231 L 426.42752,151.71561 L 426.90516,151.56608 L 427.3828,151.4137 L 427.86044,151.25848 L 428.33808,151.10044 L 428.81572,150.93958 L 429.29337,150.77591 L 429.77101,150.60944 L 430.24865,150.44016 L 430.72629,150.2681 L 431.20393,150.09326 L 431.68157,149.91565 L 432.15921,149.73527 L 432.63686,149.55214 L 433.1145,149.36625 L 433.59214,149.17763 L 434.06978,148.98628 L 434.54742,148.79221 L 435.02506,148.59542 L 435.5027,148.39593 L 435.98034,148.19375 L 436.45799,147.98888 L 436.93563,147.78133 L 437.41327,147.57112 L 437.89091,147.35826 L 438.36855,147.14274 L 438.84619,146.92459 L 439.32383,146.70382 L 439.80147,146.48042 L 440.27912,146.25442 L 440.75676,146.02583 L 441.2344,145.79465 L 441.71204,145.5609 L 442.18968,145.32458 L 442.66732,145.08571 L 443.14496,144.8443 L 443.6226,144.60036 L 444.10025,144.35389 L 444.57789,144.10493 L 445.05553,143.85346 L 445.53317,143.59951 L 446.01081,143.34309 L 446.48845,143.0842 L 446.96609,142.82287 L 447.44373,142.5591 L 447.92138,142.2929 L 448.39902,142.02429 L 448.87666,141.75328 L 449.3543,141.47988 L 449.83194,141.20411 L 450.30958,140.92598 L 450.78722,140.64549 L 451.26486,140.36267 L 451.74251,140.07753 L 452.22015,139.79007 L 452.69779,139.50032 L 453.17543,139.20828 L 453.65307,138.91397 L 454.13071,138.61741 L 454.60835,138.3186 L 455.086,138.01756 L 455.56364,137.71431 L 456.04128,137.40886 L 456.51892,137.10121 L 456.99656,136.7914 L 457.4742,136.47943 L 457.95184,136.16531 L 458.42948,135.84906 L 458.90713,135.5307 L 459.38477,135.21023 L 459.86241,134.88768 L 460.34005,134.56306 L 460.81769,134.23638 L 461.29533,133.90766 L 461.77297,133.57692 L 462.25061,133.24416 L 462.72826,132.90941 L 463.2059,132.57268 L 463.68354,132.23399 L 464.16118,131.89334 L 464.63882,131.55077 L 465.11646,131.20628 L 465.5941,130.85988 L 466.07174,130.5116 L 466.54939,130.16145 L 467.02703,129.80945 L 467.50467,129.45561 L 467.98231,129.09995 L 468.45995,128.74249 L 468.93759,128.38324 L 469.41523,128.02222 L 469.89287,127.65944 L 470.37052,127.29492 L 470.84816,126.92869 L 471.3258,126.56075 L 471.80344,126.19113 L 472.28108,125.81983 L 472.75872,125.44688 L 473.23636,125.0723 L 473.714,124.6961 L 474.19165,124.31829 L 474.66929,123.93891 L 475.14693,123.55796 L 475.62457,123.17546 L 476.10221,122.79143 L 476.57985,122.40588 L 477.05749,122.01884 L 477.53514,121.63033 L 478.01278,121.24035 L 478.49042,120.84893 L 478.96806,120.45609 L 479.4457,120.06185 L 479.92334,119.66621 L 480.40098,119.26921 L 480.87862,118.87086 L 481.35627,118.47117 L 481.83391,118.07018 L 482.31155,117.66788 L 482.78919,117.26431 L 483.26683,116.85949 L 483.74447,116.45342 L 484.22211,116.04613 L 484.69975,115.63764 L 485.1774,115.22797 L 485.65504,114.81713 L 486.13268,114.40515 L 486.61032,113.99204 L 487.08796,113.57783 L 487.5656,113.16253 L 488.04324,112.74616 L 488.52088,112.32874 L 488.99853,111.91029 L 489.47617,111.49082 L 489.95381,111.07037 L 490.43145,110.64895 L 490.90909,110.22657 L 491.38673,109.80326 L 491.86437,109.37903 L 492.34201,108.95391 L 492.81966,108.52792 L 493.2973,108.10107 L 493.77494,107.67339 L 494.25258,107.24489 L 494.73022,106.81559 L 495.20786,106.38552 L 495.6855,105.95469 L 496.16314,105.52313 L 496.64079,105.09085 L 497.11843,104.65788 L 497.59607,104.22422 L 498.07371,103.78992 L 498.55135,103.35497 L 499.02899,102.91941 L 499.50663,102.48325 L 499.98428,102.04652 L 500.46192,101.60923 L 500.93956,101.17141 L 501.4172,100.73307 L 501.89484,100.29423 L 502.37248,99.854925 L 502.85012,99.415161 L 503.32776,98.974962 L 503.80541,98.534349 L 504.28305,98.093342 L 504.76069,97.651962 L 505.23833,97.210229 L 505.71597,96.768163 L 506.19361,96.325785 L 506.67125,95.883115 L 507.14889,95.440174 L 507.62654,94.996981 L 508.10418,94.553558 L 508.58182,94.109925"
           clip-path="url(#p12632432c599d5a3f93cdf6d5a4d19e3)"
           style="opacity:1;fill:none;stroke:#0000ff;stroke-width:1;stroke-linecap:square;stroke-linejoin:miter" />
      </g>
      <g
         id="line2d3">
        <defs
           id="defs2822">
          <path
             d="M 0,3 C 0.7956093,3 1.5587396,2.6839011 2.1213203,2.1213203 C 2.6839011,1.5587396 3,0.7956093 3,0 C 3,-0.7956093 2.6839011,-1.5587396 2.1213203,-2.1213203 C 1.5587396,-2.6839011 0.7956093,-3 0,-3 C -0.7956093,-3 -1.5587396,-2.6839011 -2.1213203,-2.1213203 C -2.6839011,-1.5587396 -3,-0.7956093 -3,0 C -3,0.7956093 -2.6839011,1.5587396 -2.1213203,2.1213203 C -1.5587396,2.6839011 -0.7956093,3 0,3 z"
             id="m20ae8964a0d076a3bfa1ef94eb082b41" />
        </defs>
        <g
           id="g2825"
           clip-path="url(#p12632432c599d5a3f93cdf6d5a4d19e3)">
          <use
             height="180"
             width="540"
             id="use2827"
             y="110.22657"
             x="49.090908"
             xlink:href="#m20ae8964a0d076a3bfa1ef94eb082b41"
             style="opacity:1;fill:#000000;stroke:#000000;stroke-width:0.5;stroke-linecap:butt;stroke-linejoin:miter" />
          <use
             height="180"
             width="540"
             id="use2829"
             y="69.773552"
             x="93.272728"
             xlink:href="#m20ae8964a0d076a3bfa1ef94eb082b41"
             style="opacity:1;fill:#000000;stroke:#000000;stroke-width:0.5;stroke-linecap:butt;stroke-linejoin:miter" />
          <use
             height="180"
             width="540"
             id="use2831"
             y="37.046162"
             x="137.45454"
             xlink:href="#m20ae8964a0d076a3bfa1ef94eb082b41"
             style="opacity:1;fill:#000000;stroke:#000000;stroke-width:0.5;stroke-linecap:butt;stroke-linejoin:miter" />
          <use
             height="180"
             width="540"
             id="use2833"
             y="24.545832"
             x="181.63637"
             xlink:href="#m20ae8964a0d076a3bfa1ef94eb082b41"
             style="opacity:1;fill:#000000;stroke:#000000;stroke-width:0.5;stroke-linecap:butt;stroke-linejoin:miter" />
          <use
             height="180"
             width="540"
             id="use2835"
             y="37.046162"
             x="225.81818"
             xlink:href="#m20ae8964a0d076a3bfa1ef94eb082b41"
             style="opacity:1;fill:#000000;stroke:#000000;stroke-width:0.5;stroke-linecap:butt;stroke-linejoin:miter" />
          <use
             height="180"
             width="540"
             id="use2837"
             y="69.773552"
             x="270"
             xlink:href="#m20ae8964a0d076a3bfa1ef94eb082b41"
             style="opacity:1;fill:#000000;stroke:#000000;stroke-width:0.5;stroke-linecap:butt;stroke-linejoin:miter" />
          <use
             height="180"
             width="540"
             id="use2839"
             y="110.22657"
             x="314.18182"
             xlink:href="#m20ae8964a0d076a3bfa1ef94eb082b41"
             style="opacity:1;fill:#000000;stroke:#000000;stroke-width:0.5;stroke-linecap:butt;stroke-linejoin:miter" />
          <use
             height="180"
             width="540"
             id="use2841"
             y="142.95354"
             x="358.36365"
             xlink:href="#m20ae8964a0d076a3bfa1ef94eb082b41"
             style="opacity:1;fill:#000000;stroke:#000000;stroke-width:0.5;stroke-linecap:butt;stroke-linejoin:miter" />
          <use
             height="180"
             width="540"
             id="use2843"
             y="155.45454"
             x="402.54544"
             xlink:href="#m20ae8964a0d076a3bfa1ef94eb082b41"
             style="opacity:1;fill:#000000;stroke:#000000;stroke-width:0.5;stroke-linecap:butt;stroke-linejoin:miter" />
          <use
             height="180"
             width="540"
             id="use2845"
             y="142.95354"
             x="446.72726"
             xlink:href="#m20ae8964a0d076a3bfa1ef94eb082b41"
             style="opacity:1;fill:#000000;stroke:#000000;stroke-width:0.5;stroke-linecap:butt;stroke-linejoin:miter" />
          <use
             height="180"
             width="540"
             id="use2847"
             y="110.22657"
             x="490.90909"
             xlink:href="#m20ae8964a0d076a3bfa1ef94eb082b41"
             style="opacity:1;fill:#000000;stroke:#000000;stroke-width:0.5;stroke-linecap:butt;stroke-linejoin:miter" />
        </g>
      </g>
      <g
         id="matplotlib.axis1">
        <g
           id="xtick1">
          <g
             id="line2d4">
            <defs
               id="defs2852">
              <path
                 d="M 0,0 L 0,-8"
                 id="mbb4d72b17a25ab293ce52cb6f0e28856" />
            </defs>
            <g
               id="g2855">
              <use
                 height="180"
                 width="540"
                 id="use2857"
                 y="162"
                 x="49.090908"
                 xlink:href="#mbb4d72b17a25ab293ce52cb6f0e28856"
                 style="opacity:1;fill:none;stroke:#000000;stroke-width:0.5;stroke-linecap:butt;stroke-linejoin:miter" />
            </g>
          </g>
          <g
             id="line2d5">
            <defs
               id="defs2860">
              <path
                 d="M 0,0 L 0,8"
                 id="m81afda4dfa59fd7ecfb3ce9eb746a50d" />
            </defs>
            <g
               id="g2863">
              <use
                 height="180"
                 width="540"
                 id="use2865"
                 y="18"
                 x="49.090908"
                 xlink:href="#m81afda4dfa59fd7ecfb3ce9eb746a50d"
                 style="opacity:1;fill:none;stroke:#000000;stroke-width:0.5;stroke-linecap:butt;stroke-linejoin:miter" />
            </g>
          </g>
          <text
             id="text2867"
             y="179.35938"
             x="44.551846"
             style="font-size:18px;font-style:normal;opacity:1;fill:#000000;font-family:Bitstream Vera Sans">0</text>
        </g>
        <g
           id="xtick2">
          <g
             id="line2d6">
            <g
               id="g2871">
              <use
                 height="180"
                 width="540"
                 id="use2873"
                 y="162"
                 x="93.272728"
                 xlink:href="#mbb4d72b17a25ab293ce52cb6f0e28856"
                 style="opacity:1;fill:none;stroke:#000000;stroke-width:0.5;stroke-linecap:butt;stroke-linejoin:miter" />
            </g>
          </g>
          <g
             id="line2d7">
            <g
               id="g2876">
              <use
                 height="180"
                 width="540"
                 id="use2878"
                 y="18"
                 x="93.272728"
                 xlink:href="#m81afda4dfa59fd7ecfb3ce9eb746a50d"
                 style="opacity:1;fill:none;stroke:#000000;stroke-width:0.5;stroke-linecap:butt;stroke-linejoin:miter" />
            </g>
          </g>
          <text
             id="text2880"
             y="179.125"
             x="89.366478"
             style="font-size:18px;font-style:normal;opacity:1;fill:#000000;font-family:Bitstream Vera Sans">1</text>
        </g>
        <g
           id="xtick3">
          <g
             id="line2d8">
            <g
               id="g2884">
              <use
                 height="180"
                 width="540"
                 id="use2886"
                 y="162"
                 x="137.45454"
                 xlink:href="#mbb4d72b17a25ab293ce52cb6f0e28856"
                 style="opacity:1;fill:none;stroke:#000000;stroke-width:0.5;stroke-linecap:butt;stroke-linejoin:miter" />
            </g>
          </g>
          <g
             id="line2d9">
            <g
               id="g2889">
              <use
                 height="180"
                 width="540"
                 id="use2891"
                 y="18"
                 x="137.45454"
                 xlink:href="#m81afda4dfa59fd7ecfb3ce9eb746a50d"
                 style="opacity:1;fill:none;stroke:#000000;stroke-width:0.5;stroke-linecap:butt;stroke-linejoin:miter" />
            </g>
          </g>
          <text
             id="text2893"
             y="179.35938"
             x="133.28267"
             style="font-size:18px;font-style:normal;opacity:1;fill:#000000;font-family:Bitstream Vera Sans">2</text>
        </g>
        <g
           id="xtick4">
          <g
             id="line2d10">
            <g
               id="g2897">
              <use
                 height="180"
                 width="540"
                 id="use2899"
                 y="162"
                 x="181.63637"
                 xlink:href="#mbb4d72b17a25ab293ce52cb6f0e28856"
                 style="opacity:1;fill:none;stroke:#000000;stroke-width:0.5;stroke-linecap:butt;stroke-linejoin:miter" />
            </g>
          </g>
          <g
             id="line2d11">
            <g
               id="g2902">
              <use
                 height="180"
                 width="540"
                 id="use2904"
                 y="18"
                 x="181.63637"
                 xlink:href="#m81afda4dfa59fd7ecfb3ce9eb746a50d"
                 style="opacity:1;fill:none;stroke:#000000;stroke-width:0.5;stroke-linecap:butt;stroke-linejoin:miter" />
            </g>
          </g>
          <text
             id="text2906"
             y="179.35938"
             x="177.31606"
             style="font-size:18px;font-style:normal;opacity:1;fill:#000000;font-family:Bitstream Vera Sans">3</text>
        </g>
        <g
           id="xtick5">
          <g
             id="line2d12">
            <g
               id="g2910">
              <use
                 height="180"
                 width="540"
                 id="use2912"
                 y="162"
                 x="225.81818"
                 xlink:href="#mbb4d72b17a25ab293ce52cb6f0e28856"
                 style="opacity:1;fill:none;stroke:#000000;stroke-width:0.5;stroke-linecap:butt;stroke-linejoin:miter" />
            </g>
          </g>
          <g
             id="line2d13">
            <g
               id="g2915">
              <use
                 height="180"
                 width="540"
                 id="use2917"
                 y="18"
                 x="225.81818"
                 xlink:href="#m81afda4dfa59fd7ecfb3ce9eb746a50d"
                 style="opacity:1;fill:none;stroke:#000000;stroke-width:0.5;stroke-linecap:butt;stroke-linejoin:miter" />
            </g>
          </g>
          <text
             id="text2919"
             y="179.125"
             x="221.03693"
             style="font-size:18px;font-style:normal;opacity:1;fill:#000000;font-family:Bitstream Vera Sans">4</text>
        </g>
        <g
           id="xtick6">
          <g
             id="line2d14">
            <g
               id="g2923">
              <use
                 height="180"
                 width="540"
                 id="use2925"
                 y="162"
                 x="270"
                 xlink:href="#mbb4d72b17a25ab293ce52cb6f0e28856"
                 style="opacity:1;fill:none;stroke:#000000;stroke-width:0.5;stroke-linecap:butt;stroke-linejoin:miter" />
            </g>
          </g>
          <g
             id="line2d15">
            <g
               id="g2928">
              <use
                 height="180"
                 width="540"
                 id="use2930"
                 y="18"
                 x="270"
                 xlink:href="#m81afda4dfa59fd7ecfb3ce9eb746a50d"
                 style="opacity:1;fill:none;stroke:#000000;stroke-width:0.5;stroke-linecap:butt;stroke-linejoin:miter" />
            </g>
          </g>
          <text
             id="text2932"
             y="179.125"
             x="265.75781"
             style="font-size:18px;font-style:normal;opacity:1;fill:#000000;font-family:Bitstream Vera Sans">5</text>
        </g>
        <g
           id="xtick7">
          <g
             id="line2d16">
            <g
               id="g2936">
              <use
                 height="180"
                 width="540"
                 id="use2938"
                 y="162"
                 x="314.18182"
                 xlink:href="#mbb4d72b17a25ab293ce52cb6f0e28856"
                 style="opacity:1;fill:none;stroke:#000000;stroke-width:0.5;stroke-linecap:butt;stroke-linejoin:miter" />
            </g>
          </g>
          <g
             id="line2d17">
            <g
               id="g2941">
              <use
                 height="180"
                 width="540"
                 id="use2943"
                 y="18"
                 x="314.18182"
                 xlink:href="#m81afda4dfa59fd7ecfb3ce9eb746a50d"
                 style="opacity:1;fill:none;stroke:#000000;stroke-width:0.5;stroke-linecap:butt;stroke-linejoin:miter" />
            </g>
          </g>
          <text
             id="text2945"
             y="179.35938"
             x="309.65839"
             style="font-size:18px;font-style:normal;opacity:1;fill:#000000;font-family:Bitstream Vera Sans">6</text>
        </g>
        <g
           id="xtick8">
          <g
             id="line2d18">
            <g
               id="g2949">
              <use
                 height="180"
                 width="540"
                 id="use2951"
                 y="162"
                 x="358.36365"
                 xlink:href="#mbb4d72b17a25ab293ce52cb6f0e28856"
                 style="opacity:1;fill:none;stroke:#000000;stroke-width:0.5;stroke-linecap:butt;stroke-linejoin:miter" />
            </g>
          </g>
          <g
             id="line2d19">
            <g
               id="g2954">
              <use
                 height="180"
                 width="540"
                 id="use2956"
                 y="18"
                 x="358.36365"
                 xlink:href="#m81afda4dfa59fd7ecfb3ce9eb746a50d"
                 style="opacity:1;fill:none;stroke:#000000;stroke-width:0.5;stroke-linecap:butt;stroke-linejoin:miter" />
            </g>
          </g>
          <text
             id="text2958"
             y="179.125"
             x="354.1449"
             style="font-size:18px;font-style:normal;opacity:1;fill:#000000;font-family:Bitstream Vera Sans">7</text>
        </g>
        <g
           id="xtick9">
          <g
             id="line2d20">
            <g
               id="g2962">
              <use
                 height="180"
                 width="540"
                 id="use2964"
                 y="162"
                 x="402.54544"
                 xlink:href="#mbb4d72b17a25ab293ce52cb6f0e28856"
                 style="opacity:1;fill:none;stroke:#000000;stroke-width:0.5;stroke-linecap:butt;stroke-linejoin:miter" />
            </g>
          </g>
          <g
             id="line2d21">
            <g
               id="g2967">
              <use
                 height="180"
                 width="540"
                 id="use2969"
                 y="18"
                 x="402.54544"
                 xlink:href="#m81afda4dfa59fd7ecfb3ce9eb746a50d"
                 style="opacity:1;fill:none;stroke:#000000;stroke-width:0.5;stroke-linecap:butt;stroke-linejoin:miter" />
            </g>
          </g>
          <text
             id="text2971"
             y="179.35938"
             x="398.04544"
             style="font-size:18px;font-style:normal;opacity:1;fill:#000000;font-family:Bitstream Vera Sans">8</text>
        </g>
        <g
           id="xtick10">
          <g
             id="line2d22">
            <g
               id="g2975">
              <use
                 height="180"
                 width="540"
                 id="use2977"
                 y="162"
                 x="446.72726"
                 xlink:href="#mbb4d72b17a25ab293ce52cb6f0e28856"
                 style="opacity:1;fill:none;stroke:#000000;stroke-width:0.5;stroke-linecap:butt;stroke-linejoin:miter" />
            </g>
          </g>
          <g
             id="line2d23">
            <g
               id="g2980">
              <use
                 height="180"
                 width="540"
                 id="use2982"
                 y="18"
                 x="446.72726"
                 xlink:href="#m81afda4dfa59fd7ecfb3ce9eb746a50d"
                 style="opacity:1;fill:none;stroke:#000000;stroke-width:0.5;stroke-linecap:butt;stroke-linejoin:miter" />
            </g>
          </g>
          <text
             id="text2984"
             y="179.35938"
             x="442.20383"
             style="font-size:18px;font-style:normal;opacity:1;fill:#000000;font-family:Bitstream Vera Sans">9</text>
        </g>
        <g
           id="xtick11">
          <g
             id="line2d24">
            <g
               id="g2988">
              <use
                 height="180"
                 width="540"
                 id="use2990"
                 y="162"
                 x="490.90909"
                 xlink:href="#mbb4d72b17a25ab293ce52cb6f0e28856"
                 style="opacity:1;fill:none;stroke:#000000;stroke-width:0.5;stroke-linecap:butt;stroke-linejoin:miter" />
            </g>
          </g>
          <g
             id="line2d25">
            <g
               id="g2993">
              <use
                 height="180"
                 width="540"
                 id="use2995"
                 y="18"
                 x="490.90909"
                 xlink:href="#m81afda4dfa59fd7ecfb3ce9eb746a50d"
                 style="opacity:1;fill:none;stroke:#000000;stroke-width:0.5;stroke-linecap:butt;stroke-linejoin:miter" />
            </g>
          </g>
          <text
             id="text2997"
             y="179.35938"
             x="481.0419"
             style="font-size:18px;font-style:normal;opacity:1;fill:#000000;font-family:Bitstream Vera Sans">10</text>
        </g>
      </g>
      <g
         id="matplotlib.axis2">
        <g
           id="ytick1">
          <g
             id="line2d26">
            <defs
               id="defs3002">
              <path
                 d="M 0,0 L 8,0"
                 id="md71f613830d87ebd401278d310a1df9e" />
            </defs>
            <g
               id="g3005">
              <use
                 height="180"
                 width="540"
                 id="use3007"
                 y="155.45454"
                 x="27"
                 xlink:href="#md71f613830d87ebd401278d310a1df9e"
                 style="opacity:1;fill:none;stroke:#000000;stroke-width:0.5;stroke-linecap:butt;stroke-linejoin:miter" />
            </g>
          </g>
          <g
             id="line2d27">
            <defs
               id="defs3010">
              <path
                 d="M 0,0 L -8,0"
                 id="m147042a36e52bd08778901eccf16f479" />
            </defs>
            <g
               id="g3013">
              <use
                 height="180"
                 width="540"
                 id="use3015"
                 y="155.45454"
                 x="513"
                 xlink:href="#m147042a36e52bd08778901eccf16f479"
                 style="opacity:1;fill:none;stroke:#000000;stroke-width:0.5;stroke-linecap:butt;stroke-linejoin:miter" />
            </g>
          </g>
        </g>
        <g
           id="ytick2">
          <g
             id="line2d28">
            <g
               id="g3019">
              <use
                 height="180"
                 width="540"
                 id="use3021"
                 y="90"
                 x="27"
                 xlink:href="#md71f613830d87ebd401278d310a1df9e"
                 style="opacity:1;fill:none;stroke:#000000;stroke-width:0.5;stroke-linecap:butt;stroke-linejoin:miter" />
            </g>
          </g>
          <g
             id="line2d29">
            <g
               id="g3024">
              <use
                 height="180"
                 width="540"
                 id="use3026"
                 y="90"
                 x="513"
                 xlink:href="#m147042a36e52bd08778901eccf16f479"
                 style="opacity:1;fill:none;stroke:#000000;stroke-width:0.5;stroke-linecap:butt;stroke-linejoin:miter" />
            </g>
          </g>
          <text
             id="text3028"
             y="96.554688"
             x="13.921875"
             style="font-size:18px;font-style:normal;opacity:1;fill:#000000;font-family:Bitstream Vera Sans">0</text>
        </g>
        <g
           id="ytick3">
          <g
             id="line2d30">
            <g
               id="g3032">
              <use
                 height="180"
                 width="540"
                 id="use3034"
                 y="24.545456"
                 x="27"
                 xlink:href="#md71f613830d87ebd401278d310a1df9e"
                 style="opacity:1;fill:none;stroke:#000000;stroke-width:0.5;stroke-linecap:butt;stroke-linejoin:miter" />
            </g>
          </g>
          <g
             id="line2d31">
            <g
               id="g3037">
              <use
                 height="180"
                 width="540"
                 id="use3039"
                 y="24.545456"
                 x="513"
                 xlink:href="#m147042a36e52bd08778901eccf16f479"
                 style="opacity:1;fill:none;stroke:#000000;stroke-width:0.5;stroke-linecap:butt;stroke-linejoin:miter" />
            </g>
          </g>
        </g>
      </g>
      <path
         id="path3041"
         d="M 27,162 L 513,162 L 513,18 L 27,18 L 27,162"
         style="opacity:1;fill:none;stroke:#000000;stroke-width:1;stroke-linecap:square;stroke-linejoin:miter" />
    </g>
  </g>
</svg>
