<?xml version="1.0" encoding="UTF-8" standalone="no"?>
<!-- Created with Inkscape (http://www.inkscape.org/) -->
<svg
   xmlns:dc="http://purl.org/dc/elements/1.1/"
   xmlns:cc="http://creativecommons.org/ns#"
   xmlns:rdf="http://www.w3.org/1999/02/22-rdf-syntax-ns#"
   xmlns:svg="http://www.w3.org/2000/svg"
   xmlns="http://www.w3.org/2000/svg"
   xmlns:sodipodi="http://sodipodi.sourceforge.net/DTD/sodipodi-0.dtd"
   xmlns:inkscape="http://www.inkscape.org/namespaces/inkscape"
   width="744.09448819"
   height="1052.3622047"
   id="svg8751"
   sodipodi:version="0.32"
   inkscape:version="0.46"
   sodipodi:docname="02lowSampleRate.svg"
   inkscape:output_extension="org.inkscape.output.svg.inkscape"
   inkscape:export-filename="/home/thomas/school/mae283/lectures/images/02lowSampleRate.png"
   inkscape:export-xdpi="150"
   inkscape:export-ydpi="150">
  <defs
     id="defs8753">
    <inkscape:perspective
       sodipodi:type="inkscape:persp3d"
       inkscape:vp_x="0 : 526.18109 : 1"
       inkscape:vp_y="0 : 1000 : 0"
       inkscape:vp_z="744.09448 : 526.18109 : 1"
       inkscape:persp3d-origin="372.04724 : 350.78739 : 1"
       id="perspective8759" />
    <inkscape:perspective
       id="perspective8768"
       inkscape:persp3d-origin="372.04724 : 350.78739 : 1"
       inkscape:vp_z="744.09448 : 526.18109 : 1"
       inkscape:vp_y="0 : 1000 : 0"
       inkscape:vp_x="0 : 526.18109 : 1"
       sodipodi:type="inkscape:persp3d" />
  </defs>
  <sodipodi:namedview
     id="base"
     pagecolor="#ffffff"
     bordercolor="#666666"
     borderopacity="1.0"
     gridtolerance="10000"
     guidetolerance="10"
     objecttolerance="10"
     inkscape:pageopacity="0.0"
     inkscape:pageshadow="2"
     inkscape:zoom="0.98994949"
     inkscape:cx="386.47844"
     inkscape:cy="613.83137"
     inkscape:document-units="px"
     inkscape:current-layer="layer1"
     showgrid="false"
     inkscape:window-width="1280"
     inkscape:window-height="974"
     inkscape:window-x="0"
     inkscape:window-y="25" />
  <metadata
     id="metadata8756">
    <rdf:RDF>
      <cc:Work
         rdf:about="">
        <dc:format>image/svg+xml</dc:format>
        <dc:type
           rdf:resource="http://purl.org/dc/dcmitype/StillImage" />
      </cc:Work>
    </rdf:RDF>
  </metadata>
  <g
     inkscape:label="Layer 1"
     inkscape:groupmode="layer"
     id="layer1">
    <path
       style="fill:none;fill-rule:evenodd;stroke:#000000;stroke-width:1.00684738;stroke-linecap:butt;stroke-linejoin:miter;stroke-miterlimit:4;stroke-dasharray:none;stroke-opacity:1"
       d="M 118.93555,405.74105 L 668.6299,405.74105"
       id="path8774" />
    <path
       sodipodi:type="arc"
       style="fill:#000000;fill-opacity:1;stroke-width:1;stroke-miterlimit:4;stroke-dasharray:none;stroke-dashoffset:0"
       id="path9285"
       sodipodi:cx="218.21428"
       sodipodi:cy="407.00504"
       sodipodi:rx="5.3571429"
       sodipodi:ry="5.3571429"
       d="M 223.57142,407.00504 A 5.3571429,5.3571429 0 1 1 212.85714,407.00504 A 5.3571429,5.3571429 0 1 1 223.57142,407.00504 z"
       transform="matrix(0.6582317,0,0,0.6582317,77.625264,137.52305)" />
    <path
       transform="matrix(0.6582317,0,0,0.6582317,-12.017593,137.52305)"
       d="M 223.57142,407.00504 A 5.3571429,5.3571429 0 1 1 212.85714,407.00504 A 5.3571429,5.3571429 0 1 1 223.57142,407.00504 z"
       sodipodi:ry="5.3571429"
       sodipodi:rx="5.3571429"
       sodipodi:cy="407.00504"
       sodipodi:cx="218.21428"
       id="path9287"
       style="fill:#000000;fill-opacity:1;stroke-width:1;stroke-miterlimit:4;stroke-dasharray:none;stroke-dashoffset:0"
       sodipodi:type="arc" />
    <path
       sodipodi:type="arc"
       style="fill:#000000;fill-opacity:1;stroke-width:1;stroke-miterlimit:4;stroke-dasharray:none;stroke-dashoffset:0"
       id="path9289"
       sodipodi:cx="218.21428"
       sodipodi:cy="407.00504"
       sodipodi:rx="5.3571429"
       sodipodi:ry="5.3571429"
       d="M 223.57142,407.00504 A 5.3571429,5.3571429 0 1 1 212.85714,407.00504 A 5.3571429,5.3571429 0 1 1 223.57142,407.00504 z"
       transform="matrix(0.6582317,0,0,0.6582317,160.83955,137.52305)" />
    <path
       transform="matrix(0.6582317,0,0,0.6582317,250.48241,137.52305)"
       d="M 223.57142,407.00504 A 5.3571429,5.3571429 0 1 1 212.85714,407.00504 A 5.3571429,5.3571429 0 1 1 223.57142,407.00504 z"
       sodipodi:ry="5.3571429"
       sodipodi:rx="5.3571429"
       sodipodi:cy="407.00504"
       sodipodi:cx="218.21428"
       id="path9291"
       style="fill:#000000;fill-opacity:1;stroke-width:1;stroke-miterlimit:4;stroke-dasharray:none;stroke-dashoffset:0"
       sodipodi:type="arc" />
    <path
       sodipodi:type="arc"
       style="fill:#000000;fill-opacity:1;stroke-width:1;stroke-miterlimit:4;stroke-dasharray:none;stroke-dashoffset:0"
       id="path9293"
       sodipodi:cx="218.21428"
       sodipodi:cy="407.00504"
       sodipodi:rx="5.3571429"
       sodipodi:ry="5.3571429"
       d="M 223.57142,407.00504 A 5.3571429,5.3571429 0 1 1 212.85714,407.00504 A 5.3571429,5.3571429 0 1 1 223.57142,407.00504 z"
       transform="matrix(0.6582317,0,0,0.6582317,334.05384,137.52305)" />
    <path
       transform="matrix(0.6582317,0,0,0.6582317,423.69669,137.52305)"
       d="M 223.57142,407.00504 A 5.3571429,5.3571429 0 1 1 212.85714,407.00504 A 5.3571429,5.3571429 0 1 1 223.57142,407.00504 z"
       sodipodi:ry="5.3571429"
       sodipodi:rx="5.3571429"
       sodipodi:cy="407.00504"
       sodipodi:cx="218.21428"
       id="path9295"
       style="fill:#000000;fill-opacity:1;stroke-width:1;stroke-miterlimit:4;stroke-dasharray:none;stroke-dashoffset:0"
       sodipodi:type="arc" />
    <path
       sodipodi:type="arc"
       style="fill:#000000;fill-opacity:1;stroke-width:1;stroke-miterlimit:4;stroke-dasharray:none;stroke-dashoffset:0"
       id="path9297"
       sodipodi:cx="218.21428"
       sodipodi:cy="407.00504"
       sodipodi:rx="5.3571429"
       sodipodi:ry="5.3571429"
       d="M 223.57142,407.00504 A 5.3571429,5.3571429 0 1 1 212.85714,407.00504 A 5.3571429,5.3571429 0 1 1 223.57142,407.00504 z"
       transform="matrix(0.6582317,0,0,0.6582317,506.63677,137.52305)" />
    <g
       style="fill:none;stroke-width:1;stroke-linecap:butt;stroke-linejoin:miter"
       id="g4047"
       transform="matrix(1.0847223,0,0,1.0686793,35.843131,173.48497)" />
    <g
       style="fill:none;stroke-width:1;stroke-linecap:butt;stroke-linejoin:miter"
       id="g4049"
       transform="matrix(1.0847223,0,0,1.0243614,35.843131,172.95257)">
      <path
         d="M 75.4,444 L 84.4,444 M 582.7,444 L 573.7,444"
         id="path4051" />
      <g
         transform="translate(67.1,448.5)"
         style="font-size:15px;text-anchor:end;fill:#000000;stroke:none;font-family:Arial"
         id="g4053">
        <text
           id="text4055">-1</text>
      </g>
      <path
         d="M 75.4,401.3 L 84.4,401.3 M 582.7,401.3 L 573.7,401.3"
         id="path4057" />
      <g
         transform="translate(67.1,405.8)"
         style="font-size:15px;text-anchor:end;fill:#000000;stroke:none;font-family:Arial"
         id="g4059">
        <text
           id="text4061">-0.8</text>
      </g>
      <path
         d="M 75.4,358.5 L 84.4,358.5 M 582.7,358.5 L 573.7,358.5"
         id="path4063" />
      <g
         transform="translate(67.1,363)"
         style="font-size:15px;text-anchor:end;fill:#000000;stroke:none;font-family:Arial"
         id="g4065">
        <text
           id="text4067">-0.6</text>
      </g>
      <path
         d="M 75.4,315.8 L 84.4,315.8 M 582.7,315.8 L 573.7,315.8"
         id="path4069" />
      <g
         transform="translate(67.1,320.3)"
         style="font-size:15px;text-anchor:end;fill:#000000;stroke:none;font-family:Arial"
         id="g4071">
        <text
           id="text4073">-0.4</text>
      </g>
      <path
         d="M 75.4,273 L 84.4,273 M 582.7,273 L 573.7,273"
         id="path4075" />
      <g
         transform="translate(67.1,277.5)"
         style="font-size:15px;text-anchor:end;fill:#000000;stroke:none;font-family:Arial"
         id="g4077">
        <text
           id="text4079">-0.2</text>
      </g>
      <path
         d="M 75.4,230.3 L 84.4,230.3 M 582.7,230.3 L 573.7,230.3"
         id="path4081" />
      <g
         transform="translate(67.1,234.8)"
         style="font-size:15px;text-anchor:end;fill:#000000;stroke:none;font-family:Arial"
         id="g4083">
        <text
           id="text4085">0</text>
      </g>
      <path
         d="M 75.4,187.6 L 84.4,187.6 M 582.7,187.6 L 573.7,187.6"
         id="path4087" />
      <g
         transform="translate(67.1,192.1)"
         style="font-size:15px;text-anchor:end;fill:#000000;stroke:none;font-family:Arial"
         id="g4089">
        <text
           id="text4091">0.2</text>
      </g>
      <path
         d="M 75.4,144.8 L 84.4,144.8 M 582.7,144.8 L 573.7,144.8"
         id="path4093" />
      <g
         transform="translate(67.1,149.3)"
         style="font-size:15px;text-anchor:end;fill:#000000;stroke:none;font-family:Arial"
         id="g4095">
        <text
           id="text4097">0.4</text>
      </g>
      <path
         d="M 75.4,102.1 L 84.4,102.1 M 582.7,102.1 L 573.7,102.1"
         id="path4099" />
      <g
         transform="translate(67.1,106.6)"
         style="font-size:15px;text-anchor:end;fill:#000000;stroke:none;font-family:Arial"
         id="g4101">
        <text
           id="text4103">0.6</text>
      </g>
      <path
         d="M 75.4,59.3 L 84.4,59.3 M 582.7,59.3 L 573.7,59.3"
         id="path4105" />
      <g
         transform="translate(67.1,63.8)"
         style="font-size:15px;text-anchor:end;fill:#000000;stroke:none;font-family:Arial"
         id="g4107">
        <text
           id="text4109">0.8</text>
      </g>
      <path
         d="M 75.4,16.6 L 84.4,16.6 M 582.7,16.6 L 573.7,16.6"
         id="path4111" />
      <g
         transform="translate(67.1,21.1)"
         style="font-size:15px;text-anchor:end;fill:#000000;stroke:none;font-family:Arial"
         id="g4113">
        <text
           id="text4115">1</text>
      </g>
      <path
         d="M 75.4,444 L 75.4,435 M 75.4,16.6 L 75.4,25.6"
         id="path4117" />
      <g
         transform="translate(75.4,466.5)"
         style="font-size:15px;text-anchor:middle;fill:#000000;stroke:none;font-family:Arial"
         id="g4119">
        <text
           id="text4121">-10</text>
      </g>
      <path
         d="M 202.2,444 L 202.2,435 M 202.2,16.6 L 202.2,25.6"
         id="path4123" />
      <g
         transform="translate(202.2,466.5)"
         style="font-size:15px;text-anchor:middle;fill:#000000;stroke:none;font-family:Arial"
         id="g4125">
        <text
           id="text4127">-5</text>
      </g>
      <path
         d="M 329.1,444 L 329.1,435 M 329.1,16.6 L 329.1,25.6"
         id="path4129" />
      <g
         transform="translate(329.1,466.5)"
         style="font-size:15px;text-anchor:middle;fill:#000000;stroke:none;font-family:Arial"
         id="g4131">
        <text
           id="text4133">0</text>
      </g>
      <path
         d="M 455.9,444 L 455.9,435 M 455.9,16.6 L 455.9,25.6"
         id="path4135" />
      <g
         transform="translate(455.9,466.5)"
         style="font-size:15px;text-anchor:middle;fill:#000000;stroke:none;font-family:Arial"
         id="g4137">
        <text
           id="text4139">5</text>
      </g>
      <path
         d="M 582.7,444 L 582.7,435 M 582.7,16.6 L 582.7,25.6"
         id="path4141" />
      <g
         transform="translate(582.7,466.5)"
         style="font-size:15px;text-anchor:middle;fill:#000000;stroke:none;font-family:Arial"
         id="g4143">
        <text
           id="text4145">10</text>
      </g>
      <path
         d="M 75.4,16.6 L 75.4,444 L 582.7,444 L 582.7,16.6 L 75.4,16.6 z"
         id="path4147" />
    </g>
    <g
       style="fill:none;stroke-width:1;stroke-linecap:butt;stroke-linejoin:miter"
       id="g4149"
       transform="matrix(1.0847223,0,0,1.0686793,35.843131,173.48497)" />
    <g
       style="fill:none;stroke-width:1;stroke-linecap:butt;stroke-linejoin:miter"
       id="g4151"
       transform="matrix(1.0847223,0,0,1.0686793,35.843131,173.48497)">
      <g
         transform="translate(515.6,39.1)"
         style="font-size:15px;text-anchor:end;fill:#000000;stroke:none;font-family:Arial"
         id="g4153">
        <text
           id="text4155">sin(x)</text>
      </g>
    </g>
    <g
       style="fill:none;stroke:#ff0000;stroke-width:1;stroke-linecap:butt;stroke-linejoin:miter;stroke-opacity:1"
       id="g4157"
       transform="matrix(1.0847223,0,0,1.0686793,35.843131,173.48497)">
      <path
         d="M 523.9,34.6 L 566.1,34.6 M 75.4,114 L 80.5,152.4 L 85.6,193.9 L 90.8,236.9 L 95.9,279.6 L 101,320.3 L 106.1,357.4 L 111.3,389.3 L 116.4,414.7 L 121.5,432.6 L 126.6,442.3 L 131.8,443.4 L 136.9,435.8 L 142,419.8 L 147.1,396.2 L 152.3,365.8 L 157.4,329.8 L 162.5,289.9 L 167.6,247.5 L 172.8,204.4 L 177.9,162.3 L 183,123.1 L 188.1,88.2 L 193.3,59 L 198.4,36.9 L 203.5,22.6 L 208.6,16.7 L 213.8,19.6 L 218.9,31 L 224,50.5 L 229.1,77.3 L 234.3,110.4 L 239.4,148.3 L 244.5,189.6 L 249.6,232.5 L 254.7,275.3 L 259.9,316.3 L 265,353.8 L 270.1,386.3 L 275.2,412.4 L 280.4,431.2 L 285.5,441.7 L 290.6,443.7 L 295.7,436.9 L 300.9,421.8 L 306,398.9 L 311.1,369.1 L 316.2,333.7 L 321.4,294.1 L 326.5,251.8 L 331.6,208.8 L 336.7,166.5 L 341.9,126.9 L 347,91.5 L 352.1,61.7 L 357.2,38.8 L 362.4,23.7 L 367.5,16.9 L 372.6,18.9 L 377.7,29.4 L 382.9,48.2 L 388,74.3 L 393.1,106.8 L 398.2,144.3 L 403.4,185.3 L 408.5,228.1 L 413.6,271 L 418.7,312.3 L 423.8,350.2 L 429,383.3 L 434.1,410.1 L 439.2,429.6 L 444.3,441 L 449.5,443.9 L 454.6,438 L 459.7,423.7 L 464.8,401.6 L 470,372.4 L 475.1,337.5 L 480.2,298.3 L 485.3,256.2 L 490.5,213.1 L 495.6,170.7 L 500.7,130.8 L 505.8,94.8 L 511,64.4 L 516.1,40.8 L 521.2,24.8 L 526.3,17.2 L 531.5,18.3 L 536.6,28 L 541.7,45.9 L 546.8,71.3 L 552,103.2 L 557.1,140.3 L 562.2,181 L 567.3,223.7 L 572.5,266.7 L 577.6,308.2 L 582.7,346.6"
         id="path4159"
         style="stroke:#ff0000;stroke-opacity:1" />
    </g>
    <g
       style="fill:none;stroke-width:1;stroke-linecap:butt;stroke-linejoin:miter"
       id="g4161"
       transform="matrix(1.0847223,0,0,1.0686793,35.843131,173.48497)">
      <path
         d="M 75.4,16.6 L 75.4,444 L 582.7,444 L 582.7,16.6 L 75.4,16.6 z"
         id="path4163" />
    </g>
    <g
       style="fill:none;stroke:#000000;stroke-width:1;stroke-linecap:butt;stroke-linejoin:miter;stroke-opacity:1"
       id="g4738"
       transform="matrix(1.0854435,0,0,1.0966898,36.289215,165.92381)">
      <path
         d="M 75.4,16.6 L 75.4,444 L 582.7,444 L 582.7,16.6 L 75.4,16.6 z"
         id="path4740"
         style="stroke:#000000;stroke-opacity:1" />
    </g>
  </g>
</svg>
