<?xml version="1.0" encoding="UTF-8" standalone="no"?>
<!-- Created with Inkscape (http://www.inkscape.org/) -->
<svg
   xmlns:dc="http://purl.org/dc/elements/1.1/"
   xmlns:cc="http://creativecommons.org/ns#"
   xmlns:rdf="http://www.w3.org/1999/02/22-rdf-syntax-ns#"
   xmlns:svg="http://www.w3.org/2000/svg"
   xmlns="http://www.w3.org/2000/svg"
   xmlns:xlink="http://www.w3.org/1999/xlink"
   xmlns:sodipodi="http://sodipodi.sourceforge.net/DTD/sodipodi-0.dtd"
   xmlns:inkscape="http://www.inkscape.org/namespaces/inkscape"
   width="744.09448819"
   height="1052.3622047"
   id="svg8751"
   sodipodi:version="0.32"
   inkscape:version="0.46"
   sodipodi:docname="02lowSampleRate.svg"
   inkscape:output_extension="org.inkscape.output.svg.inkscape">
  <defs
     id="defs8753">
    <inkscape:perspective
       sodipodi:type="inkscape:persp3d"
       inkscape:vp_x="0 : 526.18109 : 1"
       inkscape:vp_y="0 : 1000 : 0"
       inkscape:vp_z="744.09448 : 526.18109 : 1"
       inkscape:persp3d-origin="372.04724 : 350.78739 : 1"
       id="perspective8759" />
    <inkscape:perspective
       id="perspective8768"
       inkscape:persp3d-origin="372.04724 : 350.78739 : 1"
       inkscape:vp_z="744.09448 : 526.18109 : 1"
       inkscape:vp_y="0 : 1000 : 0"
       inkscape:vp_x="0 : 526.18109 : 1"
       sodipodi:type="inkscape:persp3d" />
  </defs>
  <sodipodi:namedview
     id="base"
     pagecolor="#ffffff"
     bordercolor="#666666"
     borderopacity="1.0"
     gridtolerance="10000"
     guidetolerance="10"
     objecttolerance="10"
     inkscape:pageopacity="0.0"
     inkscape:pageshadow="2"
     inkscape:zoom="2.8"
     inkscape:cx="471.62896"
     inkscape:cy="643.64938"
     inkscape:document-units="px"
     inkscape:current-layer="layer1"
     showgrid="false"
     inkscape:window-width="1280"
     inkscape:window-height="974"
     inkscape:window-x="0"
     inkscape:window-y="25" />
  <metadata
     id="metadata8756">
    <rdf:RDF>
      <cc:Work
         rdf:about="">
        <dc:format>image/svg+xml</dc:format>
        <dc:type
           rdf:resource="http://purl.org/dc/dcmitype/StillImage" />
      </cc:Work>
    </rdf:RDF>
  </metadata>
  <g
     inkscape:label="Layer 1"
     inkscape:groupmode="layer"
     id="layer1">
    <image
       y="202.29076"
       x="42.857143"
       id="image8770"
       height="423"
       width="640"
       sodipodi:absref="/home/thomas/school/mae283/lectures/images/pastedpic_09292009_173937.png"
       xlink:href="pastedpic_09292009_173937.png" />
    <path
       style="fill:none;fill-rule:evenodd;stroke:#000000;stroke-width:1;stroke-linecap:butt;stroke-linejoin:miter;stroke-opacity:1;stroke-miterlimit:4;stroke-dasharray:none"
       d="M 120.36004,405.73828 L 665.60352,405.73828"
       id="path8774" />
    <path
       sodipodi:type="arc"
       style="fill:#000000;fill-opacity:1;stroke-width:1;stroke-miterlimit:4;stroke-dasharray:none;stroke-dashoffset:0"
       id="path9285"
       sodipodi:cx="218.21428"
       sodipodi:cy="407.00504"
       sodipodi:rx="5.3571429"
       sodipodi:ry="5.3571429"
       d="M 223.57142,407.00504 A 5.3571429,5.3571429 0 1 1 212.85714,407.00504 A 5.3571429,5.3571429 0 1 1 223.57142,407.00504 z"
       transform="matrix(0.6582317,0,0,0.6582317,74.768121,137.52305)" />
    <path
       transform="matrix(0.6582317,0,0,0.6582317,-12.017593,137.52305)"
       d="M 223.57142,407.00504 A 5.3571429,5.3571429 0 1 1 212.85714,407.00504 A 5.3571429,5.3571429 0 1 1 223.57142,407.00504 z"
       sodipodi:ry="5.3571429"
       sodipodi:rx="5.3571429"
       sodipodi:cy="407.00504"
       sodipodi:cx="218.21428"
       id="path9287"
       style="fill:#000000;fill-opacity:1;stroke-width:1;stroke-miterlimit:4;stroke-dasharray:none;stroke-dashoffset:0"
       sodipodi:type="arc" />
    <path
       sodipodi:type="arc"
       style="fill:#000000;fill-opacity:1;stroke-width:1;stroke-miterlimit:4;stroke-dasharray:none;stroke-dashoffset:0"
       id="path9289"
       sodipodi:cx="218.21428"
       sodipodi:cy="407.00504"
       sodipodi:rx="5.3571429"
       sodipodi:ry="5.3571429"
       d="M 223.57142,407.00504 A 5.3571429,5.3571429 0 1 1 212.85714,407.00504 A 5.3571429,5.3571429 0 1 1 223.57142,407.00504 z"
       transform="matrix(0.6582317,0,0,0.6582317,160.83955,137.52305)" />
    <path
       transform="matrix(0.6582317,0,0,0.6582317,247.98241,137.52305)"
       d="M 223.57142,407.00504 A 5.3571429,5.3571429 0 1 1 212.85714,407.00504 A 5.3571429,5.3571429 0 1 1 223.57142,407.00504 z"
       sodipodi:ry="5.3571429"
       sodipodi:rx="5.3571429"
       sodipodi:cy="407.00504"
       sodipodi:cx="218.21428"
       id="path9291"
       style="fill:#000000;fill-opacity:1;stroke-width:1;stroke-miterlimit:4;stroke-dasharray:none;stroke-dashoffset:0"
       sodipodi:type="arc" />
    <path
       sodipodi:type="arc"
       style="fill:#000000;fill-opacity:1;stroke-width:1;stroke-miterlimit:4;stroke-dasharray:none;stroke-dashoffset:0"
       id="path9293"
       sodipodi:cx="218.21428"
       sodipodi:cy="407.00504"
       sodipodi:rx="5.3571429"
       sodipodi:ry="5.3571429"
       d="M 223.57142,407.00504 A 5.3571429,5.3571429 0 1 1 212.85714,407.00504 A 5.3571429,5.3571429 0 1 1 223.57142,407.00504 z"
       transform="matrix(0.6582317,0,0,0.6582317,334.05384,137.52305)" />
    <path
       transform="matrix(0.6582317,0,0,0.6582317,420.83955,137.52305)"
       d="M 223.57142,407.00504 A 5.3571429,5.3571429 0 1 1 212.85714,407.00504 A 5.3571429,5.3571429 0 1 1 223.57142,407.00504 z"
       sodipodi:ry="5.3571429"
       sodipodi:rx="5.3571429"
       sodipodi:cy="407.00504"
       sodipodi:cx="218.21428"
       id="path9295"
       style="fill:#000000;fill-opacity:1;stroke-width:1;stroke-miterlimit:4;stroke-dasharray:none;stroke-dashoffset:0"
       sodipodi:type="arc" />
    <path
       sodipodi:type="arc"
       style="fill:#000000;fill-opacity:1;stroke-width:1;stroke-miterlimit:4;stroke-dasharray:none;stroke-dashoffset:0"
       id="path9297"
       sodipodi:cx="218.21428"
       sodipodi:cy="407.00504"
       sodipodi:rx="5.3571429"
       sodipodi:ry="5.3571429"
       d="M 223.57142,407.00504 A 5.3571429,5.3571429 0 1 1 212.85714,407.00504 A 5.3571429,5.3571429 0 1 1 223.57142,407.00504 z"
       transform="matrix(0.6582317,0,0,0.6582317,507.26812,137.52305)" />
  </g>
</svg>
