<?xml version="1.0" encoding="UTF-8" standalone="no"?>
<!-- Created with Inkscape (http://www.inkscape.org/) -->
<svg
   xmlns:dc="http://purl.org/dc/elements/1.1/"
   xmlns:cc="http://creativecommons.org/ns#"
   xmlns:rdf="http://www.w3.org/1999/02/22-rdf-syntax-ns#"
   xmlns:svg="http://www.w3.org/2000/svg"
   xmlns="http://www.w3.org/2000/svg"
   xmlns:sodipodi="http://sodipodi.sourceforge.net/DTD/sodipodi-0.dtd"
   xmlns:inkscape="http://www.inkscape.org/namespaces/inkscape"
   width="744.09448819"
   height="1052.3622047"
   id="svg4546"
   sodipodi:version="0.32"
   inkscape:version="0.46"
   sodipodi:docname="03markovParams.svg"
   inkscape:output_extension="org.inkscape.output.svg.inkscape"
   inkscape:export-filename="/home/thomas/school/mae283/lectures/images/03markovParams.png"
   inkscape:export-xdpi="150"
   inkscape:export-ydpi="150">
  <defs
     id="defs4548">
    <marker
       inkscape:stockid="Arrow1Lstart"
       orient="auto"
       refY="0.0"
       refX="0.0"
       id="Arrow1Lstart"
       style="overflow:visible">
      <path
         id="path3162"
         d="M 0.0,0.0 L 5.0,-5.0 L -12.5,0.0 L 5.0,5.0 L 0.0,0.0 z "
         style="fill-rule:evenodd;stroke:#000000;stroke-width:1.0pt;marker-start:none"
         transform="scale(0.8) translate(12.5,0)" />
    </marker>
    <marker
       inkscape:stockid="Arrow1Lend"
       orient="auto"
       refY="0.0"
       refX="0.0"
       id="Arrow1Lend"
       style="overflow:visible;">
      <path
         id="path3165"
         d="M 0.0,0.0 L 5.0,-5.0 L -12.5,0.0 L 5.0,5.0 L 0.0,0.0 z "
         style="fill-rule:evenodd;stroke:#000000;stroke-width:1.0pt;marker-start:none;"
         transform="scale(0.8) rotate(180) translate(12.5,0)" />
    </marker>
    <inkscape:perspective
       sodipodi:type="inkscape:persp3d"
       inkscape:vp_x="0 : 526.18109 : 1"
       inkscape:vp_y="0 : 1000 : 0"
       inkscape:vp_z="744.09448 : 526.18109 : 1"
       inkscape:persp3d-origin="372.04724 : 350.78739 : 1"
       id="perspective4554" />
  </defs>
  <sodipodi:namedview
     id="base"
     pagecolor="#ffffff"
     bordercolor="#666666"
     borderopacity="1.0"
     gridtolerance="10000"
     guidetolerance="10"
     objecttolerance="10"
     inkscape:pageopacity="0.0"
     inkscape:pageshadow="2"
     inkscape:zoom="1.4142136"
     inkscape:cx="416.64421"
     inkscape:cy="652.60426"
     inkscape:document-units="px"
     inkscape:current-layer="layer1"
     showgrid="false"
     inkscape:window-width="1280"
     inkscape:window-height="974"
     inkscape:window-x="0"
     inkscape:window-y="25" />
  <metadata
     id="metadata4551">
    <rdf:RDF>
      <cc:Work
         rdf:about="">
        <dc:format>image/svg+xml</dc:format>
        <dc:type
           rdf:resource="http://purl.org/dc/dcmitype/StillImage" />
      </cc:Work>
    </rdf:RDF>
  </metadata>
  <g
     inkscape:label="Layer 1"
     inkscape:groupmode="layer"
     id="layer1">
    <path
       style="fill:none;fill-rule:evenodd;stroke:#000000;stroke-width:1px;stroke-linecap:butt;stroke-linejoin:miter;marker-start:url(#Arrow1Lstart);stroke-opacity:1"
       d="M 163.20214,204.0411 L 163.20214,523.2493"
       id="path2385" />
    <path
       style="fill:none;fill-rule:evenodd;stroke:#000000;stroke-width:1px;stroke-linecap:butt;stroke-linejoin:miter;marker-end:url(#Arrow1Lend);stroke-opacity:1"
       d="M 98.552374,368.62353 L 596.55757,368.62353"
       id="path2387" />
    <text
       xml:space="preserve"
       style="font-size:24px;font-style:italic;font-variant:normal;font-weight:normal;font-stretch:normal;text-align:start;line-height:125%;writing-mode:lr-tb;text-anchor:start;fill:#000000;fill-opacity:1;stroke:none;stroke-width:1px;stroke-linecap:butt;stroke-linejoin:miter;stroke-opacity:1;font-family:Liberation Serif;-inkscape-font-specification:Liberation Serif Italic"
       x="160.17169"
       y="193.93956"
       id="text4460"
       sodipodi:linespacing="125%"><tspan
         sodipodi:role="line"
         id="tspan4462"
         x="160.17169"
         y="193.93956">y</tspan></text>
    <text
       xml:space="preserve"
       style="font-size:24px;font-style:italic;font-variant:normal;font-weight:normal;font-stretch:normal;text-align:start;line-height:125%;writing-mode:lr-tb;text-anchor:start;fill:#000000;fill-opacity:1;stroke:none;stroke-width:1px;stroke-linecap:butt;stroke-linejoin:miter;stroke-opacity:1;font-family:Liberation Serif;-inkscape-font-specification:Liberation Serif Italic"
       x="600.59814"
       y="369.70612"
       id="text4464"
       sodipodi:linespacing="125%"><tspan
         sodipodi:role="line"
         id="tspan4466"
         x="600.59814"
         y="369.70612">x</tspan></text>
    <g
       id="g2561">
      <g
         id="g2552">
        <path
           transform="matrix(0.5711207,0,0,0.5711207,58.888339,136.23696)"
           d="M 250.51783,242.72491 A 6.5659914,6.5659914 0 1 1 237.38585,242.72491 A 6.5659914,6.5659914 0 1 1 250.51783,242.72491 z"
           sodipodi:ry="6.5659914"
           sodipodi:rx="6.5659914"
           sodipodi:cy="242.72491"
           sodipodi:cx="243.95184"
           id="path4482"
           style="fill:#000000;fill-opacity:1;stroke:#f8f8f8;stroke-width:1;stroke-miterlimit:4;stroke-dasharray:none;stroke-dashoffset:0;stroke-opacity:1"
           sodipodi:type="arc" />
        <path
           sodipodi:type="arc"
           style="fill:#000000;fill-opacity:1;stroke:#f8f8f8;stroke-width:1;stroke-miterlimit:4;stroke-dasharray:none;stroke-dashoffset:0;stroke-opacity:1"
           id="path4571"
           sodipodi:cx="243.95184"
           sodipodi:cy="242.72491"
           sodipodi:rx="6.5659914"
           sodipodi:ry="6.5659914"
           d="M 250.51783,242.72491 A 6.5659914,6.5659914 0 1 1 237.38585,242.72491 A 6.5659914,6.5659914 0 1 1 250.51783,242.72491 z"
           transform="matrix(0.5711207,0,0,0.5711207,107.20466,160.52268)" />
        <path
           transform="matrix(0.5711207,0,0,0.5711207,155.52097,180.22808)"
           d="M 250.51783,242.72491 A 6.5659914,6.5659914 0 1 1 237.38585,242.72491 A 6.5659914,6.5659914 0 1 1 250.51783,242.72491 z"
           sodipodi:ry="6.5659914"
           sodipodi:rx="6.5659914"
           sodipodi:cy="242.72491"
           sodipodi:cx="243.95184"
           id="path4573"
           style="fill:#000000;fill-opacity:1;stroke:#f8f8f8;stroke-width:1;stroke-miterlimit:4;stroke-dasharray:none;stroke-dashoffset:0;stroke-opacity:1"
           sodipodi:type="arc" />
        <path
           sodipodi:type="arc"
           style="fill:#000000;fill-opacity:1;stroke:#f8f8f8;stroke-width:1;stroke-miterlimit:4;stroke-dasharray:none;stroke-dashoffset:0;stroke-opacity:1"
           id="path4575"
           sodipodi:cx="243.95184"
           sodipodi:cy="242.72491"
           sodipodi:rx="6.5659914"
           sodipodi:ry="6.5659914"
           d="M 250.51783,242.72491 A 6.5659914,6.5659914 0 1 1 237.38585,242.72491 A 6.5659914,6.5659914 0 1 1 250.51783,242.72491 z"
           transform="matrix(0.5711207,0,0,0.5711207,203.83733,194.25818)" />
        <path
           transform="matrix(0.5711207,0,0,0.5711207,252.15365,203.12766)"
           d="M 250.51783,242.72491 A 6.5659914,6.5659914 0 1 1 237.38585,242.72491 A 6.5659914,6.5659914 0 1 1 250.51783,242.72491 z"
           sodipodi:ry="6.5659914"
           sodipodi:rx="6.5659914"
           sodipodi:cy="242.72491"
           sodipodi:cx="243.95184"
           id="path4577"
           style="fill:#000000;fill-opacity:1;stroke:#f8f8f8;stroke-width:1;stroke-miterlimit:4;stroke-dasharray:none;stroke-dashoffset:0;stroke-opacity:1"
           sodipodi:type="arc" />
        <path
           sodipodi:type="arc"
           style="fill:#000000;fill-opacity:1;stroke:#f8f8f8;stroke-width:1;stroke-miterlimit:4;stroke-dasharray:none;stroke-dashoffset:0;stroke-opacity:1"
           id="path4579"
           sodipodi:cx="243.95184"
           sodipodi:cy="242.72491"
           sodipodi:rx="6.5659914"
           sodipodi:ry="6.5659914"
           d="M 250.51783,242.72491 A 6.5659914,6.5659914 0 1 1 237.38585,242.72491 A 6.5659914,6.5659914 0 1 1 250.51783,242.72491 z"
           transform="matrix(0.5711207,0,0,0.5711207,300.46996,207.4335)" />
        <path
           transform="matrix(0.5711207,0,0,0.5711207,348.7863,212.71141)"
           d="M 250.51783,242.72491 A 6.5659914,6.5659914 0 1 1 237.38585,242.72491 A 6.5659914,6.5659914 0 1 1 250.51783,242.72491 z"
           sodipodi:ry="6.5659914"
           sodipodi:rx="6.5659914"
           sodipodi:cy="242.72491"
           sodipodi:cx="243.95184"
           id="path4581"
           style="fill:#000000;fill-opacity:1;stroke:#f8f8f8;stroke-width:1;stroke-miterlimit:4;stroke-dasharray:none;stroke-dashoffset:0;stroke-opacity:1"
           sodipodi:type="arc" />
      </g>
      <path
         transform="matrix(0.5711207,0,0,0.5711207,397.10264,216.25963)"
         d="M 250.51783,242.72491 A 6.5659914,6.5659914 0 1 1 237.38585,242.72491 A 6.5659914,6.5659914 0 1 1 250.51783,242.72491 z"
         sodipodi:ry="6.5659914"
         sodipodi:rx="6.5659914"
         sodipodi:cy="242.72491"
         sodipodi:cx="243.95184"
         id="path4583"
         style="fill:#000000;fill-opacity:1;stroke:#f8f8f8;stroke-width:1;stroke-miterlimit:4;stroke-dasharray:none;stroke-dashoffset:0;stroke-opacity:1"
         sodipodi:type="arc" />
    </g>
    <path
       style="fill:none;fill-rule:evenodd;stroke:#000000;stroke-width:1px;stroke-linecap:butt;stroke-linejoin:miter;stroke-opacity:1"
       d="M 131.42857,224.50504 C 174.46349,270.22053 248.73719,302.31763 313.24926,325.62735 C 329.2861,331.42184 372.59878,339.66315 389.66833,341.47338 C 424.16224,345.13147 477.39992,350.27706 511.46329,352.97201 C 543.34608,355.49445 573.97445,358.03869 585.00001,358.25505"
       id="path2542"
       sodipodi:nodetypes="csssc" />
    <g
       id="g2572"
       transform="matrix(1,0,0,-1,0,737.24704)">
      <g
         id="g2574">
        <path
           sodipodi:type="arc"
           style="fill:#000000;fill-opacity:1;stroke:#f8f8f8;stroke-width:1;stroke-miterlimit:4;stroke-dasharray:none;stroke-dashoffset:0;stroke-opacity:1"
           id="path2576"
           sodipodi:cx="243.95184"
           sodipodi:cy="242.72491"
           sodipodi:rx="6.5659914"
           sodipodi:ry="6.5659914"
           d="M 250.51783,242.72491 A 6.5659914,6.5659914 0 1 1 237.38585,242.72491 A 6.5659914,6.5659914 0 1 1 250.51783,242.72491 z"
           transform="matrix(0.5711207,0,0,0.5711207,58.888339,136.23696)" />
        <path
           transform="matrix(0.5711207,0,0,0.5711207,107.20466,160.52268)"
           d="M 250.51783,242.72491 A 6.5659914,6.5659914 0 1 1 237.38585,242.72491 A 6.5659914,6.5659914 0 1 1 250.51783,242.72491 z"
           sodipodi:ry="6.5659914"
           sodipodi:rx="6.5659914"
           sodipodi:cy="242.72491"
           sodipodi:cx="243.95184"
           id="path2578"
           style="fill:#000000;fill-opacity:1;stroke:#f8f8f8;stroke-width:1;stroke-miterlimit:4;stroke-dasharray:none;stroke-dashoffset:0;stroke-opacity:1"
           sodipodi:type="arc" />
        <path
           sodipodi:type="arc"
           style="fill:#000000;fill-opacity:1;stroke:#f8f8f8;stroke-width:1;stroke-miterlimit:4;stroke-dasharray:none;stroke-dashoffset:0;stroke-opacity:1"
           id="path2580"
           sodipodi:cx="243.95184"
           sodipodi:cy="242.72491"
           sodipodi:rx="6.5659914"
           sodipodi:ry="6.5659914"
           d="M 250.51783,242.72491 A 6.5659914,6.5659914 0 1 1 237.38585,242.72491 A 6.5659914,6.5659914 0 1 1 250.51783,242.72491 z"
           transform="matrix(0.5711207,0,0,0.5711207,155.52097,180.22808)" />
        <path
           transform="matrix(0.5711207,0,0,0.5711207,203.83733,194.25818)"
           d="M 250.51783,242.72491 A 6.5659914,6.5659914 0 1 1 237.38585,242.72491 A 6.5659914,6.5659914 0 1 1 250.51783,242.72491 z"
           sodipodi:ry="6.5659914"
           sodipodi:rx="6.5659914"
           sodipodi:cy="242.72491"
           sodipodi:cx="243.95184"
           id="path2582"
           style="fill:#000000;fill-opacity:1;stroke:#f8f8f8;stroke-width:1;stroke-miterlimit:4;stroke-dasharray:none;stroke-dashoffset:0;stroke-opacity:1"
           sodipodi:type="arc" />
        <path
           sodipodi:type="arc"
           style="fill:#000000;fill-opacity:1;stroke:#f8f8f8;stroke-width:1;stroke-miterlimit:4;stroke-dasharray:none;stroke-dashoffset:0;stroke-opacity:1"
           id="path2584"
           sodipodi:cx="243.95184"
           sodipodi:cy="242.72491"
           sodipodi:rx="6.5659914"
           sodipodi:ry="6.5659914"
           d="M 250.51783,242.72491 A 6.5659914,6.5659914 0 1 1 237.38585,242.72491 A 6.5659914,6.5659914 0 1 1 250.51783,242.72491 z"
           transform="matrix(0.5711207,0,0,0.5711207,252.15365,203.12766)" />
        <path
           transform="matrix(0.5711207,0,0,0.5711207,300.46996,207.4335)"
           d="M 250.51783,242.72491 A 6.5659914,6.5659914 0 1 1 237.38585,242.72491 A 6.5659914,6.5659914 0 1 1 250.51783,242.72491 z"
           sodipodi:ry="6.5659914"
           sodipodi:rx="6.5659914"
           sodipodi:cy="242.72491"
           sodipodi:cx="243.95184"
           id="path2586"
           style="fill:#000000;fill-opacity:1;stroke:#f8f8f8;stroke-width:1;stroke-miterlimit:4;stroke-dasharray:none;stroke-dashoffset:0;stroke-opacity:1"
           sodipodi:type="arc" />
        <path
           sodipodi:type="arc"
           style="fill:#000000;fill-opacity:1;stroke:#f8f8f8;stroke-width:1;stroke-miterlimit:4;stroke-dasharray:none;stroke-dashoffset:0;stroke-opacity:1"
           id="path2588"
           sodipodi:cx="243.95184"
           sodipodi:cy="242.72491"
           sodipodi:rx="6.5659914"
           sodipodi:ry="6.5659914"
           d="M 250.51783,242.72491 A 6.5659914,6.5659914 0 1 1 237.38585,242.72491 A 6.5659914,6.5659914 0 1 1 250.51783,242.72491 z"
           transform="matrix(0.5711207,0,0,0.5711207,348.7863,212.71141)" />
      </g>
      <path
         sodipodi:type="arc"
         style="fill:#000000;fill-opacity:1;stroke:#f8f8f8;stroke-width:1;stroke-miterlimit:4;stroke-dasharray:none;stroke-dashoffset:0;stroke-opacity:1"
         id="path2590"
         sodipodi:cx="243.95184"
         sodipodi:cy="242.72491"
         sodipodi:rx="6.5659914"
         sodipodi:ry="6.5659914"
         d="M 250.51783,242.72491 A 6.5659914,6.5659914 0 1 1 237.38585,242.72491 A 6.5659914,6.5659914 0 1 1 250.51783,242.72491 z"
         transform="matrix(0.5711207,0,0,0.5711207,397.10264,216.25963)" />
    </g>
  </g>
</svg>
