<?xml version="1.0" encoding="UTF-8" standalone="no"?>
<!-- Created with Inkscape (http://www.inkscape.org/) -->
<svg
   xmlns:dc="http://purl.org/dc/elements/1.1/"
   xmlns:cc="http://creativecommons.org/ns#"
   xmlns:rdf="http://www.w3.org/1999/02/22-rdf-syntax-ns#"
   xmlns:svg="http://www.w3.org/2000/svg"
   xmlns="http://www.w3.org/2000/svg"
   xmlns:sodipodi="http://sodipodi.sourceforge.net/DTD/sodipodi-0.dtd"
   xmlns:inkscape="http://www.inkscape.org/namespaces/inkscape"
   width="744.09448819"
   height="1052.3622047"
   id="svg2"
   sodipodi:version="0.32"
   inkscape:version="0.46"
   sodipodi:docname="03zoh.svg"
   inkscape:output_extension="org.inkscape.output.svg.inkscape"
   inkscape:export-filename="/home/thomas/school/mae283/lectures/images/03zoh.png"
   inkscape:export-xdpi="150"
   inkscape:export-ydpi="150">
  <defs
     id="defs4">
    <marker
       inkscape:stockid="Arrow1Lstart"
       orient="auto"
       refY="0.0"
       refX="0.0"
       id="Arrow1Lstart"
       style="overflow:visible">
      <path
         id="path3162"
         d="M 0.0,0.0 L 5.0,-5.0 L -12.5,0.0 L 5.0,5.0 L 0.0,0.0 z "
         style="fill-rule:evenodd;stroke:#000000;stroke-width:1.0pt;marker-start:none"
         transform="scale(0.8) translate(12.5,0)" />
    </marker>
    <marker
       inkscape:stockid="Arrow1Lend"
       orient="auto"
       refY="0.0"
       refX="0.0"
       id="Arrow1Lend"
       style="overflow:visible;">
      <path
         id="path3165"
         d="M 0.0,0.0 L 5.0,-5.0 L -12.5,0.0 L 5.0,5.0 L 0.0,0.0 z "
         style="fill-rule:evenodd;stroke:#000000;stroke-width:1.0pt;marker-start:none;"
         transform="scale(0.8) rotate(180) translate(12.5,0)" />
    </marker>
    <inkscape:perspective
       sodipodi:type="inkscape:persp3d"
       inkscape:vp_x="0 : 526.18109 : 1"
       inkscape:vp_y="0 : 1000 : 0"
       inkscape:vp_z="744.09448 : 526.18109 : 1"
       inkscape:persp3d-origin="372.04724 : 350.78739 : 1"
       id="perspective10" />
  </defs>
  <sodipodi:namedview
     id="base"
     pagecolor="#ffffff"
     bordercolor="#666666"
     borderopacity="1.0"
     gridtolerance="10000"
     guidetolerance="10"
     objecttolerance="10"
     inkscape:pageopacity="0.0"
     inkscape:pageshadow="2"
     inkscape:zoom="1.4"
     inkscape:cx="391.1533"
     inkscape:cy="728.00257"
     inkscape:document-units="px"
     inkscape:current-layer="layer1"
     showgrid="false"
     inkscape:window-width="1280"
     inkscape:window-height="974"
     inkscape:window-x="0"
     inkscape:window-y="25" />
  <metadata
     id="metadata7">
    <rdf:RDF>
      <cc:Work
         rdf:about="">
        <dc:format>image/svg+xml</dc:format>
        <dc:type
           rdf:resource="http://purl.org/dc/dcmitype/StillImage" />
      </cc:Work>
    </rdf:RDF>
  </metadata>
  <g
     inkscape:label="Layer 1"
     inkscape:groupmode="layer"
     id="layer1">
    <path
       style="fill:none;fill-rule:evenodd;stroke:#000000;stroke-width:1px;stroke-linecap:butt;stroke-linejoin:miter;stroke-opacity:1"
       d="M 193.94929,156.35687 C 193.94929,156.69359 193.94929,157.03031 193.94929,156.35687 z"
       id="path2383" />
    <path
       style="fill:none;fill-rule:evenodd;stroke:#000000;stroke-width:0.83737934px;stroke-linecap:butt;stroke-linejoin:miter;marker-start:url(#Arrow1Lstart);stroke-opacity:1"
       d="M 175.76654,209.80855 L 175.76654,429.17937"
       id="path2385" />
    <path
       style="fill:none;fill-rule:evenodd;stroke:#000000;stroke-width:1px;stroke-linecap:butt;stroke-linejoin:miter;stroke-opacity:1;marker-end:url(#Arrow1Lend)"
       d="M 111.11678,408.89501 L 609.12198,408.89501"
       id="path2387" />
    <text
       xml:space="preserve"
       style="font-size:24px;font-style:italic;font-variant:normal;font-weight:normal;font-stretch:normal;text-align:start;line-height:125%;writing-mode:lr-tb;text-anchor:start;fill:#000000;fill-opacity:1;stroke:none;stroke-width:1px;stroke-linecap:butt;stroke-linejoin:miter;stroke-opacity:1;font-family:Liberation Serif;-inkscape-font-specification:Liberation Serif Italic"
       x="172.7361"
       y="201.21689"
       id="text4460"
       sodipodi:linespacing="125%"><tspan
         sodipodi:role="line"
         id="tspan4462"
         x="172.7361"
         y="201.21689">y</tspan></text>
    <text
       xml:space="preserve"
       style="font-size:24px;font-style:italic;font-variant:normal;font-weight:normal;font-stretch:normal;text-align:start;line-height:125%;writing-mode:lr-tb;text-anchor:start;fill:#000000;fill-opacity:1;stroke:none;stroke-width:1px;stroke-linecap:butt;stroke-linejoin:miter;stroke-opacity:1;font-family:Liberation Serif;-inkscape-font-specification:Liberation Serif Italic"
       x="615.18286"
       y="413.94577"
       id="text4464"
       sodipodi:linespacing="125%"><tspan
         sodipodi:role="line"
         id="tspan4466"
         x="615.18286"
         y="413.94577">x</tspan></text>
    <text
       xml:space="preserve"
       style="font-size:24px;font-style:italic;font-variant:normal;font-weight:normal;font-stretch:normal;text-align:start;line-height:125%;writing-mode:lr-tb;text-anchor:start;fill:#000000;fill-opacity:1;stroke:none;stroke-width:1px;stroke-linecap:butt;stroke-linejoin:miter;stroke-opacity:1;font-family:Liberation Serif;-inkscape-font-specification:Liberation Serif Italic"
       x="605.08136"
       y="260.40259"
       id="text4470"
       sodipodi:linespacing="125%"><tspan
         sodipodi:role="line"
         id="tspan4472"
         x="605.08136"
         y="260.40259">y(t)</tspan></text>
    <path
       sodipodi:type="arc"
       style="opacity:1;fill:#000000;fill-opacity:1;stroke:#f8f8f8;stroke-width:1;stroke-miterlimit:4;stroke-dasharray:none;stroke-dashoffset:0;stroke-opacity:1"
       id="path4478"
       sodipodi:cx="243.95184"
       sodipodi:cy="242.72491"
       sodipodi:rx="6.5659914"
       sodipodi:ry="6.5659914"
       d="M 250.51783,242.72491 A 6.5659914,6.5659914 0 1 1 237.38585,242.72491 A 6.5659914,6.5659914 0 1 1 250.51783,242.72491 z"
       transform="matrix(0.5711207,0,0,0.5711207,85.881165,205.60621)" />
    <path
       transform="matrix(0.5711207,0,0,0.5711207,85.881165,240.7121)"
       d="M 250.51783,242.72491 A 6.5659914,6.5659914 0 1 1 237.38585,242.72491 A 6.5659914,6.5659914 0 1 1 250.51783,242.72491 z"
       sodipodi:ry="6.5659914"
       sodipodi:rx="6.5659914"
       sodipodi:cy="242.72491"
       sodipodi:cx="243.95184"
       id="path4480"
       style="opacity:1;fill:#000000;fill-opacity:1;stroke:#f8f8f8;stroke-width:1;stroke-miterlimit:4;stroke-dasharray:none;stroke-dashoffset:0;stroke-opacity:1"
       sodipodi:type="arc" />
    <path
       transform="matrix(0.5711207,0,0,0.5711207,138.02402,185.98131)"
       d="M 250.51783,242.72491 A 6.5659914,6.5659914 0 1 1 237.38585,242.72491 A 6.5659914,6.5659914 0 1 1 250.51783,242.72491 z"
       sodipodi:ry="6.5659914"
       sodipodi:rx="6.5659914"
       sodipodi:cy="242.72491"
       sodipodi:cx="243.95184"
       id="path4482"
       style="opacity:1;fill:#000000;fill-opacity:1;stroke:#f8f8f8;stroke-width:1;stroke-miterlimit:4;stroke-dasharray:none;stroke-dashoffset:0;stroke-opacity:1"
       sodipodi:type="arc" />
    <path
       sodipodi:type="arc"
       style="opacity:1;fill:#000000;fill-opacity:1;stroke:#f8f8f8;stroke-width:1;stroke-miterlimit:4;stroke-dasharray:none;stroke-dashoffset:0;stroke-opacity:1"
       id="path4484"
       sodipodi:cx="243.95184"
       sodipodi:cy="242.72491"
       sodipodi:rx="6.5659914"
       sodipodi:ry="6.5659914"
       d="M 250.51783,242.72491 A 6.5659914,6.5659914 0 1 1 237.38585,242.72491 A 6.5659914,6.5659914 0 1 1 250.51783,242.72491 z"
       transform="matrix(0.5711207,0,0,0.5711207,138.02402,219.99781)" />
    <path
       sodipodi:type="arc"
       style="opacity:1;fill:#000000;fill-opacity:1;stroke:#f8f8f8;stroke-width:1;stroke-miterlimit:4;stroke-dasharray:none;stroke-dashoffset:0;stroke-opacity:1"
       id="path4486"
       sodipodi:cx="243.95184"
       sodipodi:cy="242.72491"
       sodipodi:rx="6.5659914"
       sodipodi:ry="6.5659914"
       d="M 250.51783,242.72491 A 6.5659914,6.5659914 0 1 1 237.38585,242.72491 A 6.5659914,6.5659914 0 1 1 250.51783,242.72491 z"
       transform="matrix(0.5711207,0,0,0.5711207,200.88116,152.29656)" />
    <path
       transform="matrix(0.5711207,0,0,0.5711207,200.88116,234.99781)"
       d="M 250.51783,242.72491 A 6.5659914,6.5659914 0 1 1 237.38585,242.72491 A 6.5659914,6.5659914 0 1 1 250.51783,242.72491 z"
       sodipodi:ry="6.5659914"
       sodipodi:rx="6.5659914"
       sodipodi:cy="242.72491"
       sodipodi:cx="243.95184"
       id="path4488"
       style="opacity:1;fill:#000000;fill-opacity:1;stroke:#f8f8f8;stroke-width:1;stroke-miterlimit:4;stroke-dasharray:none;stroke-dashoffset:0;stroke-opacity:1"
       sodipodi:type="arc" />
    <path
       transform="matrix(0.5711207,0,0,0.5711207,256.2383,136.92237)"
       d="M 250.51783,242.72491 A 6.5659914,6.5659914 0 1 1 237.38585,242.72491 A 6.5659914,6.5659914 0 1 1 250.51783,242.72491 z"
       sodipodi:ry="6.5659914"
       sodipodi:rx="6.5659914"
       sodipodi:cy="242.72491"
       sodipodi:cx="243.95184"
       id="path4490"
       style="opacity:1;fill:#000000;fill-opacity:1;stroke:#f8f8f8;stroke-width:1;stroke-miterlimit:4;stroke-dasharray:none;stroke-dashoffset:0;stroke-opacity:1"
       sodipodi:type="arc" />
    <path
       sodipodi:type="arc"
       style="opacity:1;fill:#000000;fill-opacity:1;stroke:#f8f8f8;stroke-width:1;stroke-miterlimit:4;stroke-dasharray:none;stroke-dashoffset:0;stroke-opacity:1"
       id="path4492"
       sodipodi:cx="243.95184"
       sodipodi:cy="242.72491"
       sodipodi:rx="6.5659914"
       sodipodi:ry="6.5659914"
       d="M 250.51783,242.72491 A 6.5659914,6.5659914 0 1 1 237.38585,242.72491 A 6.5659914,6.5659914 0 1 1 250.51783,242.72491 z"
       transform="matrix(0.5711207,0,0,0.5711207,256.2383,198.2121)" />
    <path
       sodipodi:type="arc"
       style="opacity:1;fill:#000000;fill-opacity:1;stroke:#f8f8f8;stroke-width:1;stroke-miterlimit:4;stroke-dasharray:none;stroke-dashoffset:0;stroke-opacity:1"
       id="path4494"
       sodipodi:cx="243.95184"
       sodipodi:cy="242.72491"
       sodipodi:rx="6.5659914"
       sodipodi:ry="6.5659914"
       d="M 250.51783,242.72491 A 6.5659914,6.5659914 0 1 1 237.38585,242.72491 A 6.5659914,6.5659914 0 1 1 250.51783,242.72491 z"
       transform="matrix(0.5711207,0,0,0.5711207,316.59544,140.19177)" />
    <path
       transform="matrix(0.5711207,0,0,0.5711207,316.59544,217.49781)"
       d="M 250.51783,242.72491 A 6.5659914,6.5659914 0 1 1 237.38585,242.72491 A 6.5659914,6.5659914 0 1 1 250.51783,242.72491 z"
       sodipodi:ry="6.5659914"
       sodipodi:rx="6.5659914"
       sodipodi:cy="242.72491"
       sodipodi:cx="243.95184"
       id="path4496"
       style="opacity:1;fill:#000000;fill-opacity:1;stroke:#f8f8f8;stroke-width:1;stroke-miterlimit:4;stroke-dasharray:none;stroke-dashoffset:0;stroke-opacity:1"
       sodipodi:type="arc" />
    <path
       transform="matrix(0.5711207,0,0,0.5711207,373.38115,133.18635)"
       d="M 250.51783,242.72491 A 6.5659914,6.5659914 0 1 1 237.38585,242.72491 A 6.5659914,6.5659914 0 1 1 250.51783,242.72491 z"
       sodipodi:ry="6.5659914"
       sodipodi:rx="6.5659914"
       sodipodi:cy="242.72491"
       sodipodi:cx="243.95184"
       id="path4498"
       style="opacity:1;fill:#000000;fill-opacity:1;stroke:#f8f8f8;stroke-width:1;stroke-miterlimit:4;stroke-dasharray:none;stroke-dashoffset:0;stroke-opacity:1"
       sodipodi:type="arc" />
    <path
       sodipodi:type="arc"
       style="opacity:1;fill:#000000;fill-opacity:1;stroke:#f8f8f8;stroke-width:1;stroke-miterlimit:4;stroke-dasharray:none;stroke-dashoffset:0;stroke-opacity:1"
       id="path4500"
       sodipodi:cx="243.95184"
       sodipodi:cy="242.72491"
       sodipodi:rx="6.5659914"
       sodipodi:ry="6.5659914"
       d="M 250.51783,242.72491 A 6.5659914,6.5659914 0 1 1 237.38585,242.72491 A 6.5659914,6.5659914 0 1 1 250.51783,242.72491 z"
       transform="matrix(0.5711207,0,0,0.5711207,373.38115,252.49782)" />
    <path
       sodipodi:type="arc"
       style="opacity:1;fill:#000000;fill-opacity:1;stroke:#f8f8f8;stroke-width:1;stroke-miterlimit:4;stroke-dasharray:none;stroke-dashoffset:0;stroke-opacity:1"
       id="path4502"
       sodipodi:cx="243.95184"
       sodipodi:cy="242.72491"
       sodipodi:rx="6.5659914"
       sodipodi:ry="6.5659914"
       d="M 250.51783,242.72491 A 6.5659914,6.5659914 0 1 1 237.38585,242.72491 A 6.5659914,6.5659914 0 1 1 250.51783,242.72491 z"
       transform="matrix(0.5711207,0,0,0.5711207,432.66686,109.7449)" />
    <path
       transform="matrix(0.5711207,0,0,0.5711207,432.66686,163.56924)"
       d="M 250.51783,242.72491 A 6.5659914,6.5659914 0 1 1 237.38585,242.72491 A 6.5659914,6.5659914 0 1 1 250.51783,242.72491 z"
       sodipodi:ry="6.5659914"
       sodipodi:rx="6.5659914"
       sodipodi:cy="242.72491"
       sodipodi:cx="243.95184"
       id="path4504"
       style="opacity:1;fill:#000000;fill-opacity:1;stroke:#f8f8f8;stroke-width:1;stroke-miterlimit:4;stroke-dasharray:none;stroke-dashoffset:0;stroke-opacity:1"
       sodipodi:type="arc" />
    <path
       style="fill:none;fill-rule:evenodd;stroke:#000000;stroke-width:1.00296199px;stroke-linecap:butt;stroke-linejoin:miter;stroke-opacity:1"
       d="M 225.48638,379.29583 L 278.00332,379.29583"
       id="path4506"
       sodipodi:nodetypes="cc" />
    <path
       style="fill:none;fill-rule:evenodd;stroke:#000000;stroke-width:0.94639426px;stroke-linecap:butt;stroke-linejoin:miter;stroke-opacity:1"
       d="M 277.45972,378.85345 L 277.34693,358.76395 L 340.3078,358.76395"
       id="path4508"
       sodipodi:nodetypes="ccc" />
    <path
       style="fill:none;fill-rule:evenodd;stroke:#000000;stroke-width:0.78301585px;stroke-linecap:butt;stroke-linejoin:miter;stroke-opacity:1"
       d="M 340.03759,358.23167 L 340.03759,373.75317 L 396.26594,373.75317"
       id="path4510" />
    <path
       style="fill:none;fill-rule:evenodd;stroke:#000000;stroke-width:0.92893964px;stroke-linecap:butt;stroke-linejoin:miter;stroke-opacity:1"
       d="M 396.07143,336.8317 L 396.07143,374.12255"
       id="path4512" />
    <path
       style="fill:none;fill-rule:evenodd;stroke:#000000;stroke-width:0.94454694px;stroke-linecap:butt;stroke-linejoin:miter;stroke-opacity:1"
       d="M 395.68188,336.75622 L 455.90328,336.75622"
       id="path4514" />
    <path
       style="fill:none;fill-rule:evenodd;stroke:#000000;stroke-width:0.769041px;stroke-linecap:butt;stroke-linejoin:miter;stroke-opacity:1"
       d="M 455.59881,336.29475 L 455.59881,356.04909 L 512.49043,356.04909"
       id="path4516" />
    <path
       style="fill:none;fill-rule:evenodd;stroke:#000000;stroke-width:0.77644581px;stroke-linecap:butt;stroke-linejoin:miter;stroke-opacity:1"
       d="M 512.03108,355.66525 L 512.03108,391.40253 L 572.96764,391.40253"
       id="path4518" />
    <path
       style="fill:none;fill-rule:evenodd;stroke:#000000;stroke-width:0.97232449px;stroke-linecap:butt;stroke-linejoin:miter;stroke-opacity:1"
       d="M 572.5,301.97775 L 572.5,391.79217"
       id="path4520" />
    <text
       xml:space="preserve"
       style="font-size:24px;font-style:italic;font-variant:normal;font-weight:normal;font-stretch:normal;text-align:start;line-height:125%;writing-mode:lr-tb;text-anchor:start;fill:#000000;fill-opacity:1;stroke:none;stroke-width:1px;stroke-linecap:butt;stroke-linejoin:miter;stroke-opacity:1;font-family:Liberation Serif;-inkscape-font-specification:Liberation Serif Italic"
       x="587.14288"
       y="311.64789"
       id="text4522"
       sodipodi:linespacing="125%"><tspan
         sodipodi:role="line"
         id="tspan4524"
         x="587.14288"
         y="311.64789">u(t)</tspan></text>
    <path
       style="fill:none;fill-rule:evenodd;stroke:#000000;stroke-width:1px;stroke-linecap:butt;stroke-linejoin:miter;stroke-opacity:1"
       d="M 127.85714,347.36218 C 179.69724,346.98373 233.41723,352.15937 270,329.50504 C 324.42421,295.70025 368.17904,271.69313 425.71428,274.50504 C 453.04636,279.17268 492.26146,285.2012 505,275.93361 C 532.32619,262.84026 551.67487,238.04292 588.57143,252.36218"
       id="path2568"
       sodipodi:nodetypes="ccccc" />
  </g>
</svg>
