<?xml version="1.0" encoding="UTF-8" standalone="no"?>
<!-- Created with Inkscape (http://www.inkscape.org/) -->
<svg
   xmlns:dc="http://purl.org/dc/elements/1.1/"
   xmlns:cc="http://creativecommons.org/ns#"
   xmlns:rdf="http://www.w3.org/1999/02/22-rdf-syntax-ns#"
   xmlns:svg="http://www.w3.org/2000/svg"
   xmlns="http://www.w3.org/2000/svg"
   xmlns:sodipodi="http://sodipodi.sourceforge.net/DTD/sodipodi-0.dtd"
   xmlns:inkscape="http://www.inkscape.org/namespaces/inkscape"
   width="744.09448819"
   height="1052.3622047"
   id="svg2"
   sodipodi:version="0.32"
   inkscape:version="0.46"
   sodipodi:docname="03zoh.svg"
   inkscape:output_extension="org.inkscape.output.svg.inkscape"
   inkscape:export-filename="/home/thomas/school/mae283/lectures/images/03zoh.png"
   inkscape:export-xdpi="150"
   inkscape:export-ydpi="150">
  <defs
     id="defs4">
    <marker
       inkscape:stockid="Arrow1Lstart"
       orient="auto"
       refY="0.0"
       refX="0.0"
       id="Arrow1Lstart"
       style="overflow:visible">
      <path
         id="path3162"
         d="M 0.0,0.0 L 5.0,-5.0 L -12.5,0.0 L 5.0,5.0 L 0.0,0.0 z "
         style="fill-rule:evenodd;stroke:#000000;stroke-width:1.0pt;marker-start:none"
         transform="scale(0.8) translate(12.5,0)" />
    </marker>
    <marker
       inkscape:stockid="Arrow1Lend"
       orient="auto"
       refY="0.0"
       refX="0.0"
       id="Arrow1Lend"
       style="overflow:visible;">
      <path
         id="path3165"
         d="M 0.0,0.0 L 5.0,-5.0 L -12.5,0.0 L 5.0,5.0 L 0.0,0.0 z "
         style="fill-rule:evenodd;stroke:#000000;stroke-width:1.0pt;marker-start:none;"
         transform="scale(0.8) rotate(180) translate(12.5,0)" />
    </marker>
    <inkscape:perspective
       sodipodi:type="inkscape:persp3d"
       inkscape:vp_x="0 : 526.18109 : 1"
       inkscape:vp_y="0 : 1000 : 0"
       inkscape:vp_z="744.09448 : 526.18109 : 1"
       inkscape:persp3d-origin="372.04724 : 350.78739 : 1"
       id="perspective10" />
  </defs>
  <sodipodi:namedview
     id="base"
     pagecolor="#ffffff"
     bordercolor="#666666"
     borderopacity="1.0"
     gridtolerance="10000"
     guidetolerance="10"
     objecttolerance="10"
     inkscape:pageopacity="0.0"
     inkscape:pageshadow="2"
     inkscape:zoom="1.4"
     inkscape:cx="393.60513"
     inkscape:cy="756.54478"
     inkscape:document-units="px"
     inkscape:current-layer="layer1"
     showgrid="false"
     inkscape:window-width="1280"
     inkscape:window-height="974"
     inkscape:window-x="0"
     inkscape:window-y="25" />
  <metadata
     id="metadata7">
    <rdf:RDF>
      <cc:Work
         rdf:about="">
        <dc:format>image/svg+xml</dc:format>
        <dc:type
           rdf:resource="http://purl.org/dc/dcmitype/StillImage" />
      </cc:Work>
    </rdf:RDF>
  </metadata>
  <g
     inkscape:label="Layer 1"
     inkscape:groupmode="layer"
     id="layer1">
    <path
       style="fill:none;fill-rule:evenodd;stroke:#000000;stroke-width:1px;stroke-linecap:butt;stroke-linejoin:miter;stroke-opacity:1"
       d="M 193.94929,156.35687 C 193.94929,156.69359 193.94929,157.03031 193.94929,156.35687 z"
       id="path2383" />
    <path
       style="fill:none;fill-rule:evenodd;stroke:#000000;stroke-width:1px;stroke-linecap:butt;stroke-linejoin:miter;stroke-opacity:1;marker-start:url(#Arrow1Lstart)"
       d="M 175.76654,109.88986 L 175.76654,429.09806"
       id="path2385" />
    <path
       style="fill:none;fill-rule:evenodd;stroke:#000000;stroke-width:1px;stroke-linecap:butt;stroke-linejoin:miter;stroke-opacity:1;marker-end:url(#Arrow1Lend)"
       d="M 111.11678,408.89501 L 609.12198,408.89501"
       id="path2387" />
    <text
       xml:space="preserve"
       style="font-size:24px;font-style:italic;font-variant:normal;font-weight:normal;font-stretch:normal;text-align:start;line-height:125%;writing-mode:lr-tb;text-anchor:start;fill:#000000;fill-opacity:1;stroke:none;stroke-width:1px;stroke-linecap:butt;stroke-linejoin:miter;stroke-opacity:1;font-family:Liberation Serif;-inkscape-font-specification:Liberation Serif Italic"
       x="172.7361"
       y="99.788322"
       id="text4460"
       sodipodi:linespacing="125%"><tspan
         sodipodi:role="line"
         id="tspan4462"
         x="172.7361"
         y="99.788322">y</tspan></text>
    <text
       xml:space="preserve"
       style="font-size:24px;font-style:italic;font-variant:normal;font-weight:normal;font-stretch:normal;text-align:start;line-height:125%;writing-mode:lr-tb;text-anchor:start;fill:#000000;fill-opacity:1;stroke:none;stroke-width:1px;stroke-linecap:butt;stroke-linejoin:miter;stroke-opacity:1;font-family:Liberation Serif;-inkscape-font-specification:Liberation Serif Italic"
       x="615.18286"
       y="413.94577"
       id="text4464"
       sodipodi:linespacing="125%"><tspan
         sodipodi:role="line"
         id="tspan4466"
         x="615.18286"
         y="413.94577">x</tspan></text>
    <path
       style="fill:none;fill-rule:evenodd;stroke:#000000;stroke-width:1px;stroke-linecap:butt;stroke-linejoin:miter;stroke-opacity:1"
       d="M 136.37059,351.31632 C 138.57506,350.98681 145.89871,349.29601 151.52288,349.29601 C 156.57364,349.29601 161.62441,349.29601 166.67517,349.29601 C 171.63983,349.29601 177.32582,349.15873 180.81731,348.28586 C 186.98145,346.74482 192.10056,346.60098 197.9899,344.24525 C 202.61152,342.3966 207.42656,341.00761 212.13203,338.18433 C 217.12751,335.18705 224.12026,332.19022 228.29448,330.10311 C 232.88848,327.80611 235.82822,326.33624 240.41631,324.0422 C 244.24049,322.13011 249.11366,321.36278 254.55844,320.00159 C 259.25828,318.82663 261.82858,317.1739 266.68027,315.96098 C 271.32905,314.79878 274.40751,314.28171 279.81226,312.93052 C 284.7027,311.70791 288.57437,311.92037 293.95439,311.92037 C 299.76594,311.92037 302.95329,310.91021 308.09653,310.91021 C 314.51845,310.91021 319.83981,308.88991 326.27927,308.88991 C 330.92185,308.88991 336.41323,308.88991 341.43156,308.88991 C 346.76464,308.88991 352.9013,309.90006 358.60415,309.90006 C 363.93926,309.90006 367.6155,310.91021 373.75644,310.91021 C 379.89748,310.91021 386.13805,311.35035 391.93919,309.90006 C 393.28606,309.56334 394.63293,309.22663 395.9798,308.88991 C 402.49157,307.26197 409.01405,306.38896 415.1727,304.8493 C 419.34327,303.80665 424.03349,302.88664 428.30468,301.81884 C 433.76119,300.45471 438.83204,297.92431 443.45697,296.76808 C 448.54141,295.49697 451.15321,293.83386 455.5788,292.72747 C 460.45212,291.50914 464.05892,289.84982 468.71078,288.68686 C 473.35422,287.526 477.84802,286.90762 482.85292,285.6564 C 488.7474,284.18278 497.00006,283.88738 502.04582,282.62594 C 508.65166,280.97448 510.15819,280.57448 514.16765,276.56503 C 516.92951,273.80316 521.22495,272.02622 524.26917,270.50411 C 529.52104,267.87818 534.8365,266.2306 540.43161,263.43304 C 546.35044,260.47363 550.7159,256.06375 557.60421,254.34167 C 563.12093,252.96249 568.92793,253.33152 574.7768,253.33152 C 579.82756,253.33152 584.87832,253.33152 589.92909,253.33152 C 590.93924,253.33152 591.94939,253.33152 592.95954,253.33152"
       id="path4468" />
    <text
       xml:space="preserve"
       style="font-size:24px;font-style:italic;font-variant:normal;font-weight:normal;font-stretch:normal;text-align:start;line-height:125%;writing-mode:lr-tb;text-anchor:start;fill:#000000;fill-opacity:1;stroke:none;stroke-width:1px;stroke-linecap:butt;stroke-linejoin:miter;stroke-opacity:1;font-family:Liberation Serif;-inkscape-font-specification:Liberation Serif Italic"
       x="605.08136"
       y="260.40259"
       id="text4470"
       sodipodi:linespacing="125%"><tspan
         sodipodi:role="line"
         id="tspan4472"
         x="605.08136"
         y="260.40259">y(t)</tspan></text>
    <path
       sodipodi:type="arc"
       style="opacity:1;fill:#000000;fill-opacity:1;stroke:#f8f8f8;stroke-width:1;stroke-miterlimit:4;stroke-dasharray:none;stroke-dashoffset:0;stroke-opacity:1"
       id="path4478"
       sodipodi:cx="243.95184"
       sodipodi:cy="242.72491"
       sodipodi:rx="6.5659914"
       sodipodi:ry="6.5659914"
       d="M 250.51783,242.72491 A 6.5659914,6.5659914 0 1 1 237.38585,242.72491 A 6.5659914,6.5659914 0 1 1 250.51783,242.72491 z"
       transform="matrix(0.5711207,0,0,0.5711207,85.881165,192.49781)" />
    <path
       transform="matrix(0.5711207,0,0,0.5711207,85.881165,240.7121)"
       d="M 250.51783,242.72491 A 6.5659914,6.5659914 0 1 1 237.38585,242.72491 A 6.5659914,6.5659914 0 1 1 250.51783,242.72491 z"
       sodipodi:ry="6.5659914"
       sodipodi:rx="6.5659914"
       sodipodi:cy="242.72491"
       sodipodi:cx="243.95184"
       id="path4480"
       style="opacity:1;fill:#000000;fill-opacity:1;stroke:#f8f8f8;stroke-width:1;stroke-miterlimit:4;stroke-dasharray:none;stroke-dashoffset:0;stroke-opacity:1"
       sodipodi:type="arc" />
    <path
       transform="matrix(0.5711207,0,0,0.5711207,138.02402,174.64067)"
       d="M 250.51783,242.72491 A 6.5659914,6.5659914 0 1 1 237.38585,242.72491 A 6.5659914,6.5659914 0 1 1 250.51783,242.72491 z"
       sodipodi:ry="6.5659914"
       sodipodi:rx="6.5659914"
       sodipodi:cy="242.72491"
       sodipodi:cx="243.95184"
       id="path4482"
       style="opacity:1;fill:#000000;fill-opacity:1;stroke:#f8f8f8;stroke-width:1;stroke-miterlimit:4;stroke-dasharray:none;stroke-dashoffset:0;stroke-opacity:1"
       sodipodi:type="arc" />
    <path
       sodipodi:type="arc"
       style="opacity:1;fill:#000000;fill-opacity:1;stroke:#f8f8f8;stroke-width:1;stroke-miterlimit:4;stroke-dasharray:none;stroke-dashoffset:0;stroke-opacity:1"
       id="path4484"
       sodipodi:cx="243.95184"
       sodipodi:cy="242.72491"
       sodipodi:rx="6.5659914"
       sodipodi:ry="6.5659914"
       d="M 250.51783,242.72491 A 6.5659914,6.5659914 0 1 1 237.38585,242.72491 A 6.5659914,6.5659914 0 1 1 250.51783,242.72491 z"
       transform="matrix(0.5711207,0,0,0.5711207,138.02402,219.99781)" />
    <path
       sodipodi:type="arc"
       style="opacity:1;fill:#000000;fill-opacity:1;stroke:#f8f8f8;stroke-width:1;stroke-miterlimit:4;stroke-dasharray:none;stroke-dashoffset:0;stroke-opacity:1"
       id="path4486"
       sodipodi:cx="243.95184"
       sodipodi:cy="242.72491"
       sodipodi:rx="6.5659914"
       sodipodi:ry="6.5659914"
       d="M 250.51783,242.72491 A 6.5659914,6.5659914 0 1 1 237.38585,242.72491 A 6.5659914,6.5659914 0 1 1 250.51783,242.72491 z"
       transform="matrix(0.5711207,0,0,0.5711207,200.88116,169.99781)" />
    <path
       transform="matrix(0.5711207,0,0,0.5711207,200.88116,234.99781)"
       d="M 250.51783,242.72491 A 6.5659914,6.5659914 0 1 1 237.38585,242.72491 A 6.5659914,6.5659914 0 1 1 250.51783,242.72491 z"
       sodipodi:ry="6.5659914"
       sodipodi:rx="6.5659914"
       sodipodi:cy="242.72491"
       sodipodi:cx="243.95184"
       id="path4488"
       style="opacity:1;fill:#000000;fill-opacity:1;stroke:#f8f8f8;stroke-width:1;stroke-miterlimit:4;stroke-dasharray:none;stroke-dashoffset:0;stroke-opacity:1"
       sodipodi:type="arc" />
    <path
       transform="matrix(0.5711207,0,0,0.5711207,256.2383,169.99781)"
       d="M 250.51783,242.72491 A 6.5659914,6.5659914 0 1 1 237.38585,242.72491 A 6.5659914,6.5659914 0 1 1 250.51783,242.72491 z"
       sodipodi:ry="6.5659914"
       sodipodi:rx="6.5659914"
       sodipodi:cy="242.72491"
       sodipodi:cx="243.95184"
       id="path4490"
       style="opacity:1;fill:#000000;fill-opacity:1;stroke:#f8f8f8;stroke-width:1;stroke-miterlimit:4;stroke-dasharray:none;stroke-dashoffset:0;stroke-opacity:1"
       sodipodi:type="arc" />
    <path
       sodipodi:type="arc"
       style="opacity:1;fill:#000000;fill-opacity:1;stroke:#f8f8f8;stroke-width:1;stroke-miterlimit:4;stroke-dasharray:none;stroke-dashoffset:0;stroke-opacity:1"
       id="path4492"
       sodipodi:cx="243.95184"
       sodipodi:cy="242.72491"
       sodipodi:rx="6.5659914"
       sodipodi:ry="6.5659914"
       d="M 250.51783,242.72491 A 6.5659914,6.5659914 0 1 1 237.38585,242.72491 A 6.5659914,6.5659914 0 1 1 250.51783,242.72491 z"
       transform="matrix(0.5711207,0,0,0.5711207,256.2383,198.2121)" />
    <path
       sodipodi:type="arc"
       style="opacity:1;fill:#000000;fill-opacity:1;stroke:#f8f8f8;stroke-width:1;stroke-miterlimit:4;stroke-dasharray:none;stroke-dashoffset:0;stroke-opacity:1"
       id="path4494"
       sodipodi:cx="243.95184"
       sodipodi:cy="242.72491"
       sodipodi:rx="6.5659914"
       sodipodi:ry="6.5659914"
       d="M 250.51783,242.72491 A 6.5659914,6.5659914 0 1 1 237.38585,242.72491 A 6.5659914,6.5659914 0 1 1 250.51783,242.72491 z"
       transform="matrix(0.5711207,0,0,0.5711207,316.59544,153.56924)" />
    <path
       transform="matrix(0.5711207,0,0,0.5711207,316.59544,217.49781)"
       d="M 250.51783,242.72491 A 6.5659914,6.5659914 0 1 1 237.38585,242.72491 A 6.5659914,6.5659914 0 1 1 250.51783,242.72491 z"
       sodipodi:ry="6.5659914"
       sodipodi:rx="6.5659914"
       sodipodi:cy="242.72491"
       sodipodi:cx="243.95184"
       id="path4496"
       style="opacity:1;fill:#000000;fill-opacity:1;stroke:#f8f8f8;stroke-width:1;stroke-miterlimit:4;stroke-dasharray:none;stroke-dashoffset:0;stroke-opacity:1"
       sodipodi:type="arc" />
    <path
       transform="matrix(0.5711207,0,0,0.5711207,373.38115,139.28353)"
       d="M 250.51783,242.72491 A 6.5659914,6.5659914 0 1 1 237.38585,242.72491 A 6.5659914,6.5659914 0 1 1 250.51783,242.72491 z"
       sodipodi:ry="6.5659914"
       sodipodi:rx="6.5659914"
       sodipodi:cy="242.72491"
       sodipodi:cx="243.95184"
       id="path4498"
       style="opacity:1;fill:#000000;fill-opacity:1;stroke:#f8f8f8;stroke-width:1;stroke-miterlimit:4;stroke-dasharray:none;stroke-dashoffset:0;stroke-opacity:1"
       sodipodi:type="arc" />
    <path
       sodipodi:type="arc"
       style="opacity:1;fill:#000000;fill-opacity:1;stroke:#f8f8f8;stroke-width:1;stroke-miterlimit:4;stroke-dasharray:none;stroke-dashoffset:0;stroke-opacity:1"
       id="path4500"
       sodipodi:cx="243.95184"
       sodipodi:cy="242.72491"
       sodipodi:rx="6.5659914"
       sodipodi:ry="6.5659914"
       d="M 250.51783,242.72491 A 6.5659914,6.5659914 0 1 1 237.38585,242.72491 A 6.5659914,6.5659914 0 1 1 250.51783,242.72491 z"
       transform="matrix(0.5711207,0,0,0.5711207,373.38115,252.49782)" />
    <path
       sodipodi:type="arc"
       style="opacity:1;fill:#000000;fill-opacity:1;stroke:#f8f8f8;stroke-width:1;stroke-miterlimit:4;stroke-dasharray:none;stroke-dashoffset:0;stroke-opacity:1"
       id="path4502"
       sodipodi:cx="243.95184"
       sodipodi:cy="242.72491"
       sodipodi:rx="6.5659914"
       sodipodi:ry="6.5659914"
       d="M 250.51783,242.72491 A 6.5659914,6.5659914 0 1 1 237.38585,242.72491 A 6.5659914,6.5659914 0 1 1 250.51783,242.72491 z"
       transform="matrix(0.5711207,0,0,0.5711207,432.66686,114.28353)" />
    <path
       transform="matrix(0.5711207,0,0,0.5711207,432.66686,163.56924)"
       d="M 250.51783,242.72491 A 6.5659914,6.5659914 0 1 1 237.38585,242.72491 A 6.5659914,6.5659914 0 1 1 250.51783,242.72491 z"
       sodipodi:ry="6.5659914"
       sodipodi:rx="6.5659914"
       sodipodi:cy="242.72491"
       sodipodi:cx="243.95184"
       id="path4504"
       style="opacity:1;fill:#000000;fill-opacity:1;stroke:#f8f8f8;stroke-width:1;stroke-miterlimit:4;stroke-dasharray:none;stroke-dashoffset:0;stroke-opacity:1"
       sodipodi:type="arc" />
    <path
       style="fill:none;fill-rule:evenodd;stroke:#000000;stroke-width:1.00296199px;stroke-linecap:butt;stroke-linejoin:miter;stroke-opacity:1"
       d="M 225.48638,379.29583 L 278.00332,379.29583"
       id="path4506"
       sodipodi:nodetypes="cc" />
    <path
       style="fill:none;fill-rule:evenodd;stroke:#000000;stroke-width:0.94639426px;stroke-linecap:butt;stroke-linejoin:miter;stroke-opacity:1"
       d="M 277.45972,378.85345 L 277.34693,358.76395 L 340.3078,358.76395"
       id="path4508"
       sodipodi:nodetypes="ccc" />
    <path
       style="fill:none;fill-rule:evenodd;stroke:#000000;stroke-width:0.78301585px;stroke-linecap:butt;stroke-linejoin:miter;stroke-opacity:1"
       d="M 340.03759,358.23167 L 340.03759,373.75317 L 396.26594,373.75317"
       id="path4510" />
    <path
       style="fill:none;fill-rule:evenodd;stroke:#000000;stroke-width:0.92893964px;stroke-linecap:butt;stroke-linejoin:miter;stroke-opacity:1"
       d="M 396.07143,336.8317 L 396.07143,374.12255"
       id="path4512" />
    <path
       style="fill:none;fill-rule:evenodd;stroke:#000000;stroke-width:0.94454694px;stroke-linecap:butt;stroke-linejoin:miter;stroke-opacity:1"
       d="M 395.68188,336.75622 L 455.90328,336.75622"
       id="path4514" />
    <path
       style="fill:none;fill-rule:evenodd;stroke:#000000;stroke-width:0.769041px;stroke-linecap:butt;stroke-linejoin:miter;stroke-opacity:1"
       d="M 455.59881,336.29475 L 455.59881,356.04909 L 512.49043,356.04909"
       id="path4516" />
    <path
       style="fill:none;fill-rule:evenodd;stroke:#000000;stroke-width:0.77644581px;stroke-linecap:butt;stroke-linejoin:miter;stroke-opacity:1"
       d="M 512.03108,355.66525 L 512.03108,391.40253 L 572.96764,391.40253"
       id="path4518" />
    <path
       style="fill:none;fill-rule:evenodd;stroke:#000000;stroke-width:0.97232449px;stroke-linecap:butt;stroke-linejoin:miter;stroke-opacity:1"
       d="M 572.5,301.97775 L 572.5,391.79217"
       id="path4520" />
    <text
       xml:space="preserve"
       style="font-size:24px;font-style:italic;font-variant:normal;font-weight:normal;font-stretch:normal;text-align:start;line-height:125%;writing-mode:lr-tb;text-anchor:start;fill:#000000;fill-opacity:1;stroke:none;stroke-width:1px;stroke-linecap:butt;stroke-linejoin:miter;stroke-opacity:1;font-family:Liberation Serif;-inkscape-font-specification:Liberation Serif Italic"
       x="587.14288"
       y="311.64789"
       id="text4522"
       sodipodi:linespacing="125%"><tspan
         sodipodi:role="line"
         id="tspan4524"
         x="587.14288"
         y="311.64789">u(t)</tspan></text>
  </g>
</svg>
