<?xml version="1.0" encoding="UTF-8" standalone="no"?>
<svg
   xmlns:dc="http://purl.org/dc/elements/1.1/"
   xmlns:cc="http://creativecommons.org/ns#"
   xmlns:rdf="http://www.w3.org/1999/02/22-rdf-syntax-ns#"
   xmlns:svg="http://www.w3.org/2000/svg"
   xmlns="http://www.w3.org/2000/svg"
   xmlns:xlink="http://www.w3.org/1999/xlink"
   xmlns:sodipodi="http://sodipodi.sourceforge.net/DTD/sodipodi-0.dtd"
   xmlns:inkscape="http://www.inkscape.org/namespaces/inkscape"
   width="600"
   height="480"
   viewBox="0 0 600 480"
   id="svg10017"
   sodipodi:version="0.32"
   inkscape:version="0.46"
   sodipodi:docname="04dimSine.svg"
   inkscape:output_extension="org.inkscape.output.svg.inkscape"
   inkscape:export-filename="/home/thomas/school/mae283/lectures/images/04dimSine.png"
   inkscape:export-xdpi="150"
   inkscape:export-ydpi="150">
  <metadata
     id="metadata10180">
    <rdf:RDF>
      <cc:Work
         rdf:about="">
        <dc:format>image/svg+xml</dc:format>
        <dc:type
           rdf:resource="http://purl.org/dc/dcmitype/StillImage" />
      </cc:Work>
    </rdf:RDF>
  </metadata>
  <sodipodi:namedview
     inkscape:window-height="974"
     inkscape:window-width="1280"
     inkscape:pageshadow="2"
     inkscape:pageopacity="0.0"
     guidetolerance="10.0"
     gridtolerance="10.0"
     objecttolerance="10.0"
     borderopacity="1.0"
     bordercolor="#666666"
     pagecolor="#ffffff"
     id="base"
     showgrid="false"
     inkscape:zoom="0.92833333"
     inkscape:cx="323.69838"
     inkscape:cy="222.76481"
     inkscape:window-x="0"
     inkscape:window-y="25"
     inkscape:current-layer="svg10017" />
  <desc
     id="desc10019">Produced by GNUPLOT 4.2 patchlevel 4  </desc>
  <defs
     id="defs10021">
    <inkscape:perspective
       sodipodi:type="inkscape:persp3d"
       inkscape:vp_x="0 : 240 : 1"
       inkscape:vp_y="0 : 1000 : 0"
       inkscape:vp_z="600 : 240 : 1"
       inkscape:persp3d-origin="300 : 160 : 1"
       id="perspective10182" />
    <circle
       id="gpDot"
       r="1" />
    <path
       id="gpPt0"
       style="stroke-width:0.222"
       d="M-1,0 h2 M0,-1 v2" />
    <path
       id="gpPt1"
       style="stroke-width:0.222"
       d="M-1,-1 L1,1 M1,-1 L-1,1" />
    <path
       id="gpPt2"
       style="stroke-width:0.222"
       d="M-1,0 L1,0 M0,-1 L0,1 M-1,-1 L1,1 M-1,1 L1,-1" />
    <rect
       id="gpPt3"
       style="stroke-width:0.222"
       x="-1"
       y="-1"
       width="2"
       height="2" />
    <use
       xlink:href="#gpPt3"
       id="gpPt4"
       style="fill:currentColor; stroke:none" />
    <circle
       id="gpPt5"
       style="stroke-width:0.222"
       cx="0"
       cy="0"
       r="1" />
    <use
       xlink:href="#gpPt5"
       id="gpPt6"
       style="fill:currentColor; stroke:none" />
    <path
       id="gpPt7"
       style="stroke-width:0.222"
       d="M0,-1.33 L-1.33,0.67 L1.33,0.67 z" />
    <use
       xlink:href="#gpPt7"
       id="gpPt8"
       style="fill:currentColor; stroke:none" />
    <use
       xlink:href="#gpPt7"
       id="gpPt9"
       transform="rotate(180)" />
    <use
       xlink:href="#gpPt9"
       id="gpPt10"
       style="fill:currentColor; stroke:none" />
    <use
       xlink:href="#gpPt3"
       id="gpPt11"
       transform="rotate(45)" />
    <use
       xlink:href="#gpPt11"
       id="gpPt12"
       style="fill:currentColor; stroke:none" />
  </defs>
  <g
     style="fill:none; color:white; stroke:currentColor; stroke-width:1.00; stroke-linecap:butt; stroke-linejoin:miter"
     id="g10037" />
  <g
     style="fill:none; color:black; stroke:currentColor; stroke-width:1.00; stroke-linecap:butt; stroke-linejoin:miter"
     id="g10039">
    <path
       d="M75.4,444.0 L84.4,444.0 M582.7,444.0 L573.7,444.0 "
       id="path10041" />
    <g
       transform="translate(67.1,448.5)"
       style="stroke:none; fill:black; font-family:Arial; font-size:12.00pt; text-anchor:end"
       id="g10043">
      <text
         id="text10045">
        <tspan
           id="tspan10047">-0.6</tspan>
      </text>
    </g>
    <path
       d="M75.4,390.6 L84.4,390.6 M582.7,390.6 L573.7,390.6 "
       id="path10049" />
    <g
       transform="translate(67.1,395.1)"
       style="stroke:none; fill:black; font-family:Arial; font-size:12.00pt; text-anchor:end"
       id="g10051">
      <text
         id="text10053">
        <tspan
           id="tspan10055">-0.4</tspan>
      </text>
    </g>
    <path
       d="M75.4,337.1 L84.4,337.1 M582.7,337.1 L573.7,337.1 "
       id="path10057" />
    <g
       transform="translate(67.1,341.6)"
       style="stroke:none; fill:black; font-family:Arial; font-size:12.00pt; text-anchor:end"
       id="g10059">
      <text
         id="text10061">
        <tspan
           id="tspan10063">-0.2</tspan>
      </text>
    </g>
    <path
       d="M75.4,283.7 L84.4,283.7 M582.7,283.7 L573.7,283.7 "
       id="path10065" />
    <g
       transform="translate(67.1,288.2)"
       style="stroke:none; fill:black; font-family:Arial; font-size:12.00pt; text-anchor:end"
       id="g10067">
      <text
         id="text10069">
        <tspan
           id="tspan10071"> 0</tspan>
      </text>
    </g>
    <path
       d="M75.4,230.3 L84.4,230.3 M582.7,230.3 L573.7,230.3 "
       id="path10073" />
    <g
       transform="translate(67.1,234.8)"
       style="stroke:none; fill:black; font-family:Arial; font-size:12.00pt; text-anchor:end"
       id="g10075">
      <text
         id="text10077">
        <tspan
           id="tspan10079"> 0.2</tspan>
      </text>
    </g>
    <path
       d="M75.4,176.9 L84.4,176.9 M582.7,176.9 L573.7,176.9 "
       id="path10081" />
    <g
       transform="translate(67.1,181.4)"
       style="stroke:none; fill:black; font-family:Arial; font-size:12.00pt; text-anchor:end"
       id="g10083">
      <text
         id="text10085">
        <tspan
           id="tspan10087"> 0.4</tspan>
      </text>
    </g>
    <path
       d="M75.4,123.4 L84.4,123.4 M582.7,123.4 L573.7,123.4 "
       id="path10089" />
    <g
       transform="translate(67.1,127.9)"
       style="stroke:none; fill:black; font-family:Arial; font-size:12.00pt; text-anchor:end"
       id="g10091">
      <text
         id="text10093">
        <tspan
           id="tspan10095"> 0.6</tspan>
      </text>
    </g>
    <path
       d="M75.4,70.0 L84.4,70.0 M582.7,70.0 L573.7,70.0 "
       id="path10097" />
    <g
       transform="translate(67.1,74.5)"
       style="stroke:none; fill:black; font-family:Arial; font-size:12.00pt; text-anchor:end"
       id="g10099">
      <text
         id="text10101">
        <tspan
           id="tspan10103"> 0.8</tspan>
      </text>
    </g>
    <path
       d="M75.4,16.6 L84.4,16.6 M582.7,16.6 L573.7,16.6 "
       id="path10105" />
    <g
       transform="translate(67.1,21.1)"
       style="stroke:none; fill:black; font-family:Arial; font-size:12.00pt; text-anchor:end"
       id="g10107">
      <text
         id="text10109">
        <tspan
           id="tspan10111"> 1</tspan>
      </text>
    </g>
    <path
       d="M75.4,444.0 L75.4,435.0 M75.4,16.6 L75.4,25.6 "
       id="path10113" />
    <g
       transform="translate(75.4,466.5)"
       style="stroke:none; fill:black; font-family:Arial; font-size:12.00pt; text-anchor:middle"
       id="g10115">
      <text
         id="text10117">
        <tspan
           id="tspan10119"> 0</tspan>
      </text>
    </g>
    <path
       d="M176.9,444.0 L176.9,435.0 M176.9,16.6 L176.9,25.6 "
       id="path10121" />
    <g
       transform="translate(176.9,466.5)"
       style="stroke:none; fill:black; font-family:Arial; font-size:12.00pt; text-anchor:middle"
       id="g10123">
      <text
         id="text10125">
        <tspan
           id="tspan10127"> 10</tspan>
      </text>
    </g>
    <path
       d="M278.3,444.0 L278.3,435.0 M278.3,16.6 L278.3,25.6 "
       id="path10129" />
    <g
       transform="translate(278.3,466.5)"
       style="stroke:none; fill:black; font-family:Arial; font-size:12.00pt; text-anchor:middle"
       id="g10131">
      <text
         id="text10133">
        <tspan
           id="tspan10135"> 20</tspan>
      </text>
    </g>
    <path
       d="M379.8,444.0 L379.8,435.0 M379.8,16.6 L379.8,25.6 "
       id="path10137" />
    <g
       transform="translate(379.8,466.5)"
       style="stroke:none; fill:black; font-family:Arial; font-size:12.00pt; text-anchor:middle"
       id="g10139">
      <text
         id="text10141">
        <tspan
           id="tspan10143"> 30</tspan>
      </text>
    </g>
    <path
       d="M481.2,444.0 L481.2,435.0 M481.2,16.6 L481.2,25.6 "
       id="path10145" />
    <g
       transform="translate(481.2,466.5)"
       style="stroke:none; fill:black; font-family:Arial; font-size:12.00pt; text-anchor:middle"
       id="g10147">
      <text
         id="text10149">
        <tspan
           id="tspan10151"> 40</tspan>
      </text>
    </g>
    <path
       d="M582.7,444.0 L582.7,435.0 M582.7,16.6 L582.7,25.6 "
       id="path10153" />
    <g
       transform="translate(582.7,466.5)"
       style="stroke:none; fill:black; font-family:Arial; font-size:12.00pt; text-anchor:middle"
       id="g10155">
      <text
         id="text10157">
        <tspan
           id="tspan10159"> 50</tspan>
      </text>
    </g>
    <path
       d="M75.4,16.6 L75.4,444.0 L582.7,444.0 L582.7,16.6 L75.4,16.6 Z "
       id="path10161" />
  </g>
  <g
     style="fill:none; color:red; stroke:currentColor; stroke-width:1.00; stroke-linecap:butt; stroke-linejoin:miter"
     id="g10163" />
  <g
     style="fill:none; color:black; stroke:currentColor; stroke-width:1.00; stroke-linecap:butt; stroke-linejoin:miter"
     id="g10165">
    <g
       transform="translate(515.6,39.1)"
       style="stroke:none; fill:black; font-family:Arial; font-size:12.00pt; text-anchor:end"
       id="g10167">
      <text
         id="text10169"
         style="-inkscape-font-specification:Bitstream Vera Serif Italic;font-family:Bitstream Vera Serif;font-weight:normal;font-style:italic;font-stretch:normal;font-variant:normal;font-size:20px;text-anchor:end;text-align:end;writing-mode:lr;line-height:125%"
         sodipodi:linespacing="125%">x**(-.5)*sin(x)</text>
      <text
         xml:space="preserve"
         style="font-size:24px;font-style:italic;font-variant:normal;font-weight:normal;font-stretch:normal;text-align:start;line-height:125%;writing-mode:lr-tb;text-anchor:start;fill:#000000;fill-opacity:1;stroke:none;stroke-width:1px;stroke-linecap:butt;stroke-linejoin:miter;stroke-opacity:1;font-family:Liberation Serif;-inkscape-font-specification:Liberation Serif Italic"
         x="-287.23376"
         y="169.44579"
         id="text10693"
         sodipodi:linespacing="125%"><tspan
           sodipodi:role="line"
           id="tspan10695"
           x="-287.23376"
           y="169.44579"
           dy="0 0 0 -5.3859968">R<tspan
   style="font-size:12px"
   id="tspan10697"
   dy="5.3859968">yu</tspan>(τ)</tspan></text>
    </g>
  </g>
  <g
     style="fill:none;color:red;stroke:#ff0000;stroke-width:2;stroke-linecap:butt;stroke-linejoin:miter;stroke-opacity:1;stroke-miterlimit:4;stroke-dasharray:none"
     id="g10171">
    <path
       d="M523.9,34.6 L566.1,34.6 M80.5,101.9 L85.6,58.6 L90.8,67.0 L95.9,114.4 L101.0,186.6 L106.1,266.7    L111.3,338.2 L116.4,387.7 L121.5,407.3 L126.6,395.9 L131.8,359.1 L136.9,307.7 L142.0,254.7 L147.1,212.5    L152.3,190.4 L157.4,192.2 L162.5,215.9 L167.6,254.7 L172.8,298.4 L177.9,336.3 L183.0,359.6 L188.1,363.3    L193.3,347.5 L198.4,316.8 L203.5,279.2 L208.6,244.3 L213.8,220.3 L218.9,212.7 L224.0,222.8 L229.1,247.5    L234.3,280.3 L239.4,312.8 L244.5,337.3 L249.6,347.8 L254.7,342.3 L259.9,322.5 L265.0,293.7 L270.1,263.3    L275.2,238.6 L280.4,225.7 L285.5,227.4 L290.6,243.0 L295.7,268.2 L300.9,296.7 L306.0,321.3 L311.1,336.2    L316.2,337.7 L321.4,325.9 L326.5,303.9 L331.6,277.4 L336.7,252.9 L341.9,236.6 L347.0,232.2 L352.1,240.6    L357.2,259.6 L362.4,284.2 L367.5,308.2 L372.6,325.7 L377.7,332.6 L382.9,327.3 L388.0,311.2 L393.1,288.6    L398.2,265.2 L403.4,246.7 L408.5,237.7 L413.6,240.2 L418.7,253.5 L423.8,274.0 L429.0,296.7 L434.1,315.8    L439.2,326.7 L444.3,326.8 L449.5,316.2 L454.6,297.7 L459.7,276.0 L464.8,256.5 L470.0,244.0 L475.1,241.5    L480.2,249.5 L485.3,266.0 L490.5,286.6 L495.6,306.2 L500.7,320.1 L505.8,324.7 L511.0,319.2 L516.1,304.8    L521.2,285.5 L526.3,265.9 L531.5,250.9 L536.6,244.3 L541.7,247.5 L546.8,259.7 L552.0,277.7 L557.1,297.0    L562.2,312.8 L567.3,321.2 L572.5,320.2 L577.6,310.2 L582.7,293.6 "
       id="path10173"
       style="stroke:#ff0000;stroke-opacity:1;stroke-width:2;stroke-miterlimit:4;stroke-dasharray:none" />
  </g>
  <g
     style="fill:none; color:black; stroke:currentColor; stroke-width:1.00; stroke-linecap:butt; stroke-linejoin:miter"
     id="g10175">
    <path
       d="M75.4,16.6 L75.4,444.0 L582.7,444.0 L582.7,16.6 L75.4,16.6 Z "
       id="path10177" />
  </g>
</svg>
