<?xml version="1.0" encoding="UTF-8" standalone="no"?>
<!-- Created with Inkscape (http://www.inkscape.org/) -->
<svg
   xmlns:dc="http://purl.org/dc/elements/1.1/"
   xmlns:cc="http://creativecommons.org/ns#"
   xmlns:rdf="http://www.w3.org/1999/02/22-rdf-syntax-ns#"
   xmlns:svg="http://www.w3.org/2000/svg"
   xmlns="http://www.w3.org/2000/svg"
   xmlns:sodipodi="http://sodipodi.sourceforge.net/DTD/sodipodi-0.dtd"
   xmlns:inkscape="http://www.inkscape.org/namespaces/inkscape"
   width="744.09448819"
   height="1052.3622047"
   id="svg2"
   sodipodi:version="0.32"
   inkscape:version="0.46"
   sodipodi:docname="05autoCov.svg"
   inkscape:output_extension="org.inkscape.output.svg.inkscape"
   inkscape:export-filename="/home/thomas/school/mae283/lectures/images/05autoCov.png"
   inkscape:export-xdpi="150"
   inkscape:export-ydpi="150">
  <defs
     id="defs4">
    <marker
       inkscape:stockid="Arrow1Mend"
       orient="auto"
       refY="0.0"
       refX="0.0"
       id="Arrow1Mend"
       style="overflow:visible;">
      <path
         id="path3259"
         d="M 0.0,0.0 L 5.0,-5.0 L -12.5,0.0 L 5.0,5.0 L 0.0,0.0 z "
         style="fill-rule:evenodd;stroke:#000000;stroke-width:1.0pt;marker-start:none;"
         transform="scale(0.4) rotate(180) translate(10,0)" />
    </marker>
    <marker
       inkscape:stockid="Arrow1Mstart"
       orient="auto"
       refY="0.0"
       refX="0.0"
       id="Arrow1Mstart"
       style="overflow:visible">
      <path
         id="path3256"
         d="M 0.0,0.0 L 5.0,-5.0 L -12.5,0.0 L 5.0,5.0 L 0.0,0.0 z "
         style="fill-rule:evenodd;stroke:#000000;stroke-width:1.0pt;marker-start:none"
         transform="scale(0.4) translate(10,0)" />
    </marker>
    <inkscape:perspective
       sodipodi:type="inkscape:persp3d"
       inkscape:vp_x="0 : 526.18109 : 1"
       inkscape:vp_y="0 : 1000 : 0"
       inkscape:vp_z="744.09448 : 526.18109 : 1"
       inkscape:persp3d-origin="372.04724 : 350.78739 : 1"
       id="perspective10" />
  </defs>
  <sodipodi:namedview
     id="base"
     pagecolor="#ffffff"
     bordercolor="#666666"
     borderopacity="1.0"
     gridtolerance="10000"
     guidetolerance="10"
     objecttolerance="10"
     inkscape:pageopacity="0.0"
     inkscape:pageshadow="2"
     inkscape:zoom="1.4"
     inkscape:cx="260.766"
     inkscape:cy="790.70201"
     inkscape:document-units="px"
     inkscape:current-layer="layer1"
     showgrid="false"
     inkscape:window-width="1280"
     inkscape:window-height="974"
     inkscape:window-x="0"
     inkscape:window-y="25" />
  <metadata
     id="metadata7">
    <rdf:RDF>
      <cc:Work
         rdf:about="">
        <dc:format>image/svg+xml</dc:format>
        <dc:type
           rdf:resource="http://purl.org/dc/dcmitype/StillImage" />
      </cc:Work>
    </rdf:RDF>
  </metadata>
  <g
     inkscape:label="Layer 1"
     inkscape:groupmode="layer"
     id="layer1">
    <path
       style="fill:none;fill-rule:evenodd;stroke:#000000;stroke-width:1px;stroke-linecap:butt;stroke-linejoin:miter;marker-start:url(#Arrow1Mstart);stroke-opacity:1"
       d="M 366.9564,139.18428 L 366.9564,422.02699"
       id="path3231" />
    <path
       style="fill:none;fill-rule:evenodd;stroke:#000000;stroke-width:0.9430086px;stroke-linecap:butt;stroke-linejoin:miter;marker-end:url(#Arrow1Mend);stroke-opacity:1"
       d="M 107.19996,396.77318 L 638.14844,396.77318"
       id="path3233" />
    <path
       style="fill:none;fill-rule:evenodd;stroke:#000000;stroke-width:1px;stroke-linecap:butt;stroke-linejoin:miter;stroke-opacity:1"
       d="M 353.82442,162.41779 L 380.08839,162.41779"
       id="path3237" />
    <text
       xml:space="preserve"
       style="font-size:24px;font-style:italic;font-variant:normal;font-weight:normal;font-stretch:normal;text-align:start;line-height:125%;writing-mode:lr-tb;text-anchor:start;fill:#000000;fill-opacity:1;stroke:none;stroke-width:1px;stroke-linecap:butt;stroke-linejoin:miter;stroke-opacity:1;font-family:Liberation Serif;-inkscape-font-specification:Liberation Serif Italic"
       x="601.42853"
       y="418.07645"
       id="text4548"
       sodipodi:linespacing="125%"><tspan
         sodipodi:role="line"
         id="tspan4550"
         x="601.42853"
         y="418.07645">N</tspan></text>
    <path
       style="fill:none;fill-rule:evenodd;stroke:#ff0000;stroke-width:1px;stroke-linecap:butt;stroke-linejoin:miter;stroke-opacity:1"
       d="M 365.67522,161.91271 C 372.92565,163.99135 380.5225,162.60578 386.88842,173.52947 C 406.823,246.81498 415.99986,319.3833 421.73869,391.72242 C 422.71165,400.08601 430.10588,413.62246 434.73325,404.74236 C 437.50159,393.73973 442.99736,387.94149 448.51824,389.07448 C 453.95265,390.3275 461.25106,395.70964 464.80324,400.72713 C 477.12976,401.85397 481.2119,396.74015 490.76082,393.23765 C 507.02794,392.32607 513.72247,396.4867 524.62631,399.15063 C 537.73187,400.46447 547.89678,397.38821 557.36961,394.16114 C 567.40486,395.63523 581.55964,391.84406 590.74054,399.29856 C 596.22297,398.94804 609.59069,397.71874 613.16876,396.41604"
       id="path5180"
       sodipodi:nodetypes="ccccccccccc" />
    <path
       sodipodi:nodetypes="ccccccccccc"
       id="path5182"
       d="M 366.74019,161.91271 C 359.48976,163.99135 351.89291,162.60578 345.52699,173.52947 C 325.59241,246.81498 316.41555,319.3833 310.67672,391.72242 C 309.70376,400.08601 302.30953,413.62246 297.68216,404.74236 C 294.91382,393.73973 289.41805,387.94149 283.89717,389.07448 C 278.46276,390.3275 271.16435,395.70964 267.61217,400.72713 C 255.28565,401.85397 251.20351,396.74015 241.65459,393.23765 C 225.38747,392.32607 218.69294,396.4867 207.7891,399.15063 C 194.68354,400.46447 184.51863,397.38821 175.0458,394.16114 C 165.01055,395.63523 150.85577,391.84406 141.67487,399.29856 C 136.19244,398.94804 122.82472,397.71874 119.24665,396.41604"
       style="fill:none;fill-rule:evenodd;stroke:#ff0000;stroke-width:1px;stroke-linecap:butt;stroke-linejoin:miter;stroke-opacity:1" />
    <text
       sodipodi:linespacing="125%"
       id="text5184"
       y="418.07645"
       x="111.42852"
       style="font-size:24px;font-style:italic;font-variant:normal;font-weight:normal;font-stretch:normal;text-align:start;line-height:125%;writing-mode:lr-tb;text-anchor:start;fill:#000000;fill-opacity:1;stroke:none;stroke-width:1px;stroke-linecap:butt;stroke-linejoin:miter;stroke-opacity:1;font-family:Liberation Serif;-inkscape-font-specification:Liberation Serif Italic"
       xml:space="preserve"><tspan
         y="418.07645"
         x="111.42852"
         id="tspan5186"
         sodipodi:role="line">-N</tspan></text>
  </g>
</svg>
