<?xml version="1.0" encoding="UTF-8" standalone="no"?>
<!-- Created with Inkscape (http://www.inkscape.org/) -->
<svg
   xmlns:dc="http://purl.org/dc/elements/1.1/"
   xmlns:cc="http://creativecommons.org/ns#"
   xmlns:rdf="http://www.w3.org/1999/02/22-rdf-syntax-ns#"
   xmlns:svg="http://www.w3.org/2000/svg"
   xmlns="http://www.w3.org/2000/svg"
   xmlns:sodipodi="http://sodipodi.sourceforge.net/DTD/sodipodi-0.dtd"
   xmlns:inkscape="http://www.inkscape.org/namespaces/inkscape"
   width="744.09448819"
   height="1052.3622047"
   id="svg2"
   sodipodi:version="0.32"
   inkscape:version="0.46"
   sodipodi:docname="06welsh.svg"
   inkscape:output_extension="org.inkscape.output.svg.inkscape"
   inkscape:export-filename="/home/thomas/school/mae283/lectures/images/06welsh.png"
   inkscape:export-xdpi="150"
   inkscape:export-ydpi="150">
  <defs
     id="defs4">
    <marker
       inkscape:stockid="Arrow1Mend"
       orient="auto"
       refY="0.0"
       refX="0.0"
       id="Arrow1Mend"
       style="overflow:visible;">
      <path
         id="path3173"
         d="M 0.0,0.0 L 5.0,-5.0 L -12.5,0.0 L 5.0,5.0 L 0.0,0.0 z "
         style="fill-rule:evenodd;stroke:#000000;stroke-width:1.0pt;marker-start:none;"
         transform="scale(0.4) rotate(180) translate(10,0)" />
    </marker>
    <marker
       inkscape:stockid="Arrow1Mstart"
       orient="auto"
       refY="0.0"
       refX="0.0"
       id="Arrow1Mstart"
       style="overflow:visible">
      <path
         id="path3170"
         d="M 0.0,0.0 L 5.0,-5.0 L -12.5,0.0 L 5.0,5.0 L 0.0,0.0 z "
         style="fill-rule:evenodd;stroke:#000000;stroke-width:1.0pt;marker-start:none"
         transform="scale(0.4) translate(10,0)" />
    </marker>
    <inkscape:perspective
       sodipodi:type="inkscape:persp3d"
       inkscape:vp_x="0 : 526.18109 : 1"
       inkscape:vp_y="0 : 1000 : 0"
       inkscape:vp_z="744.09448 : 526.18109 : 1"
       inkscape:persp3d-origin="372.04724 : 350.78739 : 1"
       id="perspective10" />
  </defs>
  <sodipodi:namedview
     id="base"
     pagecolor="#ffffff"
     bordercolor="#666666"
     borderopacity="1.0"
     gridtolerance="10000"
     guidetolerance="10"
     objecttolerance="10"
     inkscape:pageopacity="0.0"
     inkscape:pageshadow="2"
     inkscape:zoom="1.4"
     inkscape:cx="362.33746"
     inkscape:cy="792.30657"
     inkscape:document-units="px"
     inkscape:current-layer="layer1"
     showgrid="false"
     inkscape:window-width="1280"
     inkscape:window-height="974"
     inkscape:window-x="0"
     inkscape:window-y="25" />
  <metadata
     id="metadata7">
    <rdf:RDF>
      <cc:Work
         rdf:about="">
        <dc:format>image/svg+xml</dc:format>
        <dc:type
           rdf:resource="http://purl.org/dc/dcmitype/StillImage" />
      </cc:Work>
    </rdf:RDF>
  </metadata>
  <g
     inkscape:label="Layer 1"
     inkscape:groupmode="layer"
     id="layer1">
    <path
       style="fill:none;fill-rule:evenodd;stroke:#000000;stroke-width:1px;stroke-linecap:butt;stroke-linejoin:miter;stroke-opacity:1"
       d="M 115.71429,219.50504 L 115.71429,268.79075"
       id="path4072" />
    <path
       id="path4074"
       d="M 620,219.50504 L 620,268.79075"
       style="fill:none;fill-rule:evenodd;stroke:#000000;stroke-width:1px;stroke-linecap:butt;stroke-linejoin:miter;stroke-opacity:1" />
    <path
       style="fill:none;fill-rule:evenodd;stroke:#000000;stroke-width:0.99978124999999995;stroke-linecap:butt;stroke-linejoin:miter;stroke-miterlimit:4;stroke-dasharray:none;stroke-opacity:1"
       d="M 619.53866,244.14789 L 115.66699,244.14789"
       id="path4076"
       sodipodi:nodetypes="cc" />
    <path
       id="path4078"
       d="M 178.75,219.50504 L 178.75,268.79075"
       style="fill:none;fill-rule:evenodd;stroke:#000000;stroke-width:1px;stroke-linecap:butt;stroke-linejoin:miter;stroke-opacity:1" />
    <path
       style="fill:none;fill-rule:evenodd;stroke:#000000;stroke-width:1px;stroke-linecap:butt;stroke-linejoin:miter;stroke-opacity:1"
       d="M 241.7857,219.50504 L 241.7857,268.79075"
       id="path4080" />
    <path
       id="path4082"
       d="M 304.82145,219.50504 L 304.82145,268.79075"
       style="fill:none;fill-rule:evenodd;stroke:#000000;stroke-width:1px;stroke-linecap:butt;stroke-linejoin:miter;stroke-opacity:1" />
    <path
       style="fill:none;fill-rule:evenodd;stroke:#000000;stroke-width:1px;stroke-linecap:butt;stroke-linejoin:miter;stroke-opacity:1"
       d="M 367.85714,219.50504 L 367.85714,268.79075"
       id="path4084" />
    <path
       id="path4086"
       d="M 430.89286,219.50504 L 430.89286,268.79075"
       style="fill:none;fill-rule:evenodd;stroke:#000000;stroke-width:1px;stroke-linecap:butt;stroke-linejoin:miter;stroke-opacity:1" />
    <path
       style="fill:none;fill-rule:evenodd;stroke:#000000;stroke-width:1px;stroke-linecap:butt;stroke-linejoin:miter;stroke-opacity:1"
       d="M 493.92859,219.50504 L 493.92859,268.79075"
       id="path4088" />
    <path
       id="path4090"
       d="M 556.9643,219.50504 L 556.9643,268.79075"
       style="fill:none;fill-rule:evenodd;stroke:#000000;stroke-width:1px;stroke-linecap:butt;stroke-linejoin:miter;stroke-opacity:1" />
    <path
       style="fill:none;fill-rule:evenodd;stroke:#0000ff;stroke-width:1px;stroke-linecap:butt;stroke-linejoin:miter;stroke-opacity:1"
       d="M 178.66071,244.05861 C 175.92736,254.8901 173.86568,231.21435 168.57143,231.55861 C 165.42358,231.29709 165.21005,253.82953 161.78571,253.79075 C 159.1369,254.68361 160.41839,235.79951 155.98214,234.23718 C 151.25341,234.00829 151.29741,248.69181 148.39286,248.61218 C 144.73214,248.61218 145.39805,225.74336 142.5,225.57647 C 140.53007,225.39429 139.5755,239.96337 138.21429,247.54075 C 137.20022,251.80369 135.47946,255.73417 130.26785,255.93361 C 125.17562,255.59953 127.50626,231.60169 123.21429,231.29075 C 120.12603,231.31211 117.45173,233.66303 115.89286,243.96932"
       id="path4092"
       sodipodi:nodetypes="cccccccccc" />
    <path
       sodipodi:nodetypes="cccccccccc"
       id="path4094"
       d="M 241.42856,244.05861 C 238.69521,254.8901 236.63353,231.21435 231.33928,231.55861 C 228.19143,231.29709 227.9779,253.82953 224.55356,253.79075 C 221.90475,254.68361 223.18624,235.79951 218.74999,234.23718 C 214.02126,234.00829 214.06526,248.69181 211.16071,248.61218 C 207.49999,248.61218 208.1659,225.74336 205.26785,225.57647 C 203.29792,225.39429 202.34335,239.96337 200.98214,247.54075 C 199.96807,251.80369 198.24731,255.73417 193.0357,255.93361 C 187.94347,255.59953 190.27411,231.60169 185.98214,231.29075 C 182.89388,231.31211 180.21958,233.66303 178.66071,243.96932"
       style="fill:none;fill-rule:evenodd;stroke:#0000ff;stroke-width:1px;stroke-linecap:butt;stroke-linejoin:miter;stroke-opacity:1" />
    <path
       style="fill:none;fill-rule:evenodd;stroke:#0000ff;stroke-width:1px;stroke-linecap:butt;stroke-linejoin:miter;stroke-opacity:1"
       d="M 304.46427,244.05861 C 301.73092,254.8901 299.66924,231.21435 294.37499,231.55861 C 291.22714,231.29709 291.01361,253.82953 287.58927,253.79075 C 284.94046,254.68361 286.22195,235.79951 281.7857,234.23718 C 277.05697,234.00829 277.10097,248.69181 274.19642,248.61218 C 270.5357,248.61218 271.20161,225.74336 268.30356,225.57647 C 266.33363,225.39429 265.37906,239.96337 264.01785,247.54075 C 263.00378,251.80369 261.28302,255.73417 256.07141,255.93361 C 250.97918,255.59953 253.30982,231.60169 249.01785,231.29075 C 245.92959,231.31211 243.25529,233.66303 241.69642,243.96932"
       id="path4096"
       sodipodi:nodetypes="cccccccccc" />
    <path
       sodipodi:nodetypes="cccccccccc"
       id="path4098"
       d="M 367.58927,244.05861 C 364.85592,254.8901 362.79424,231.21435 357.49999,231.55861 C 354.35214,231.29709 354.13861,253.82953 350.71427,253.79075 C 348.06546,254.68361 349.34695,235.79951 344.9107,234.23718 C 340.18197,234.00829 340.22597,248.69181 337.32142,248.61218 C 333.6607,248.61218 334.32661,225.74336 331.42856,225.57647 C 329.45863,225.39429 328.50406,239.96337 327.14285,247.54075 C 326.12878,251.80369 324.40802,255.73417 319.19641,255.93361 C 314.10418,255.59953 316.43482,231.60169 312.14285,231.29075 C 309.05459,231.31211 306.38029,233.66303 304.82142,243.96932"
       style="fill:none;fill-rule:evenodd;stroke:#0000ff;stroke-width:1px;stroke-linecap:butt;stroke-linejoin:miter;stroke-opacity:1" />
    <path
       style="fill:none;fill-rule:evenodd;stroke:#0000ff;stroke-width:1px;stroke-linecap:butt;stroke-linejoin:miter;stroke-opacity:1"
       d="M 430.62499,244.05861 C 427.89164,254.8901 425.82996,231.21435 420.53571,231.55861 C 417.38786,231.29709 417.17433,253.82953 413.74999,253.79075 C 411.10118,254.68361 412.38267,235.79951 407.94642,234.23718 C 403.21769,234.00829 403.26169,248.69181 400.35714,248.61218 C 396.69642,248.61218 397.36233,225.74336 394.46428,225.57647 C 392.49435,225.39429 391.53978,239.96337 390.17857,247.54075 C 389.1645,251.80369 387.44374,255.73417 382.23213,255.93361 C 377.1399,255.59953 379.47054,231.60169 375.17857,231.29075 C 372.09031,231.31211 369.41601,233.66303 367.85714,243.96932"
       id="path4100"
       sodipodi:nodetypes="cccccccccc" />
    <path
       sodipodi:nodetypes="cccccccccc"
       id="path4102"
       d="M 493.83928,244.05861 C 491.10593,254.8901 489.04425,231.21435 483.75,231.55861 C 480.60215,231.29709 480.38862,253.82953 476.96428,253.79075 C 474.31547,254.68361 475.59696,235.79951 471.16071,234.23718 C 466.43198,234.00829 466.47598,248.69181 463.57143,248.61218 C 459.91071,248.61218 460.57662,225.74336 457.67857,225.57647 C 455.70864,225.39429 454.75407,239.96337 453.39286,247.54075 C 452.37879,251.80369 450.65803,255.73417 445.44642,255.93361 C 440.35419,255.59953 442.68483,231.60169 438.39286,231.29075 C 435.3046,231.31211 432.6303,233.66303 431.07143,243.96932"
       style="fill:none;fill-rule:evenodd;stroke:#0000ff;stroke-width:1px;stroke-linecap:butt;stroke-linejoin:miter;stroke-opacity:1" />
    <path
       style="fill:none;fill-rule:evenodd;stroke:#0000ff;stroke-width:1px;stroke-linecap:butt;stroke-linejoin:miter;stroke-opacity:1"
       d="M 556.78571,244.05861 C 554.05236,254.8901 551.99068,231.21435 546.69643,231.55861 C 543.54858,231.29709 543.33505,253.82953 539.91071,253.79075 C 537.2619,254.68361 538.54339,235.79951 534.10714,234.23718 C 529.37841,234.00829 529.42241,248.69181 526.51786,248.61218 C 522.85714,248.61218 523.52305,225.74336 520.625,225.57647 C 518.65507,225.39429 517.7005,239.96337 516.33929,247.54075 C 515.32522,251.80369 513.60446,255.73417 508.39285,255.93361 C 503.30062,255.59953 505.63126,231.60169 501.33929,231.29075 C 498.25103,231.31211 495.57673,233.66303 494.01786,243.96932"
       id="path4104"
       sodipodi:nodetypes="cccccccccc" />
    <path
       sodipodi:nodetypes="cccccccccc"
       id="path4106"
       d="M 619.82142,244.05861 C 617.08807,254.8901 615.02639,231.21435 609.73214,231.55861 C 606.58429,231.29709 606.37076,253.82953 602.94642,253.79075 C 600.29761,254.68361 601.5791,235.79951 597.14285,234.23718 C 592.41412,234.00829 592.45812,248.69181 589.55357,248.61218 C 585.89285,248.61218 586.55876,225.74336 583.66071,225.57647 C 581.69078,225.39429 580.73621,239.96337 579.375,247.54075 C 578.36093,251.80369 576.64017,255.73417 571.42856,255.93361 C 566.33633,255.59953 568.66697,231.60169 564.375,231.29075 C 561.28674,231.31211 558.61244,233.66303 557.05357,243.96932"
       style="fill:none;fill-rule:evenodd;stroke:#0000ff;stroke-width:1px;stroke-linecap:butt;stroke-linejoin:miter;stroke-opacity:1" />
    <g
       id="g4114">
      <path
         id="path4108"
         d="M 503.57143,160.87642 L 536.42858,160.87642"
         style="fill:none;fill-rule:evenodd;stroke:#0000ff;stroke-width:1px;stroke-linecap:butt;stroke-linejoin:miter;stroke-opacity:1" />
      <text
         sodipodi:linespacing="125%"
         id="text4110"
         y="166.6479"
         x="455.71429"
         style="font-size:24px;font-style:italic;font-variant:normal;font-weight:normal;font-stretch:normal;text-align:start;line-height:125%;writing-mode:lr-tb;text-anchor:start;fill:#000000;fill-opacity:1;stroke:none;stroke-width:1px;stroke-linecap:butt;stroke-linejoin:miter;stroke-opacity:1;font-family:Liberation Serif;-inkscape-font-specification:Liberation Serif Italic"
         xml:space="preserve"><tspan
           y="166.6479"
           x="455.71429"
           id="tspan4112"
           sodipodi:role="line">s(t)</tspan></text>
    </g>
    <text
       xml:space="preserve"
       style="font-size:24px;font-style:italic;font-variant:normal;font-weight:normal;font-stretch:normal;text-align:start;line-height:125%;writing-mode:lr-tb;text-anchor:start;fill:#000000;fill-opacity:1;stroke:none;stroke-width:1px;stroke-linecap:butt;stroke-linejoin:miter;stroke-opacity:1;font-family:Liberation Serif;-inkscape-font-specification:Liberation Serif Italic"
       x="109.28571"
       y="287.54074"
       id="text4119"
       sodipodi:linespacing="125%"><tspan
         sodipodi:role="line"
         id="tspan4121"
         x="109.28571"
         y="287.54074">0</tspan></text>
    <text
       xml:space="preserve"
       style="font-size:24px;font-style:italic;font-variant:normal;font-weight:normal;font-stretch:normal;text-align:start;line-height:125%;writing-mode:lr-tb;text-anchor:start;fill:#000000;fill-opacity:1;stroke:none;stroke-width:1px;stroke-linecap:butt;stroke-linejoin:miter;stroke-opacity:1;font-family:Liberation Serif;-inkscape-font-specification:Liberation Serif Italic"
       x="168.92857"
       y="287.36218"
       id="text4123"
       sodipodi:linespacing="125%"><tspan
         sodipodi:role="line"
         id="tspan4125"
         x="168.92857"
         y="287.36218">N<tspan
   style="font-size:12px"
   id="tspan4127"
   dy="4.2857141"
   dx="-2.1428571">0</tspan></tspan></text>
  </g>
</svg>
